<svg id="svg6834" xmlns:rdf="http://www.w3.org/1999/02/22-rdf-syntax-ns#" xmlns="http://www.w3.org/2000/svg" height="51.1" width="51.6" version="1.1" xmlns:cc="http://creativecommons.org/ns#" xmlns:dc="http://purl.org/dc/elements/1.1/" viewBox="0 0 51.617737 51.119486">
 <g id="layer1" transform="translate(-317 -475)">
  <path id="path6430" style="color-rendering:auto;text-decoration-color:#000000;color:#000000;isolation:auto;mix-blend-mode:normal;shape-rendering:auto;solid-color:#000000;block-progression:tb;text-decoration-line:none;text-decoration-style:solid;image-rendering:auto;white-space:normal;text-indent:0;text-transform:none" d="m3.58 0c-1.96 0-3.58 1.61-3.58 3.58v28.4c0 1.97 1.62 3.58 3.58 3.58l18.7-0.002v3.55c0 1.86 1.48 3.42 3.32 3.42h13.9c1.84 0 3.31-1.57 3.32-3.42l0.168-25.4 0.043-1.33a0.9 0.9 0 0 0 0 -0.002c0.0415-1.29-0.534-2.3-1.3-2.81-0.767-0.507-1.6-0.594-2.23-0.594h-8.23l0.0273-4.02 0.0488-1.4c0-1.49-0.7-2.54-1.5-3.07-0.8-0.519-1.7-0.61-2.4-0.61h-23.9zm0 1.8h23.9c0.479 0 1.07 0.103 1.44 0.334 0.363 0.231 0.608 0.489 0.578 1.36l-0.0156 0.439h-27.7v-0.355c0-0.984 0.797-1.78 1.78-1.78zm-1.78 3.94h27.7l-0.0215 3.25h-3.9c-1.84 0-3.32 1.56-3.32 3.42v14.6h-20.4v-21.3zm23.8 5.05h13.9c0.418 0 0.932 0.0937 1.24 0.295 0.304 0.201 0.52 0.429 0.494 1.25l-0.0234 0.713h-17.2v-0.635c0-0.915 0.7-1.62 1.52-1.62zm-1.52 4.05h17.1l-0.127 19.2h-17v-19.2zm-22.2 14h20.4v4.93h-18.7c-0.981 0-1.78-0.799-1.78-1.78v-3.15zm12.1 1.41a0.9 0.9 0 1 0 0 1.8h3.38a0.9 0.9 0 1 0 0 -1.8h-3.38zm10.2 5.62h17l-0.0215 3.26c-0.006 0.922-0.701 1.63-1.52 1.63h-13.9c-0.82 0-1.52-0.706-1.52-1.62v-3.26zm6.96 1.57a0.9 0.9 0 1 0 0 1.8h3.05a0.9 0.9 0 1 0 0 -1.8h-3.05z" transform="translate(321 480)"/>
 </g>
</svg>
