<svg id="svg3821" xmlns:rdf="http://www.w3.org/1999/02/22-rdf-syntax-ns#" xmlns="http://www.w3.org/2000/svg" height="42.4" width="42.9" version="1.1" xmlns:cc="http://creativecommons.org/ns#" xmlns:dc="http://purl.org/dc/elements/1.1/" viewBox="0 0 42.902601 42.370481">
 <g id="layer1" transform="translate(-335 -268)">
  <g id="g4671" stroke-linejoin="round" stroke="#fff" stroke-linecap="round" stroke-width="1.8" fill="none">
   <path id="path344" d="m348 286c1.11-0.689 2.54-0.316 3.27 0.77l3.71 5.54c0.131-0.611 0.5-1.17 1.07-1.52 1.01-0.626 2.32-0.395 3.07 0.492 0.054-0.736 0.445-1.44 1.12-1.85 1.01-0.628 2.32-0.395 3.07 0.492 0.054-0.736 0.446-1.44 1.12-1.86 1.11-0.688 2.64-0.376 3.27 0.77l4.62 8.43c3.76 6.86-3.49 15.7-10.8 12.2l-12.6-5.96c-1.18-0.558-1.69-1.98-1.14-3.16 1.1-0.681 3.48-0.989 4.66-0.428l2.39 1.13-7.59-11.8c-0.708-1.1-0.341-2.58 0.77-3.27zm-0.13 5.73h-6.98c-3.21 0-5.85-2.63-5.85-5.85v-10.3c0-3.22 2.63-5.85 5.85-5.85h29.4c3.22 0 5.85 2.63 5.85 5.85v10.3c0 3.22-2.63 5.85-5.85 5.85"/>
   <path id="path444" d="m360 274v6.4c0 0.772-0.085 1.42-0.254 1.94-1.01 3.08-5.6 3.03-6.63-0.0113-0.181-0.536-0.272-1.18-0.272-1.93v-6.4"/>
   <path id="path450" d="m367 279v5.77m-3.79-10.6c1.14 1.13 2.85 4.03 3.82 5.45l1.76-2.55c0.517-0.752 1.03-1.5 1.55-2.26 0.118-0.172 0.246-0.335 0.39-0.489"/>
   <path id="path452" d="m347 279h-4.48m2.93 5.24h-1.56c-0.49 0-0.842-0.0975-1.05-0.292-0.21-0.196-0.316-0.51-0.316-0.936v-7.45c0-0.436 0.109-0.75 0.324-0.941s0.562-0.289 1.04-0.289h1.77c0.531 0 0.995 0.0312 1.38 0.0888 0.39 0.0575 0.74 0.172 1.05 0.339 2.35 1.26 1.28 3.26-1.08 4.24 3.37 0.955 3.92 3.84 1.16 4.9-0.336 0.129-0.729 0.218-1.17 0.269-0.44 0.05-0.958 0.0775-1.54 0.0775z"/>
  </g>
 </g>
</svg>
