<?xml version="1.0" encoding="UTF-8" standalone="no"?>
<svg id="svg2" xmlns:rdf="http://www.w3.org/1999/02/22-rdf-syntax-ns#" xmlns="http://www.w3.org/2000/svg" version="1.1" xml:space="preserve" viewBox="0 0 48 48" height="48px" width="48px" enable-background="new 0 0 48 48" y="0px" x="0px" xmlns:cc="http://creativecommons.org/ns#" xmlns:dc="http://purl.org/dc/elements/1.1/"><metadata id="metadata70"><rdf:RDF><cc:Work rdf:about=""><dc:format>image/svg+xml</dc:format><dc:type rdf:resource="http://purl.org/dc/dcmitype/StillImage"/><dc:title/></cc:Work></rdf:RDF></metadata><g id="Icon"><g id="g6"><path id="rect8" d="m3.5469 6.9824v28.752h-3.5508v0.73438 0.65039 0.21094c0 0.88858 0.71483 1.6306 1.5977 1.6094h32.156v-5.166h-28.285v-24.873h37.074v10.1h1.918v-12.018zm25.91 28.76c-0.27488 0.63872-0.90661 1.0859-1.6426 1.0859h-7.6934c-0.73401 0-1.3622-0.4466-1.6387-1.084z"/><g id="g16"><g id="g18"><g id="g20"><path id="path22" d="m35.574 19.262c-0.872 0-1.578 0.707-1.578 1.576v19.623c0 0.872 0.706 1.576 1.578 1.576h10.85c0.869 0 1.576-0.704 1.576-1.576v-19.623c0-0.87-0.707-1.576-1.576-1.576h-10.85zm-0.027 1.55h10.916v18.174h-10.916v-18.174zm5.457 18.86a0.788 0.788 0 0 1 0.789 0.789 0.788 0.788 0 0 1 -0.789 0.787 0.788 0.788 0 0 1 -0.787 -0.787 0.788 0.788 0 0 1 0.787 -0.789z"/></g></g></g><rect id="rect64" width="47.996" x=".004" fill="none" height="48"/></g></g></svg>
