<?xml version="1.0" encoding="UTF-8" standalone="no"?>
<svg
   xmlns:dc="http://purl.org/dc/elements/1.1/"
   xmlns:cc="http://creativecommons.org/ns#"
   xmlns:rdf="http://www.w3.org/1999/02/22-rdf-syntax-ns#"
   xmlns:svg="http://www.w3.org/2000/svg"
   xmlns="http://www.w3.org/2000/svg"
   id="svg2"
   xml:space="preserve"
   enable-background="new 0 0 48 48"
   viewBox="0 0 48 48"
   height="48px"
   width="48px"
   y="0px"
   x="0px"
   version="1.1"><metadata
     id="metadata70"><rdf:RDF><cc:Work
         rdf:about=""><dc:format>image/svg+xml</dc:format><dc:type
           rdf:resource="http://purl.org/dc/dcmitype/StillImage" /><dc:title></dc:title></cc:Work></rdf:RDF></metadata><defs
     id="defs68" /><g
     id="Label" /><g
     id="Icon"><g
       id="g6"><rect
         style="fill:#000000;fill-opacity:1"
         id="rect8"
         height="28.767"
         width="40.91"
         fill="#263238"
         y="6.982"
         x="3.547" /><rect
         style="fill:#ffffff;fill-opacity:1"
         id="rect10"
         height="24.873"
         width="37.076"
         fill="#EDEDED"
         y="8.9"
         x="5.464" /><path
         style="fill:#000000;fill-opacity:1"
         id="path14"
         d="m 29.460268,35.734881 c -0.273026,0.643038 -0.906085,1.092862 -1.645155,1.092862 l -7.693721,0 c -0.738069,0 -1.371128,-0.449824 -1.645154,-1.092862 l -18.48073232,0 0,0.733606 0,0.651089 0,0.211326 c 0,0.88858 0.71606712,1.608098 1.59914992,1.608098 l 44.7491944,0 c 0.883083,0 1.59815,-0.719518 1.59815,-1.608098 l 0,-0.211326 0,-0.651089 0,-0.733606 -18.481732,0 z" /><g
         id="g16"><g
           id="g18"><g
             id="g20"><path
               style="fill:#000000;fill-opacity:1;stroke:#ffffff;stroke-opacity:1;stroke-width:0.2;stroke-miterlimit:4.49999952;stroke-dasharray:none"
               id="path22"
               d="M46.424,19.262h-10.85c-0.872,0-1.578,0.707-1.578,1.576V40.46c0,0.872,0.706,1.578,1.578,1.578h10.85       c0.869,0,1.576-0.706,1.576-1.578V20.838C48,19.968,47.293,19.262,46.424,19.262z M46.424,38.884h-10.85V20.838h10.85V38.884z"
               fill="#262626" /></g></g><rect
           style="fill:#ffffff;fill-opacity:1"
           id="rect24"
           height="18.175"
           width="10.916"
           fill="#EDEDED"
           y="20.812"
           x="35.547" /><circle
           style="fill:#ffffff;fill-opacity:1"
           id="circle28"
           r="0.788"
           cy="40.46"
           cx="41.004"
           fill="#E0E0E0" /><g
           id="g32" /></g><g
         id="g40"
         opacity="0.16" /><linearGradient
         y2="12.8763"
         x2="32.2521"
         y1="31.605"
         x1="13.5234"
         gradientUnits="userSpaceOnUse"
         id="SVGID_2_"><stop
           id="stop47"
           style="stop-color:#FAFAFA"
           offset="0" /><stop
           id="stop49"
           style="stop-color:#FAFAFA;stop-opacity:0.9664"
           offset="0.0336" /><stop
           id="stop51"
           style="stop-color:#FFFFFF;stop-opacity:0"
           offset="1" /></linearGradient><linearGradient
         y2="22.8951"
         x2="44.3818"
         y1="28.438"
         x1="38.8389"
         gradientUnits="userSpaceOnUse"
         id="SVGID_3_"><stop
           id="stop56"
           style="stop-color:#FAFAFA"
           offset="0" /><stop
           id="stop58"
           style="stop-color:#FAFAFA;stop-opacity:0.9664"
           offset="0.0336" /><stop
           id="stop60"
           style="stop-color:#FFFFFF;stop-opacity:0"
           offset="1" /></linearGradient><rect
         id="rect64"
         height="48"
         width="47.996"
         fill="none"
         x="0.004" /></g></g></svg>