<?xml version="1.0" encoding="UTF-8" standalone="no"?>
<svg
   xmlns:dc="http://purl.org/dc/elements/1.1/"
   xmlns:cc="http://creativecommons.org/ns#"
   xmlns:rdf="http://www.w3.org/1999/02/22-rdf-syntax-ns#"
   xmlns:svg="http://www.w3.org/2000/svg"
   xmlns="http://www.w3.org/2000/svg"
   xmlns:sodipodi="http://sodipodi.sourceforge.net/DTD/sodipodi-0.dtd"
   xmlns:inkscape="http://www.inkscape.org/namespaces/inkscape"
   width="2048.1333"
   height="2048.1333"
   viewBox="0 0 2048.1333 2048.1333"
   id="svg44535"
   version="1.1"
   inkscape:version="0.91 r13725"
   sodipodi:docname="diamond.svg">
  <metadata
     id="metadata44543">
    <rdf:RDF>
      <cc:Work
         rdf:about="">
        <dc:format>image/svg+xml</dc:format>
        <dc:type
           rdf:resource="http://purl.org/dc/dcmitype/StillImage" />
        <dc:title></dc:title>
      </cc:Work>
    </rdf:RDF>
  </metadata>
  <defs
     id="defs44541" />
  <sodipodi:namedview
     pagecolor="#ffffff"
     bordercolor="#666666"
     borderopacity="1"
     objecttolerance="10"
     gridtolerance="10"
     guidetolerance="10"
     inkscape:pageopacity="0"
     inkscape:pageshadow="2"
     inkscape:window-width="1877"
     inkscape:window-height="1179"
     id="namedview44539"
     showgrid="false"
     fit-margin-top="2.7755576e-17"
     fit-margin-left="0"
     fit-margin-right="0"
     fit-margin-bottom="0"
     inkscape:zoom="0.13169643"
     inkscape:cx="1024.0667"
     inkscape:cy="896"
     inkscape:window-x="1963"
     inkscape:window-y="21"
     inkscape:window-maximized="1"
     inkscape:current-layer="svg44535" />
  <path
     d="m 212.06667,1024.1333 623,665 -300,-665 -323,0 z m 812.00003,772 349,-772 -698.00003,0 z m -486.00003,-900.00002 204,-384 -262,0 -288,384 346,0 z m 675.00003,793.00002 623,-665 -323,0 z m -530.00003,-793.00002 682.00003,0 -204,-384 -274.00003,0 z m 827.00003,0 346,0 -288,-384 -262,0 z m 141,-486 384,512 q 14,18 13,41.5 -1,23.5 -17,40.50002 l -960,1024 q -18,20 -47,20 -29.00003,0 -47.00003,-20 l -960.000003,-1024 Q 1.0666667,987.13328 0.06666667,963.63328 q -1,-23.5 13.00000033,-41.5 l 384.000003,-512 q 18,-26 51,-26 l 1152.00003,0 q 33,0 51,26 z"
     id="path44537"
     inkscape:connector-curvature="0" />
</svg>
