<?xml version="1.0" encoding="UTF-8" standalone="no"?>
<svg id="svg44535" xmlns:rdf="http://www.w3.org/1999/02/22-rdf-syntax-ns#" xmlns="http://www.w3.org/2000/svg" height="2048.1" width="2048.1" version="1.1" xmlns:cc="http://creativecommons.org/ns#" xmlns:dc="http://purl.org/dc/elements/1.1/" viewBox="0 0 2048.1333 2048.1333">
 <path id="path44537" d="m212.07 1024.1 623 665-300-665h-323zm812 772 349-772h-698zm-486-900 204-384h-262l-288 384h346zm675 793 623-665h-323zm-530-793h682l-204-384h-274zm827 0h346l-288-384h-262zm141-486 384 512q14 18 13 41.5t-17 40.5l-960 1024q-18 20-47 20t-47-20l-960-1024q-16.033-16.97-17.033-40.47t13-41.5l384-512q18-26 51-26h1152q33 0 51 26z"/>
</svg>
