<svg id="svg8288" xmlns:rdf="http://www.w3.org/1999/02/22-rdf-syntax-ns#" xmlns="http://www.w3.org/2000/svg" height="42.7" width="43.1" version="1.1" xmlns:cc="http://creativecommons.org/ns#" xmlns:dc="http://purl.org/dc/elements/1.1/" viewBox="0 0 43.077179 42.65014">
 <g id="layer1" transform="translate(-318 -457)">
  <path id="path166" style="color-rendering:auto;text-decoration-color:#000000;color:#000000;isolation:auto;mix-blend-mode:normal;shape-rendering:auto;solid-color:#000000;block-progression:tb;text-decoration-line:none;text-decoration-style:solid;image-rendering:auto;white-space:normal;text-indent:0;text-transform:none" d="m21.4 0a0.9 0.9 0 0 0 -0.9 0.912v5.14a0.9 0.9 0 0 0 1.8 0v-5.14a0.9 0.9 0 0 0 -0.9 -0.91zm11.5 1.76a0.9 0.9 0 0 0 -0.9 0.53l-2.1 4.66a0.9 0.9 0 1 0 1.6 0.76l2.2-4.66a0.9 0.9 0 0 0 -0.8 -1.29zm-22.9 0.22a0.9 0.9 0 0 0 -0.72 1.29l2.12 4.65a0.9 0.9 0 0 0 1.7 -0.76l-2.2-4.65a0.9 0.9 0 0 0 -0.9 -0.53zm32.1 5.49a0.9 0.9 0 0 0 -0.5 0.22l-3.9 3.31a0.9 0.9 0 1 0 1.1 1.4l3.9-3.34a0.9 0.9 0 0 0 -0.6 -1.59zm-41.2 0.39a0.9 0.9 0 0 0 -0.58 1.59l3.94 3.35a0.9 0.9 0 1 0 1.15 -1.4l-3.93-3.33a0.9 0.9 0 0 0 -0.578 -0.21zm18.5 4.04a0.9 0.9 0 0 0 -0.2 0h-6.3a0.9 0.9 0 0 0 -0.2 0 0.9 0.9 0 0 0 -0.1 0h-3.85a0.9 0.9 0 0 0 -0.8 0.5l-3.66 6.8a0.9 0.9 0 0 0 -0.1 0.6 0.9 0.9 0 0 0 0.18 0.7l16.5 21.8a0.9 0.9 0 0 0 1.4 0l16.5-21.8a0.9 0.9 0 0 0 0.1 -0.7 0.9 0.9 0 0 0 0 -0.5l-3.2-6.8a0.9 0.9 0 0 0 -0.8 -0.6h-4.5-6.5a0.9 0.9 0 0 0 -0.2 0 0.9 0.9 0 0 0 -0.1 0h-4a0.9 0.9 0 0 0 -0.2 0zm-10.1 1.8h2.81l2.4 5.3h-8.06l2.85-5.3zm4.81 0h3.9l-1.9 4.4-2-4.4zm5.9 0h3.2l2.3 5.3h-7.9l2.4-5.3zm5.1 0h3.9l-1.9 4.4-2-4.4zm5.9 0h3.3l2.5 5.3h-8.2l2.4-5.3zm-24.1 7.1h8.41l4.6 17.2-13-17.2zm10.3 0h8.7l-4.3 16.5-4.4-16.5zm10.6 0h8.4l-13 17.3 4.6-17.3z" transform="translate(318 457)"/>
 </g>
</svg>
