<?xml version="1.0" encoding="UTF-8" standalone="no"?>
<svg id="svg2" xmlns:rdf="http://www.w3.org/1999/02/22-rdf-syntax-ns#" xmlns="http://www.w3.org/2000/svg" enable-background="new 0 0 48 48" xml:space="preserve" height="48px" width="48px" version="1.1" y="0px" x="0px" xmlns:cc="http://creativecommons.org/ns#" xmlns:xlink="http://www.w3.org/1999/xlink" viewBox="0 0 48 48" xmlns:dc="http://purl.org/dc/elements/1.1/"><defs><path id="SVGID_201_" d="m29.133 0h-17.962c-1.417 0-2.567 1.147-2.567 2.562v35.868c0 1.415 1.149 2.562 2.566 2.562h25.66c1.418 0 2.565-1.147 2.565-2.562v-28.182l-10.262-10.248z"/></defs><g id="Icon"><g id="g6"><path id="polygon8" d="m40.096 13.783v2.141h5.74l-5.74-2.141zm-32.192 0.014l-5.7324 2.127h5.7324v-2.127z"/><g id="g10"><g id="g12"><path id="path14" d="m11.172 0c-1.417 0-2.5684 1.1475-2.5684 2.5625v13.361h30.791v-5.6758l-10.262-10.248zm16.36 2.3l9.764 9.548h-9.775z"/><g id="g16"><g id="g18"><g id="g20"><clipPath id="SVGID_2_"><use id="use26" overflow="visible" xlink:href="#SVGID_201_"/></clipPath><g id="g28" clip-path="url(#SVGID_2_)"><g id="g39"/></g></g><g id="g55"/></g></g></g><rect id="rect70" x="3.473" height="40.991" fill="none" width="41.055"/></g><g id="g72"><g id="g74"><g id="g76"><g id="g78"><path id="path80" d="m0.24609 16.623v28.412c0 1.637 1.3287 2.965 2.9687 2.965h41.568c1.64 0 2.971-1.328 2.971-2.965v-28.412h-47.508zm17.816 5.93h11.877c1.093 0 1.979 0.885 1.979 1.976 0 1.092-0.888 1.977-1.98 1.977h-11.876c-1.092 0-1.98-0.885-1.98-1.977 0-1.091 0.888-1.976 1.98-1.976zm2.573 7.527v4.068h11.636v3.914h-11.636v4.069l-6.035-6.026 6.035-6.025z"/></g></g><g id="g90"/><g id="g96"><g id="g100"/></g></g></g><rect id="rect124" width="48" fill="none" height="48"/></g></g></svg>
