<?xml version="1.0" encoding="UTF-8" standalone="no"?>
<svg
   xmlns:dc="http://purl.org/dc/elements/1.1/"
   xmlns:cc="http://creativecommons.org/ns#"
   xmlns:rdf="http://www.w3.org/1999/02/22-rdf-syntax-ns#"
   xmlns:svg="http://www.w3.org/2000/svg"
   xmlns="http://www.w3.org/2000/svg"
   xmlns:sodipodi="http://sodipodi.sourceforge.net/DTD/sodipodi-0.dtd"
   version="1.1"
   x="0px"
   y="0px"
   viewBox="0 0 100 100"
   enable-background="new 0 0 100 100"
   xml:space="preserve"
   id="svg4977"
   sodipodi:docname="jigsaw-pieces.svg"><defs
     id="defs5505" /><g
     id="g5493"><g
       id="g5495"><path
         d="M83.33,25.78h-6.825c-0.009,0-0.016,0.002-0.022,0.002H52.279v8.13c0.074-0.001,0.147-0.002,0.221-0.002    c6.688,0,12.129,5.441,12.129,12.129c0,6.688-5.44,12.129-12.129,12.129c-0.073,0-0.146,0-0.221-0.002v8.131V66.3h24.214    c0.003,0,0.008,0,0.012,0h6.825c3.616,0,6.575-2.957,6.575-6.574V32.356C89.905,28.739,86.946,25.78,83.33,25.78z"
         id="path5497"
         style="fill-opacity:1" /><path
         d="M62.28,46.039c0-5.401-4.379-9.78-9.78-9.78c-0.891,0-1.75,0.129-2.569,0.353V25.78H23.375c-0.004,0-0.007,0-0.011,0    h-6.826c-3.616,0-6.575,2.958-6.575,6.575v27.368c0,3.618,2.958,6.577,6.575,6.577h6.826c0.007,0,0.015-0.003,0.022-0.003h26.544    V55.468c0.82,0.223,1.679,0.352,2.569,0.352C57.901,55.819,62.28,51.44,62.28,46.039z"
         id="path5499"
         style="fill-opacity:1" /></g></g></svg>