<svg xmlns="http://www.w3.org/2000/svg" xmlns:xlink="http://www.w3.org/1999/xlink" version="1.1" x="0px" y="0px" viewBox="0 0 20 25" enable-background="new 0 0 20 20" xml:space="preserve"><path d="M-95.292,21.426c-1.231,1.287-2.958,2.098-4.878,2.098c-3.734,0-6.762-3.027-6.762-6.761s3.027-6.762,6.762-6.762  c1.92,0,3.646,0.811,4.878,2.099h2.233V-6.632h-18.653V-8.36c1.29-1.23,2.099-2.957,2.099-4.878c0-3.734-3.027-6.762-6.762-6.762  s-6.762,3.027-6.762,6.762c0,1.921,0.813,3.647,2.099,4.878v1.729h-18.653v18.653h-1.61c-1.231-1.288-2.958-2.099-4.878-2.099  c-3.734,0-6.762,3.028-6.762,6.761c0,3.734,3.027,6.762,6.762,6.762c1.92,0,3.647-0.809,4.878-2.099h1.61V40h18.792v-2.039  c-1.29-1.23-2.098-2.957-2.098-4.877c0-3.734,3.027-6.762,6.761-6.762s6.762,3.027,6.762,6.762c0,1.92-0.813,3.646-2.098,4.877V40  h18.515V21.426H-95.292z"/><path d="M-45.528,16.617c-0.821,0.858-1.972,1.398-3.252,1.398c-2.49,0-4.508-2.018-4.508-4.507c0-2.49,2.019-4.508,4.508-4.508  c1.28,0,2.431,0.54,3.252,1.399h1.489V-2.088h-12.436V-3.24c0.86-0.82,1.399-1.971,1.399-3.252c0-2.49-2.019-4.508-4.508-4.508  s-4.508,2.018-4.508,4.508c0,1.281,0.542,2.432,1.399,3.252v1.152h-12.436v12.436h-1.074c-0.82-0.858-1.972-1.399-3.252-1.399  c-2.49,0-4.508,2.019-4.508,4.507c0,2.49,2.018,4.508,4.508,4.508c1.28,0,2.432-0.539,3.252-1.399h1.074V29H-62.6v-1.359  c-0.859-0.82-1.398-1.971-1.398-3.251c0-2.489,2.018-4.508,4.507-4.508c2.49,0,4.508,2.019,4.508,4.508  c0,1.28-0.542,2.431-1.398,3.251V29h12.343V16.617H-45.528z"/><path d="M-7.146,16.713c-0.616,0.644-1.479,1.049-2.439,1.049c-1.867,0-3.381-1.514-3.381-3.38c0-1.868,1.514-3.381,3.381-3.381  c0.96,0,1.823,0.405,2.439,1.049h1.117V2.684h-9.327V1.82c0.645-0.615,1.049-1.478,1.049-2.439C-14.307-2.486-15.82-4-17.688-4  s-3.381,1.514-3.381,3.381c0,0.961,0.406,1.824,1.049,2.439v0.864h-9.327v9.327h-0.805c-0.615-0.644-1.479-1.049-2.439-1.049  c-1.867,0-3.381,1.514-3.381,3.38c0,1.867,1.514,3.381,3.381,3.381c0.96,0,1.824-0.404,2.439-1.049h0.805V26h9.396v-1.02  C-20.596,24.365-21,23.501-21,22.542c0-1.867,1.514-3.381,3.381-3.381s3.381,1.514,3.381,3.381c0,0.96-0.406,1.823-1.049,2.438V26  h9.257v-9.287C-6.03,16.713-7.146,16.713-7.146,16.713z"/><path d="M19.236,13.809c-0.41,0.429-0.986,0.699-1.626,0.699c-1.245,0-2.254-1.009-2.254-2.253c0-1.245,1.009-2.254,2.254-2.254  c0.64,0,1.216,0.27,1.626,0.699h0.745V4.456h-6.218V3.88c0.43-0.41,0.7-0.985,0.7-1.626C14.462,1.009,13.453,0,12.208,0  S9.954,1.009,9.954,2.254c0,0.641,0.271,1.216,0.699,1.626v0.576H4.436v6.218H3.899c-0.41-0.429-0.986-0.7-1.626-0.7  c-1.245,0-2.254,1.01-2.254,2.254c0,1.245,1.009,2.254,2.254,2.254c0.64,0,1.216-0.27,1.626-0.7h0.537V20H10.7v-0.68  c-0.43-0.41-0.7-0.986-0.7-1.625c0-1.245,1.009-2.254,2.254-2.254s2.254,1.009,2.254,2.254c0,0.64-0.271,1.215-0.699,1.625V20h6.171  v-6.191H19.236z"/><text x="0" y="35" fill="#000000" font-size="5px" font-weight="bold" font-family="'Helvetica Neue', Helvetica, Arial-Unicode, Arial, Sans-serif">Created by Alex Auda Samora</text><text x="0" y="40" fill="#000000" font-size="5px" font-weight="bold" font-family="'Helvetica Neue', Helvetica, Arial-Unicode, Arial, Sans-serif">from the Noun Project</text></svg>