<svg id="svg10299" xmlns:rdf="http://www.w3.org/1999/02/22-rdf-syntax-ns#" xmlns="http://www.w3.org/2000/svg" height="42.5" width="42.5" version="1.1" xmlns:cc="http://creativecommons.org/ns#" xmlns:dc="http://purl.org/dc/elements/1.1/" viewBox="0 0 42.548092 42.534962">
 <g id="layer1" transform="translate(-907 -865)">
  <path id="path6726" style="color-rendering:auto;text-decoration-color:#000000;color:#000000;isolation:auto;mix-blend-mode:normal;shape-rendering:auto;solid-color:#000000;block-progression:tb;text-decoration-line:none;text-decoration-style:solid;image-rendering:auto;white-space:normal;text-indent:0;text-transform:none" d="m17.6 0c-9.69 0-17.6 7.91-17.6 17.6 0 9.8 7.91 17.7 17.6 17.7 3.6 0 6.9-1.1 9.6-2.9l9.9 9.9a0.9 0.9 0 0 0 1.2 0l4-4a0.9 0.9 0 0 0 0 -1.2l-9.9-9.9c1.8-2.7 2.9-6 2.9-9.6 0-9.69-7.9-17.6-17.7-17.6zm0 1.8c8.8 0 15.9 7.08 15.9 15.8 0 8.8-7.1 15.9-15.9 15.9-8.72 0-15.8-7.1-15.8-15.9 0-8.72 7.08-15.8 15.8-15.8zm-0.1 2.94a0.9 0.9 0 0 0 0 1.8c6.2 0 11.2 5.06 11.2 11.3a0.9 0.9 0 1 0 1.8 0c0-7.2-5.8-13.1-13-13.1zm14.1 24.2l8.8 8.8-2.7 2.7-8.8-8.9 2.7-2.6z" transform="translate(907 865)"/>
 </g>
</svg>
