<svg id="svg8980" xmlns:rdf="http://www.w3.org/1999/02/22-rdf-syntax-ns#" xmlns="http://www.w3.org/2000/svg" height="42.9" width="42.9" version="1.1" xmlns:cc="http://creativecommons.org/ns#" xmlns:dc="http://purl.org/dc/elements/1.1/" viewBox="0 0 42.902501 42.902497">
 <g id="layer1" transform="translate(-370 -468)">
  <path id="path6614" style="color-rendering:auto;text-decoration-color:#000000;color:#000000;isolation:auto;mix-blend-mode:normal;shape-rendering:auto;solid-color:#000000;block-progression:tb;text-decoration-line:none;text-decoration-style:solid;image-rendering:auto;white-space:normal;text-indent:0;text-transform:none" d="m5.56 2.64c-0.39 0.01-0.67 0.19-0.83 0.55l-4.58 10.7c-0.032 0-0.0518 0.1-0.0641 0.2-0.0576 0.3-0.0859 0.6-0.0859 0.9 0 3.01 2.46 5.47 5.48 5.47 1.64 0 2.99-0.847 3.99-2 1.01 1.15 2.36 2 4 2s2.99-0.847 3.99-2c1 1.15 2.35 2 3.99 2s2.99-0.847 4-2c1 1.15 2.35 2 3.99 2s2.99-0.847 3.99-2c1.01 1.15 2.36 2 4 2 3.01 0 5.47-2.46 5.47-5.47 0-0.328-0.0266-0.651-0.082-0.965-0.0126-0.0679-0.0329-0.134-0.0606-0.197l-4.6-10.6c-0.2-0.34-0.5-0.56-0.9-0.56zm0.594 1.8h4.32l-1.96 12.3c-0.0192 0.106-0.0192 0.214 0 0.32-0.659 0.976-1.76 1.62-3.04 1.62-2.04 0-3.68-1.64-3.68-3.68 0-0.199 0.0211-0.389 0.0508-0.574zm6.14 0h4.83c-0.219 4.14-0.437 8.28-0.656 12.4-0.0049 0.0852 0.0023 0.171 0.0215 0.254-0.661 0.961-1.76 1.6-3.02 1.6-1.35 0-2.51-0.722-3.15-1.79zm6.63 0h4.84c0.221 4.17 0.441 8.35 0.662 12.5-0.559 1.04-1.98 1.74-2.97 1.75-1.37 0-2.55-0.747-3.18-1.85 0.219-4.14 0.435-8.28 0.654-12.4zm6.64 0h4.83l2 12.6c0.006 0.0436 0.0151 0.0867 0.0273 0.129-0.666 0.926-1.74 1.53-2.98 1.53-1.39 0-2.58-0.762-3.21-1.88-0.1-4.3-0.3-8.67-0.5-12.4zm6.65 0h4.54l4.3 10c0.0289 0.186 0.0508 0.376 0.0508 0.574 0 2.04-1.63 3.68-3.67 3.68-1.39 0-2.58-0.762-3.21-1.88-0.0167-0.029-0.0349-0.057-0.0547-0.084zm-26.9 18.2c-0.497 0.0073-0.894 0.417-0.887 0.914v14.9h-3.41c-1.2 0-1.2 1.8 0 1.8h41c1.2 0 1.2-1.8 0-1.8h-3.41v-14.9c0.008-0.508-0.406-0.922-0.914-0.914-0.497 0.0073-0.894 0.417-0.887 0.914v14.9h-20.5v-14.9c0.008-0.508-0.406-0.922-0.914-0.914-0.497 0.0084-0.893 0.417-0.885 0.914v14.9h-8.31v-14.9c0.00792-0.507-0.405-0.921-0.912-0.914zm27.6 0.9c-0.233 0.0086-0.454 0.107-0.615 0.275l-9.24 9.37c-0.84 0.854 0.437 2.12 1.28 1.27l9.24-9.37c0.6-0.6 0.2-1.6-0.7-1.6zm-20.9 4.2c-0.497 0.0084-0.893 0.417-0.885 0.914v2.98c-0.0483 1.25 1.85 1.25 1.8 0v-2.98c0-0.4-0.4-0.9-0.9-0.9zm21.2 1.36c-0.234 0.0087-0.455 0.108-0.617 0.277l-6.25 6.34c-0.887 0.854 0.439 2.16 1.28 1.26l6.25-6.34c0.585-0.576 0.157-1.57-0.664-1.54z" transform="translate(370 468)"/>
 </g>
</svg>
