<svg class="icon" xmlns="http://www.w3.org/2000/svg" viewBox="0 0 36 40"><g fill="#000"><path d="M22.47 6h-6.53v2H22v30H2V8h6V6H1.53C.68 6 0 6.68 0 7.53v30.94C0 39.32.68 40 1.53 40h20.94c.85 0 1.53-.68 1.53-1.53V7.53C24 6.68 23.32 6 22.47 6z"></path><path d="M13.45 0h-2.96C9.12 0 8 1.12 8 2.49v8.02C8 11.88 9.12 13 10.49 13h2.96c1.37 0 2.49-1.12 2.49-2.49V2.49c0-1.37-1.12-2.49-2.49-2.49zM14 10.51c-.06.27-.28.49-.55.49h-2.96c-.27 0-.49-.22-.49-.49V2.49c0-.27.22-.49.49-.49h2.96c.27 0 .49.22.55.49v8.02zM20 19c0 .55-.45 1-1 1h-9c-.55 0-1-.45-1-1s.45-1 1-1h9c.55 0 1 .45 1 1zm0 6c0 .55-.45 1-1 1h-9c-.55 0-1-.45-1-1s.45-1 1-1h9c.55 0 1 .45 1 1zm0 6c0 .55-.45 1-1 1h-9c-.55 0-1-.45-1-1s.45-1 1-1h9c.55 0 1 .45 1 1zM8 31c0 1.1-.9 2-2 2s-2-.9-2-2 .9-2 2-2 2 .9 2 2zm0-6c0 1.1-.9 2-2 2s-2-.9-2-2 .9-2 2-2 2 .9 2 2zm0-6c0 1.1-.9 2-2 2s-2-.9-2-2 .9-2 2-2 2 .9 2 2zm24.68 12.39c-.26.37-.69.61-1.18.61H30c.74 0 1.38.72 1.48 1.62-.54.44-1.03.98-1.48 1.6-.45-.62-.94-1.16-1.48-1.6.1-.9.74-1.62 1.48-1.62h-1.5c-.49 0-.92-.24-1.18-.61-.51.67-.82 1.55-.82 2.5 0 .19.01.38.04.55.01.09.02.18.04.27 1.18.67 2 1.85 2.54 2.93.63 1.25.88 2.36.88 2.36s.25-1.11.88-2.36c.54-1.08 1.36-2.26 2.54-2.93.02-.09.03-.18.04-.27.03-.17.04-.36.04-.55 0-.95-.31-1.83-.82-2.5zM31.5 2h-3c-.83 0-1.5.7-1.5 1.55V6h2V4h2v2h2V3.55C33 2.7 32.33 2 31.5 2zM33 8v22.45c0 .35-.11.68-.32.94-.26.37-.69.61-1.18.61h-3c-.49 0-.92-.24-1.18-.61-.21-.26-.32-.59-.32-.94V8h2v22h2V8h2z"></path><path d="M36 8.49V18c0 .55-.45 1-1 1s-1-.45-1-1V8.49c0-.27-.22-.49-.49-.49H27c-.55 0-1-.45-1-1s.45-1 1-1h6.51C34.88 6 36 7.12 36 8.49z"></path></g></svg>