<svg id="svg3938" xmlns:rdf="http://www.w3.org/1999/02/22-rdf-syntax-ns#" xmlns="http://www.w3.org/2000/svg" height="51.5" viewBox="0 0 51.490502 51.479899" width="51.5" version="1.1" xmlns:cc="http://creativecommons.org/ns#" xmlns:dc="http://purl.org/dc/elements/1.1/">
 <g id="layer1" transform="translate(-263 -315)">
  <path id="path186" style="color-rendering:auto;text-decoration-color:#000000;color:#000000;isolation:auto;mix-blend-mode:normal;shape-rendering:auto;solid-color:#000000;block-progression:tb;text-decoration-line:none;image-rendering:auto;white-space:normal;text-indent:0;text-transform:none;text-decoration-style:solid" transform="translate(267,319)" d="m6.2 0c-3.41 0-6.2 2.8-6.2 6.2v30.5c0 3.41 2.79 6.2 6.2 6.2h30.5c3.41 0 6.21-2.8 6.21-6.2v-30.5c0-3.4-2.8-6.2-6.2-6.2h-30.5zm0 1.8h30.5c2.43 0 4.4 1.98 4.4 4.4v30.5c0 2.43-1.98 4.4-4.4 4.4h-30.5c-2.43 0-4.4-2-4.4-4.4v-30.5c0-2.43 1.98-4.4 4.4-4.4zm1.46 2.74c-1.71 0-3.12 1.41-3.12 3.12v27.6c0 1.71 1.41 3.12 3.12 3.12h27.6c1.71 0 3.12-1.41 3.12-3.12v-2.43h0.555c0.483 0 0.801-0.318 0.947-0.564 0.146-0.247 0.199-0.492 0.199-0.752v-5.17c0-0.26-0.0528-0.505-0.199-0.752s-0.464-0.564-0.947-0.564h-0.555v-7.11h0.555c0.483 0 0.801-0.316 0.947-0.562 0.146-0.247 0.199-0.494 0.199-0.754v-5.17c0-0.26-0.0529-0.505-0.199-0.752s-0.464-0.564-0.947-0.564h-0.555v-2.43c0-1.71-1.41-3.12-3.12-3.12h-27.6zm0 1.8h27.6c0.729 0 1.32 0.589 1.32 1.32v2.43h-0.703c-0.483 0-0.804 0.319-0.949 0.566-0.146 0.247-0.195 0.491-0.195 0.75v5.17c0 0.259 0.0498 0.503 0.195 0.75 0.146 0.247 0.466 0.566 0.949 0.566h0.703v7.11h-0.703c-0.483 0-0.804 0.319-0.949 0.566-0.146 0.247-0.195 0.491-0.195 0.75v5.17c0 0.259 0.0498 0.503 0.195 0.75 0.146 0.247 0.466 0.566 0.949 0.566h0.703v2.43c0 0.729-0.589 1.32-1.32 1.32h-27.6c-0.729 0-1.32-0.589-1.32-1.32v-27.6c0-0.73 0.587-1.32 1.32-1.32zm13.7 5.06a0.9 0.9 0 0 0 -0.188 0.0215c-2.62 0.0522-5 1.11-6.77 2.8a0.9 0.9 0 0 0 -0.301 0.303c-1.74 1.81-2.81 4.26-2.81 6.96 0 2.68 1.06 5.11 2.77 6.92a0.9 0.9 0 0 0 0.391 0.389c1.74 1.65 4.06 2.68 6.62 2.75a0.9 0.9 0 0 0 0.582 0c2.57-0.0734 4.89-1.11 6.63-2.76a0.9 0.9 0 0 0 0.381 -0.381c1.7-1.79 2.75-4.19 2.77-6.84a0.9 0.9 0 0 0 -0.002 -0.201c0-2.7-1.1-5.1-2.8-6.9a0.9 0.9 0 0 0 -0.3 -0.3c-1.8-1.7-4.1-2.8-6.8-2.8a0.9 0.9 0 0 0 -0.2 0zm15.1 0.531h1.75v4.2h-1.75v-4.2zm-16 1.33v1.25a0.9 0.9 0 1 0 1.8 0v-1.25c1.61 0.173 3.09 0.808 4.28 1.77l-0.885 0.885a0.9 0.9 0 1 0 1.27 1.27l0.885-0.885c0.962 1.2 1.6 2.67 1.77 4.28h-1.25a0.9 0.9 0 1 0 0 1.8h1.25c-0.174 1.61-0.81 3.09-1.77 4.28l-0.8-0.9a0.9 0.9 0 0 0 -0.645 -0.273 0.9 0.9 0 0 0 -0.629 1.54l0.885 0.885c-1.2 0.962-2.67 1.6-4.28 1.77v-1.25a0.9 0.9 0 0 0 -0.912 -0.912 0.9 0.9 0 0 0 -0.887 0.912v1.25c-1.6-0.3-3-0.9-4.2-1.9l0.9-1a0.9 0.9 0 0 0 -0.7 -1.5 0.9 0.9 0 0 0 -0.6 0.3l-0.883 0.883c-1-1.3-1.6-2.7-1.8-4.3h1.25a0.9 0.9 0 0 0 0 -1.8h-1.25c0.174-1.61 0.812-3.08 1.77-4.28l0.883 0.883a0.9 0.9 0 1 0 1.27 -1.27l-0.883-0.883c1.2-0.962 2.67-1.6 4.28-1.77zm0.9 2.47c-3.17 0-5.76 2.59-5.76 5.76s2.59 5.76 5.76 5.76 5.76-2.59 5.76-5.76-2.59-5.76-5.76-5.76zm0 1.8c2.2 0 3.96 1.76 3.96 3.96s-1.76 3.96-3.96 3.96-3.96-1.76-3.96-3.96 1.76-3.96 3.96-3.96zm15.1 9.32h1.75v4.2h-1.75v-4.2z"/>
 </g>
</svg>
