<svg id="svg2" xmlns:rdf="http://www.w3.org/1999/02/22-rdf-syntax-ns#" xmlns="http://www.w3.org/2000/svg" height="160mm" width="160mm" version="1.1" xmlns:cc="http://creativecommons.org/ns#" xmlns:dc="http://purl.org/dc/elements/1.1/" viewBox="0 0 566.92913 566.92913">
 <g id="layer1" transform="translate(-129 -189)">
  <g id="g4915" transform="matrix(.125 0 0 -.125 120 773)">
   <path id="path4917" d="m2.81e3 4.28e3c258-31 559-105 865-211 75.5-24.6 155-53.3 225-82 132-49 124-43.4 112-79.4-50-140-100-270-140-370-62-170-116-314-121-319-6-6-55 11-122 42-356 161-753 263-1.11e3 286-234 18.4-473 11.3-705-19-293-41-638-140-902-257-63-28-67-32-62-57 19.3-77.5 84.5-143 136-178 109-69 230-90 573-98 451-4.57 962-14.2 1.36e3 -19 514-7 531-8 700-26 170-19 318-78 403-162 88-87 116-181 107-366-20-340-120-720-280-1.07e3 -120-280-230-448-320-515-210-156-590-263-1.02e3 -285-510-27-1.04e3 62-1.56e3 265-75 29-161 62-190 76-36 18-73 33-108 54l274 724c103-52.7 216-103 326-144 201-68.1 398-129 613-169 443-80 886-53 1.42e3 85 233 61 545 176 565 209 14 22-7 64-61 120-95 100-252 156-469 166-55 3-557 6-1.12e3 8-1.09e3 4-1.14e3 6-1.29e3 56-124 47-170 81.9-244 164-73.2 78.2-91.8 165-104 257-4 35-4 100 0 143 12 126 72 421 114 560 0 0 20.8 69 39 121 86 262 243 592 362 760 18 25 54 60 80 78 47 44.9 87 57.1 132 82 39 20 249 78 396 109 155 33 300 55 428 66 151 13 541 4 697-15z" fill="#fff"/>
  </g>
  <path id="path4917-9" d="m471 239c32.2 3.88 69.9 13.1 108 26.4 9.44 3.07 19.3 6.66 28.1 10.2 16.5 6.12 15.5 5.42 14 9.92-6.24 16.6-12.7 32.4-17.7 46-7.75 21.2-14.5 39.2-15.1 39.9-0.75 0.75-6.88-1.38-15.2-5.25-44.5-20.1-94.1-32.9-139-35.8-29.3-2.3-59.1-1.42-88.1 2.38-36.6 5.12-79.8 17.5-113 32.1-7.88 3.5-8.38 4-7.75 7.12 2.41 9.68 10.6 17.9 17 22.2 13.6 8.62 28.8 11.2 71.6 12.2 56.4 0.571 120 1.77 170 2.38 64.2 0.875 66.4 1 87.5 3.25 21.2 2.38 39.8 9.75 50.4 20.2 11 10.9 14.5 22.6 13.4 45.8-2.12 41-14.4 89.1-34.1 133-15.5 34.5-29 56-40.4 64.4-26.5 19.5-74.1 32.9-128 35.6-63.6 3.38-130-7.75-195-33.1-9.25-3.62-20-7.77-23.6-9.52-4.54-2.18-9.21-4.12-13.5-6.73l34.2-90.5c12.8 6.58 26.9 12.9 40.8 18 25.2 8.51 49.7 16.1 76.6 21.1 55.4 10 111 6.62 177-10.6 29.1-7.62 68.1-22 70.6-26.1 1.75-2.75-0.875-8-7.62-15-11.9-12.5-31.5-19.5-58.6-20.8-6.88-0.375-69.6-0.75-139-1-136-0.5-143-0.75-161-7-15.4-5.88-21.3-10.2-30.5-20.5-9.14-9.78-11.5-20.6-13-32.1-0.5-4.38-0.5-12.5 0-17.9 1.5-15.8 9-52.6 14.2-70 0 0 2.6-8.63 4.88-15.1 10.8-32.8 30.4-74 45.2-95 2.25-3.12 6.75-7.5 10-9.75 5.87-5.61 10.9-7.13 16.5-10.2 4.88-2.5 31.1-9.75 49.5-13.6 19.4-4.12 37.5-6.88 53.5-8.25 18.9-1.62 67.6-0.5 87.1 1.88z" fill="#fff"/>
 </g>
</svg>
