<?xml version="1.0" encoding="UTF-8" standalone="no"?>
<svg
   xmlns:dc="http://purl.org/dc/elements/1.1/"
   xmlns:cc="http://creativecommons.org/ns#"
   xmlns:rdf="http://www.w3.org/1999/02/22-rdf-syntax-ns#"
   xmlns:svg="http://www.w3.org/2000/svg"
   xmlns="http://www.w3.org/2000/svg"
   width="8.28477"
   height="8.28477"
   viewBox="0 0 29.355485 29.355484"
   id="svg5546"
   version="1.1">
  <defs
     id="defs5548" />
  <metadata
     id="metadata5551">
    <rdf:RDF>
      <cc:Work
         rdf:about="">
        <dc:format>image/svg+xml</dc:format>
        <dc:type
           rdf:resource="http://purl.org/dc/dcmitype/StillImage" />
        <dc:title></dc:title>
      </cc:Work>
    </rdf:RDF>
  </metadata>
  <g
     id="layer1"
     transform="translate(-184.85526,-397.68305)">
    <g
       style="font-style:normal;font-weight:normal;font-size:40px;line-height:125%;font-family:sans-serif;letter-spacing:0px;word-spacing:0px;fill:#000000;fill-opacity:1;stroke:none;stroke-width:1px;stroke-linecap:butt;stroke-linejoin:miter;stroke-opacity:1"
       id="text6094">
      <path
         d="m 208.8058,418.89401 q 0,3.8086 -2.7539,5.97656 -2.75391,2.16797 -7.59766,2.16797 -4.84375,0 -7.92969,-1.5039 l 0,-4.41407 q 1.95313,0.91797 4.14063,1.44532 2.20703,0.52734 4.10156,0.52734 2.77344,0 4.08203,-1.05469 1.32813,-1.05468 1.32813,-2.83203 0,-1.60156 -1.21094,-2.71484 -1.21094,-1.11328 -5,-2.63672 -3.90625,-1.58203 -5.50781,-3.61328 -1.60157,-2.03125 -1.60157,-4.88281 0,-3.57422 2.53907,-5.625 2.53906,-2.05079 6.8164,-2.05079 4.10156,0 8.16406,1.79688 l -1.48437,3.80859 q -3.80859,-1.60156 -6.79688,-1.60156 -2.26562,0 -3.4375,0.99609 -1.17187,0.97657 -1.17187,2.59766 0,1.11328 0.46875,1.91406 0.46875,0.78125 1.54297,1.48438 1.07422,0.70312 3.86719,1.85547 3.14453,1.30859 4.60937,2.4414 1.46484,1.13282 2.14844,2.5586 0.68359,1.42578 0.68359,3.35937 z"
         style="font-style:normal;font-variant:normal;font-weight:600;font-stretch:normal;font-family:'Open Sans';-inkscape-font-specification:'Open Sans Semi-Bold'"
         id="path6099" />
    </g>
  </g>
</svg>
