<svg id="svg7598" xmlns:rdf="http://www.w3.org/1999/02/22-rdf-syntax-ns#" xmlns="http://www.w3.org/2000/svg" height="42.8" width="42.9" version="1.1" xmlns:cc="http://creativecommons.org/ns#" xmlns:dc="http://purl.org/dc/elements/1.1/" viewBox="0 0 42.902342 42.837888">
 <g id="layer1" transform="translate(-401 -525)">
  <path id="path6738" style="color-rendering:auto;text-decoration-color:#000000;color:#000000;isolation:auto;mix-blend-mode:normal;shape-rendering:auto;solid-color:#000000;block-progression:tb;text-decoration-line:none;text-decoration-style:solid;image-rendering:auto;white-space:normal;text-indent:0;text-transform:none" d="m24.8 4.28c-3.79 0-7.49 1.89-9.95 4.35-1.95 1.95-3.52 4.67-4.1 7.61-3.7 0.374-6.55 3.68-6.55 7.63 0 4.01 2.93 7.36 6.71 7.65a0.9 0.9 0 0 0 0.643 -0.199 0.9 0.9 0 0 0 0.742 -0.885v-11.9c0-0.167 0.0221-0.336 0.0312-0.504 3.66-1.02 6.73-3.39 8.73-6.52 2.7 2.42 6.23 3.95 10.1 3.95 2.43 0 4.72-0.571 6.76-1.58 0.671 1.49 1.08 3.1 1.08 4.66v11.9c0 3.18-1.72 6.94-3.82 9.04-1.46 1.46-3.67 2.35-5.97 2.8-0.467-1.55-1.9-2.7-3.6-2.7-2.07 0-3.77 1.7-3.77 3.77s1.7 3.77 3.77 3.77c1.82 0 3.35-1.31 3.7-3.03 2.61-0.472 5.25-1.45 7.14-3.34 2.27-2.27 3.99-5.8 4.29-9.28 3.59-0.484 6.32-3.73 6.32-7.6 0-3.94-2.83-7.23-6.51-7.63-0.5-3-2.1-5.7-4.1-7.67-2.4-2.46-6.1-4.35-9.9-4.35h-1.74zm0 1.8h1.74c3.18 0 6.54 1.69 8.68 3.82 0.694 0.695 1.33 1.53 1.89 2.43-1.78 0.875-3.79 1.37-5.91 1.37-3.8 0-7.22-1.57-9.66-4.1a0.9 0.9 0 0 0 -0.6 -0.27 0.9 0.9 0 0 0 -0.8 0.47c-1.6 2.9-4.2 5.2-7.4 6.3 0.6-2.3 1.9-4.6 3.5-6.2 2.1-2.13 5.5-3.82 8.6-3.82zm16.1 12c2.53 0.483 4.49 2.86 4.49 5.78 0 2.91-1.95 5.28-4.46 5.77v-11.1c0-0.166-0.0221-0.33-0.0293-0.496zm-30.3 0.002a0.9 0.9 0 0 0 0.041 0.0391c-0.006 0.152-0.0273 0.303-0.0273 0.455v11.1c-2.53-0.479-4.5-2.85-4.5-5.78 0-2.92 1.96-5.29 4.49-5.78zm10.2 1.99c-0.992 0-1.82 0.825-1.82 1.82 0 0.994 0.824 1.82 1.82 1.82 0.992 0 1.82-0.823 1.82-1.82 0-0.994-0.828-1.82-1.82-1.82zm9.9 0c-0.992 0-1.82 0.825-1.82 1.82 0 0.994 0.824 1.82 1.82 1.82 0.992 0 1.82-0.824 1.82-1.82 0-0.992-0.826-1.82-1.82-1.82zm-9.9 1.8c0.0228 0 0.0195-0.004 0.0195 0.0176 0 0.0189 0.003 0.0156-0.0195 0.0156-0.0203 0-0.0176 0.003-0.0176-0.0156 0-0.0213-0.003-0.0176 0.0176-0.0176zm9.9 0c0.0228 0 0.0176-0.005 0.0176 0.0176 0 0.0203 0.005 0.0156-0.0176 0.0156-0.0203 0-0.0156 0.003-0.0156-0.0156 0-0.0213-0.005-0.0176 0.0156-0.0176zm0.473 6.88a0.9 0.9 0 0 0 -0.836 0.67c-0.426 1.51-2.27 2.84-4.61 2.84s-4.18-1.32-4.61-2.84a0.9 0.9 0 0 0 -0.861 -0.668 0.9 0.9 0 0 0 -0.873 1.16c0.699 2.49 3.33 4.15 6.34 4.15s5.64-1.66 6.34-4.15a0.9 0.9 0 0 0 -0.896 -1.16zm-5.44 12.6c1.1 0 1.97 0.874 1.97 1.97s-0.871 1.97-1.97 1.97-1.97-0.872-1.97-1.97 0.871-1.97 1.97-1.97z" transform="translate(397 521)"/>
 </g>
</svg>
