<?xml version="1.0" encoding="UTF-8" standalone="no"?>
<svg id="svg4258" xmlns:rdf="http://www.w3.org/1999/02/22-rdf-syntax-ns#" xmlns="http://www.w3.org/2000/svg" viewBox="0 0 65 65" height="65" width="65" version="1.0" preserveAspectRatio="xMidYMid meet" xmlns:cc="http://creativecommons.org/ns#" xmlns:dc="http://purl.org/dc/elements/1.1/">
 <g id="g4262" transform="translate(0 65) scale(0.1 -0.1)">
  <path id="path4264" d="m87 644c-4-4 6-22 23-39 26-27 29-35 21-57-15-40-50-43-87-7-35 34-49 27-39-21 9-42 58-80 103-80 35 0 50-13 254-217l218-218 32 33 33 32-218 218c-205 205-217 219-217 254 0 27-8 46-27 68-28 30-81 49-96 34z"/>
  <path id="path4266" d="m120 185l-104-105 34-35 34-35 108 107 108 107-32 33c-18 18-34 33-38 33-3 0-52-47-110-105z"/>
 </g>
 <path id="path4204" d="m37.422 24.886 2.9277 2.8031 10.839-11.524 4.3604-1.3081 7.5996-9.0946-4.049-3.9867-9.0946 7.5996-1.1213 4.1735z" fill-rule="evenodd"/>
</svg>
