<?xml version="1.0" encoding="UTF-8" standalone="no"?>
<svg
   xmlns:dc="http://purl.org/dc/elements/1.1/"
   xmlns:cc="http://creativecommons.org/ns#"
   xmlns:rdf="http://www.w3.org/1999/02/22-rdf-syntax-ns#"
   xmlns:svg="http://www.w3.org/2000/svg"
   xmlns="http://www.w3.org/2000/svg"
   id="svg4258"
   preserveAspectRatio="xMidYMid meet"
   viewBox="0 0 65 65"
   height="65"
   width="65"
   version="1.0">
  <g id="g4262" stroke="none"transform="translate(0.000000,65.000000) scale(0.100000,-0.100000)">
    <path id="path4264" d="M87 644 c-4 -4 6 -22 23 -39 26 -27 29 -35 21 -57 -15 -40 -50 -43 -87 -7 -35 34 -49 27 -39 -21 9 -42 58 -80 103 -80 35 0 50 -13 254 -217 l218 -218 32 33 33 32 -218 218 c-205 205 -217 219 -217 254 0 27 -8 46 -27 68 -28 30 -81 49 -96 34z" />
    <path id="path4266" d="M120 185 l-104 -105 34 -35 34 -35 108 107 108 107 -32 33 c-18 18 -34 33 -38 33 -3 0 -52 -47 -110 -105z" />
  </g>
  <path id="path4204" d="m 37.422192,24.885972 2.927713,2.803131 10.838763,-11.523974 4.360422,-1.308126 7.599593,-9.0945963 -4.048965,-3.9866713 -9.094593,7.599593 -1.121251,4.1735456 z" style="fill-opacity:1;fill-rule:evenodd;stroke:none;stroke-width:1px;stroke-linecap:butt;stroke-linejoin:miter;stroke-opacity:1" />
</svg>
