<?xml version="1.0" encoding="UTF-8" standalone="no"?>
<svg
   xmlns:dc="http://purl.org/dc/elements/1.1/"
   xmlns:cc="http://creativecommons.org/ns#"
   xmlns:rdf="http://www.w3.org/1999/02/22-rdf-syntax-ns#"
   xmlns:svg="http://www.w3.org/2000/svg"
   xmlns="http://www.w3.org/2000/svg"
   xmlns:sodipodi="http://sodipodi.sourceforge.net/DTD/sodipodi-0.dtd"
   xmlns:inkscape="http://www.inkscape.org/namespaces/inkscape"
   version="1.0"
   width="65.000000pt"
   height="65.000000pt"
   viewBox="0 0 65.000000 65.000000"
   preserveAspectRatio="xMidYMid meet"
   id="svg4258"
   inkscape:version="0.91 r13725"
   sodipodi:docname="tools.svg">
  <defs
     id="defs4270" />
  <sodipodi:namedview
     pagecolor="#ffffff"
     bordercolor="#666666"
     borderopacity="1"
     objecttolerance="10"
     gridtolerance="10"
     guidetolerance="10"
     inkscape:pageopacity="0"
     inkscape:pageshadow="2"
     inkscape:window-width="1877"
     inkscape:window-height="1179"
     id="namedview4268"
     showgrid="false"
     inkscape:zoom="11.618462"
     inkscape:cx="40.625"
     inkscape:cy="40.625"
     inkscape:window-x="1963"
     inkscape:window-y="21"
     inkscape:window-maximized="1"
     inkscape:current-layer="svg4258" />
  <metadata
     id="metadata4260">
Created by potrace 1.12, written by Peter Selinger 2001-2015
<rdf:RDF>
  <cc:Work
     rdf:about="">
    <dc:format>image/svg+xml</dc:format>
    <dc:type
       rdf:resource="http://purl.org/dc/dcmitype/StillImage" />
  </cc:Work>
</rdf:RDF>
</metadata>
  <g
     transform="translate(0.000000,65.000000) scale(0.100000,-0.100000)"
     fill="#000000"
     stroke="none"
     id="g4262">
    <path
       d="M87 644 c-4 -4 6 -22 23 -39 26 -27 29 -35 21 -57 -15 -40 -50 -43 -87 -7 -35 34 -49 27 -39 -21 9 -42 58 -80 103 -80 35 0 50 -13 254 -217 l218 -218 32 33 33 32 -218 218 c-205 205 -217 219 -217 254 0 27 -8 46 -27 68 -28 30 -81 49 -96 34z"
       id="path4264" />
    <path
       d="M120 185 l-104 -105 34 -35 34 -35 108 107 108 107 -32 33 c-18 18 -34 33 -38 33 -3 0 -52 -47 -110 -105z"
       id="path4266" />
  </g>
  <path
     style="fill:#000000;fill-opacity:1;fill-rule:evenodd;stroke:none;stroke-width:1px;stroke-linecap:butt;stroke-linejoin:miter;stroke-opacity:1"
     d="m 37.422192,24.885972 2.927713,2.803131 10.838763,-11.523974 4.360422,-1.308126 7.599593,-9.0945963 -4.048965,-3.9866713 -9.094593,7.599593 -1.121251,4.1735456 z"
     id="path4204"
     inkscape:connector-curvature="0"
     sodipodi:nodetypes="ccccccccc" />
</svg>
