<svg xmlns="http://www.w3.org/2000/svg" style="display: none;">
    <symbol id="arrow-expand" viewBox="0 0 24 24">
      <title>arrow-expand icon</title>
      <path d="M9.5 13.09l1.41 1.41-4.5 4.5H10v2H3v-7h2v3.59l4.5-4.5m1.41-3.59L9.5 10.91 5 6.41V10H3V3h7v2H6.41l4.5 4.5m3.59 3.59l4.5 4.5V14h2v7h-7v-2h3.59l-4.5-4.5 1.41-1.41M13.09 9.5l4.5-4.5H14V3h7v7h-2V6.41l-4.5 4.5-1.41-1.41z"/>
    </symbol>
    <symbol id="bars" viewBox="0 0 1792 1792">
      <title>bars icon</title>
      <path d="M1664 1344v128q0 26-19 45t-45 19H192q-26 0-45-19t-19-45v-128q0-26 19-45t45-19h1408q26 0 45 19t19 45zm0-512v128q0 26-19 45t-45 19H192q-26 0-45-19t-19-45V832q0-26 19-45t45-19h1408q26 0 45 19t19 45zm0-512v128q0 26-19 45t-45 19H192q-26 0-45-19t-19-45V320q0-26 19-45t45-19h1408q26 0 45 19t19 45z"/>
    </symbol>
    <symbol id="chart-pie" viewBox="0 0 24 24">
      <title>chart-pie icon</title>
      <path d="M21 11h-8V3a8 8 0 0 1 8 8m-2 2c0 2.78-1.42 5.23-3.57 6.67L11.58 13H19m-8 8c-2.78 0-5.23-1.42-6.67-3.57l6.49-3.75 3.74 6.49c-1.06.53-2.28.83-3.56.83m-8-8a8 8 0 0 1 8-8v7.42l-7.17 4.14C3.3 15.5 3 14.28 3 13z"/>
    </symbol>
    <symbol id="github" viewBox="0 0 1792 1792">
      <title>github icon</title>
      <path d="M1664 896q0 251-146.5 451.5T1139 1625q-27 5-39.5-7t-12.5-30v-211q0-97-52-142 57-6 102.5-18t94-39 81-66.5 53-105T1386 856q0-121-79-206 37-91-8-204-28-9-81 11t-92 44l-38 24q-93-26-192-26t-192 26q-16-11-42.5-27T578 459.5 492 446q-44 113-7 204-79 85-79 206 0 85 20.5 150t52.5 105 80.5 67 94 39 102.5 18q-40 36-49 103-21 10-45 15t-57 5-65.5-21.5T484 1274q-19-32-48.5-52t-49.5-24l-20-3q-21 0-29 4.5t-5 11.5 9 14 13 12l7 5q22 10 43.5 38t31.5 51l10 23q13 38 44 61.5t67 30 69.5 7 55.5-3.5l23-4q0 38 .5 89t.5 54q0 18-13 30t-40 7q-232-77-378.5-277.5T128 896q0-209 103-385.5T510.5 231 896 128t385.5 103T1561 510.5 1664 896z"/>
    </symbol>
    <symbol id="image-filter-center-focus" viewBox="0 0 24 24">
      <title>image-filter-center-focus icon</title>
      <path d="M12 9a3 3 0 0 0-3 3 3 3 0 0 0 3 3 3 3 0 0 0 3-3 3 3 0 0 0-3-3m7 10h-4v2h4a2 2 0 0 0 2-2v-4h-2m0-12h-4v2h4v4h2V5a2 2 0 0 0-2-2M5 5h4V3H5a2 2 0 0 0-2 2v4h2m0 6H3v4a2 2 0 0 0 2 2h4v-2H5v-4z"/>
    </symbol>
    <symbol id="life-ring" viewBox="0 0 1792 1792">
      <title>life-ring icon</title>
      <path d="M896 0q182 0 348 71t286 191 191 286 71 348-71 348-191 286-286 191-348 71-348-71-286-191-191-286T0 896t71-348 191-286T548 71 896 0zm0 128q-190 0-361 90l194 194q82-28 167-28t167 28l194-194q-171-90-361-90zM218 1257l194-194q-28-82-28-167t28-167L218 535q-90 171-90 361t90 361zm678 407q190 0 361-90l-194-194q-82 28-167 28t-167-28l-194 194q171 90 361 90zm0-384q159 0 271.5-112.5T1280 896t-112.5-271.5T896 512 624.5 624.5 512 896t112.5 271.5T896 1280zm484-217l194 194q90-171 90-361t-90-361l-194 194q28 82 28 167t-28 167z"/>
    </symbol>
    <symbol id="line-chart" viewBox="0 0 1792 1792">
      <title>line-chart icon</title>
      <path d="M1920 1536v128H-128V128H0v1408h1920zM1792 288v435q0 21-19.5 29.5T1737 745l-121-121-633 633q-10 10-23 10t-23-10l-233-233-416 416-192-192 585-585q10-10 23-10t23 10l233 233 464-464-121-121q-16-16-7.5-35.5T1325 256h435q14 0 23 9t9 23z"/>
    </symbol>
    <symbol id="package-variant" viewBox="0 0 24 24">
      <title>package-variant icon</title>
      <path d="M2 10.96c-.5-.28-.65-.89-.37-1.37L3.13 7c.11-.2.28-.34.47-.42l7.83-4.4c.16-.12.36-.18.57-.18.21 0 .41.06.57.18l7.9 4.44c.19.1.35.26.44.46l1.45 2.52c.28.48.11 1.09-.36 1.36l-1 .58v4.96c0 .38-.21.71-.53.88l-7.9 4.44c-.16.12-.36.18-.57.18-.21 0-.41-.06-.57-.18l-7.9-4.44c-.32-.17-.53-.5-.53-.88v-5.54c-.3.17-.68.18-1 0m10-6.81v6.7l5.96-3.35L12 4.15M5 15.91l6 3.38v-6.71L5 9.21v6.7m14 0v-3.22l-5 2.9c-.33.18-.7.17-1 .01v3.69l6-3.38m-5.15-2.55l6.28-3.63-.58-1.01-6.28 3.63.58 1.01z"/>
    </symbol>
    <symbol id="tablet-ipad" viewBox="0 0 24 24">
      <title>tablet-ipad icon</title>
      <path d="M19 19H4V3h15m-7.5 20a1.5 1.5 0 0 1-1.5-1.5 1.5 1.5 0 0 1 1.5-1.5 1.5 1.5 0 0 1 1.5 1.5 1.5 1.5 0 0 1-1.5 1.5m7-23h-14A2.5 2.5 0 0 0 2 2.5v19A2.5 2.5 0 0 0 4.5 24h14a2.5 2.5 0 0 0 2.5-2.5v-19A2.5 2.5 0 0 0 18.5 0z"/>
    </symbol>
    <symbol id="tachometer" viewBox="0 0 1792 1792">
      <title>tachometer icon</title>
      <path d="M384 1152q0-53-37.5-90.5T256 1024t-90.5 37.5T128 1152t37.5 90.5T256 1280t90.5-37.5T384 1152zm192-448q0-53-37.5-90.5T448 576t-90.5 37.5T320 704t37.5 90.5T448 832t90.5-37.5T576 704zm428 481l101-382q6-26-7.5-48.5T1059 725t-48 6.5-30 39.5l-101 382q-60 5-107 43.5t-63 98.5q-20 77 20 146t117 89 146-20 89-117q16-60-6-117t-72-91zm660-33q0-53-37.5-90.5T1536 1024t-90.5 37.5-37.5 90.5 37.5 90.5 90.5 37.5 90.5-37.5 37.5-90.5zm-640-640q0-53-37.5-90.5T896 384t-90.5 37.5T768 512t37.5 90.5T896 640t90.5-37.5T1024 512zm448 192q0-53-37.5-90.5T1344 576t-90.5 37.5T1216 704t37.5 90.5T1344 832t90.5-37.5T1472 704zm320 448q0 261-141 483-19 29-54 29H195q-35 0-54-29Q0 1414 0 1152q0-182 71-348t191-286 286-191 348-71 348 71 286 191 191 286 71 348z"/>
    </symbol>
    <symbol id="xml" viewBox="0 0 24 24">
      <title>xml icon</title>
      <path d="M12.89 3l1.96.4L11.11 21l-1.96-.4L12.89 3m6.7 9L16 8.41V5.58L22.42 12 16 18.41v-2.83L19.59 12M1.58 12L8 5.58v2.83L4.41 12 8 15.58v2.83L1.58 12z"/>
    </symbol></svg>