<!DOCTYPE svg PUBLIC "-//W3C//DTD SVG 1.1//EN" "http://www.w3.org/Graphics/SVG/1.1/DTD/svg11.dtd" [
	<!ENTITY ns_extend "http://ns.adobe.com/Extensibility/1.0/">
	<!ENTITY ns_ai "http://ns.adobe.com/AdobeIllustrator/10.0/">
	<!ENTITY ns_graphs "http://ns.adobe.com/Graphs/1.0/">
	<!ENTITY ns_vars "http://ns.adobe.com/Variables/1.0/">
	<!ENTITY ns_imrep "http://ns.adobe.com/ImageReplacement/1.0/">
	<!ENTITY ns_sfw "http://ns.adobe.com/SaveForWeb/1.0/">
	<!ENTITY ns_custom "http://ns.adobe.com/GenericCustomNamespace/1.0/">
	<!ENTITY ns_adobe_xpath "http://ns.adobe.com/XPath/1.0/">
	<!ENTITY ns_svg "http://www.w3.org/2000/svg">
	<!ENTITY ns_xlink "http://www.w3.org/1999/xlink">
]>
<svg  version="1.1" id="Layer_1" xmlns:x="&ns_extend;" xmlns:i="&ns_ai;" xmlns:graph="&ns_graphs;"
	 xmlns="&ns_svg;" xmlns:xlink="&ns_xlink;" width="113.577" height="113.577" viewBox="0 0 113.577 113.577"
	 overflow="visible" enable-background="new 0 0 113.577 113.577" xml:space="preserve">
	<path fill-rule="evenodd" clip-rule="evenodd" d="M0.007,0.042h113.384v113.385H0.007V0.042z"/>
		<rect x="16.634" y="16.632" transform="matrix(-0.7071 0.7071 -0.7071 -0.7071 137.0996 56.7878)" fill-rule="evenodd" clip-rule="evenodd" fill="#FFFFFF" width="80.31" height="80.312"/>
	<rect x="28.353" y="28.389" fill-rule="evenodd" clip-rule="evenodd" width="56.693" height="56.692"/>
		<rect x="36.739" y="37.005" transform="matrix(-0.7072 0.7071 -0.7071 -0.7072 137.1398 56.9457)" fill-rule="evenodd" clip-rule="evenodd" fill="#FFFFFF" width="40.077" height="39.735"/>
	<rect x="42.624" y="42.562" fill-rule="evenodd" clip-rule="evenodd" width="28.25" height="28.346"/>
		<rect x="46.833" y="47.057" transform="matrix(-0.7072 0.7071 -0.7071 -0.7072 137.204 56.9067)" fill-rule="evenodd" clip-rule="evenodd" fill="#FFFFFF" width="19.97" height="19.619"/>
	<rect x="49.859" y="49.743" fill-rule="evenodd" clip-rule="evenodd" width="14.173" height="14.173"/>
		<rect x="51.908" y="51.737" transform="matrix(-0.7071 0.7071 -0.7071 -0.7071 137.4756 56.705)" fill-rule="evenodd" clip-rule="evenodd" fill="#FFFFFF" width="10.172" height="10.172"/>
</svg>
