<svg xmlns="http://www.w3.org/2000/svg" style="display: none;">
    <symbol id="account-location" viewBox="0 0 24 24">
      <title>account-location icon</title>
      <path d="M18 16H6v-.9c0-2 4-3.1 6-3.1s6 1.1 6 3.1m-6-9.8c1.5 0 2.7 1.2 2.7 2.7 0 1.5-1.2 2.7-2.7 2.7-1.5 0-2.7-1.2-2.7-2.7 0-1.5 1.2-2.7 2.7-2.7M19 2H5c-1.11 0-2 .89-2 2v14a2 2 0 0 0 2 2h4l3 3 3-3h4a2 2 0 0 0 2-2V4c0-1.11-.9-2-2-2z"/>
    </symbol>
    <symbol id="arrow-expand" viewBox="0 0 24 24">
      <title>arrow-expand icon</title>
      <path d="M9.5 13.09l1.41 1.41-4.5 4.5H10v2H3v-7h2v3.59l4.5-4.5m1.41-3.59L9.5 10.91 5 6.41V10H3V3h7v2H6.41l4.5 4.5m3.59 3.59l4.5 4.5V14h2v7h-7v-2h3.59l-4.5-4.5 1.41-1.41M13.09 9.5l4.5-4.5H14V3h7v7h-2V6.41l-4.5 4.5-1.41-1.41z"/>
    </symbol>
    <symbol id="bars" viewBox="0 0 1792 1792">
      <title>bars icon</title>
      <path d="M1664 1344v128q0 26-19 45t-45 19H192q-26 0-45-19t-19-45v-128q0-26 19-45t45-19h1408q26 0 45 19t19 45zm0-512v128q0 26-19 45t-45 19H192q-26 0-45-19t-19-45V832q0-26 19-45t45-19h1408q26 0 45 19t19 45zm0-512v128q0 26-19 45t-45 19H192q-26 0-45-19t-19-45V320q0-26 19-45t45-19h1408q26 0 45 19t19 45z"/>
    </symbol>
    <symbol id="chart-pie" viewBox="0 0 24 24">
      <title>chart-pie icon</title>
      <path d="M21 11h-8V3a8 8 0 0 1 8 8m-2 2c0 2.78-1.42 5.23-3.57 6.67L11.58 13H19m-8 8c-2.78 0-5.23-1.42-6.67-3.57l6.49-3.75 3.74 6.49c-1.06.53-2.28.83-3.56.83m-8-8a8 8 0 0 1 8-8v7.42l-7.17 4.14C3.3 15.5 3 14.28 3 13z"/>
    </symbol>
    <symbol id="cloud-outline" viewBox="0 0 24 24">
      <title>cloud-outline icon</title>
      <path d="M19 18H6a4 4 0 0 1-4-4 4 4 0 0 1 4-4h.71C7.37 7.69 9.5 6 12 6a5.5 5.5 0 0 1 5.5 5.5v.5H19a3 3 0 0 1 3 3 3 3 0 0 1-3 3m.35-7.97C18.67 6.59 15.64 4 12 4 9.11 4 6.6 5.64 5.35 8.03 2.34 8.36 0 10.9 0 14a6 6 0 0 0 6 6h13a5 5 0 0 0 5-5c0-2.64-2.05-4.78-4.65-4.97z"/>
    </symbol>
    <symbol id="code" viewBox="0 0 1792 1792">
      <title>code icon</title>
      <path d="M553 1399l-50 50q-10 10-23 10t-23-10L-9 983q-10-10-10-23t10-23l466-466q10-10 23-10t23 10l50 50q10 10 10 23t-10 23L160 960l393 393q10 10 10 23t-10 23zm591-1067L771 1623q-4 13-15.5 19.5T732 1645l-62-17q-13-4-19.5-15.5T648 1588l373-1291q4-13 15.5-19.5t23.5-2.5l62 17q13 4 19.5 15.5t2.5 24.5zm657 651l-466 466q-10 10-23 10t-23-10l-50-50q-10-10-10-23t10-23l393-393-393-393q-10-10-10-23t10-23l50-50q10-10 23-10t23 10l466 466q10 10 10 23t-10 23z"/>
    </symbol>
    <symbol id="cubes" viewBox="0 0 17 14">
      <title>cubes icon</title>
      <path d="M5 12.75l3-1.5V8.797l-3 1.28v2.673zm-.5-3.547L7.656 7.85 4.5 6.5 1.344 7.85zM13 12.75l3-1.5V8.797l-3 1.28v2.673zm-.5-3.547l3.156-1.352L12.5 6.5 9.344 7.85zM9 6.913l3-1.288V3.547l-3 1.28v2.087zm-.5-2.96l3.445-1.477L8.5 1 5.055 2.475zM17 8v3.25q0 .28-.148.523t-.406.367l-3.5 1.75q-.195.11-.445.11t-.444-.11l-3.5-1.75q-.04-.016-.055-.03-.015.015-.054.03l-3.5 1.75Q4.75 14 4.5 14t-.444-.11l-3.5-1.75q-.258-.125-.406-.367t-.148-.523V8q0-.297.168-.547t.44-.375l3.392-1.453V2.5q0-.297.168-.547t.44-.375l3.5-1.5Q8.29 0 8.503 0t.39.078l3.5 1.5q.274.125.442.375t.168.547v3.125l3.39 1.453q.282.125.446.375t.164.547z"/>
    </symbol>
    <symbol id="emoticon-neutral" viewBox="0 0 24 24">
      <title>emoticon-neutral icon</title>
      <path d="M8.5 11A1.5 1.5 0 0 1 7 9.5 1.5 1.5 0 0 1 8.5 8 1.5 1.5 0 0 1 10 9.5 1.5 1.5 0 0 1 8.5 11m7 0A1.5 1.5 0 0 1 14 9.5 1.5 1.5 0 0 1 15.5 8 1.5 1.5 0 0 1 17 9.5a1.5 1.5 0 0 1-1.5 1.5M12 20a8 8 0 0 0 8-8 8 8 0 0 0-8-8 8 8 0 0 0-8 8 8 8 0 0 0 8 8m0-18a10 10 0 0 1 10 10 10 10 0 0 1-10 10C6.47 22 2 17.5 2 12A10 10 0 0 1 12 2M9 14h6a1 1 0 0 1 1 1 1 1 0 0 1-1 1H9a1 1 0 0 1-1-1 1 1 0 0 1 1-1z"/>
    </symbol>
    <symbol id="file-chart" viewBox="0 0 24 24">
      <title>file-chart icon</title>
      <path d="M13 9h5.5L13 3.5V9M6 2h8l6 6v12a2 2 0 0 1-2 2H6c-1.11 0-2-.9-2-2V4c0-1.11.89-2 2-2m1 18h2v-6H7v6m4 0h2v-8h-2v8m4 0h2v-4h-2v4z"/>
    </symbol>
    <symbol id="github" viewBox="0 0 1792 1792">
      <title>github icon</title>
      <path d="M1664 896q0 251-146.5 451.5T1139 1625q-27 5-39.5-7t-12.5-30v-211q0-97-52-142 57-6 102.5-18t94-39 81-66.5 53-105T1386 856q0-121-79-206 37-91-8-204-28-9-81 11t-92 44l-38 24q-93-26-192-26t-192 26q-16-11-42.5-27T578 459.5 492 446q-44 113-7 204-79 85-79 206 0 85 20.5 150t52.5 105 80.5 67 94 39 102.5 18q-40 36-49 103-21 10-45 15t-57 5-65.5-21.5T484 1274q-19-32-48.5-52t-49.5-24l-20-3q-21 0-29 4.5t-5 11.5 9 14 13 12l7 5q22 10 43.5 38t31.5 51l10 23q13 38 44 61.5t67 30 69.5 7 55.5-3.5l23-4q0 38 .5 89t.5 54q0 18-13 30t-40 7q-232-77-378.5-277.5T128 896q0-209 103-385.5T510.5 231 896 128t385.5 103T1561 510.5 1664 896z"/>
    </symbol>
    <symbol id="google-circles" viewBox="0 0 24 24">
      <title>google-circles icon</title>
      <path d="M16.66 15H17c1 0 2-.2 2.87-.54-.7 4.27-4.4 7.54-8.87 7.54-5 0-9-4.03-9-9 0-4.47 3.27-8.17 7.54-8.87C9.2 5 9 6 9 7v.34c-2.32.82-4 3.04-4 5.66a6 6 0 0 0 6 6c2.62 0 4.84-1.68 5.66-4m.34-5a3 3 0 0 0 3-3 3 3 0 0 0-3-3 3 3 0 0 0-3 3 3 3 0 0 0 3 3m0-9a6 6 0 0 1 6 6 6 6 0 0 1-6 6 6 6 0 0 1-6-6c0-3.32 2.69-6 6-6z"/>
    </symbol>
    <symbol id="google-controller" viewBox="0 0 24 24">
      <title>google-controller icon</title>
      <path d="M7.97 16L5 19c-.33.3-.77.5-1.25.5A1.75 1.75 0 0 1 2 17.75v-.25l1-7.38C3.21 7.81 5.14 6 7.5 6h9c2.36 0 4.29 1.81 4.5 4.12l1 7.38v.25a1.75 1.75 0 0 1-1.75 1.75c-.48 0-.92-.2-1.25-.5l-2.97-3H7.97M7 8v2H5v1h2v2h1v-2h2v-1H8V8H7m9.5 0a.75.75 0 0 0-.75.75.75.75 0 0 0 .75.75.75.75 0 0 0 .75-.75.75.75 0 0 0-.75-.75m-1.75 1.75a.75.75 0 0 0-.75.75.75.75 0 0 0 .75.75.75.75 0 0 0 .75-.75.75.75 0 0 0-.75-.75m3.5 0a.75.75 0 0 0-.75.75.75.75 0 0 0 .75.75.75.75 0 0 0 .75-.75.75.75 0 0 0-.75-.75M16.5 11.5a.75.75 0 0 0-.75.75.75.75 0 0 0 .75.75.75.75 0 0 0 .75-.75.75.75 0 0 0-.75-.75z"/>
    </symbol>
    <symbol id="hexagon" viewBox="0 0 50.000012 55.00001">
      <title>hexagon icon</title>
      <path d="M25 55L0 40V15L25 0l25 15v25L25 55z" fill="#55A32A" fill-rule="evenodd"/>
    </symbol>
    <symbol id="image-filter-center-focus" viewBox="0 0 24 24">
      <title>image-filter-center-focus icon</title>
      <path d="M12 9a3 3 0 0 0-3 3 3 3 0 0 0 3 3 3 3 0 0 0 3-3 3 3 0 0 0-3-3m7 10h-4v2h4a2 2 0 0 0 2-2v-4h-2m0-12h-4v2h4v4h2V5a2 2 0 0 0-2-2M5 5h4V3H5a2 2 0 0 0-2 2v4h2m0 6H3v4a2 2 0 0 0 2 2h4v-2H5v-4z"/>
    </symbol>
    <symbol id="life-ring" viewBox="0 0 1792 1792">
      <title>life-ring icon</title>
      <path d="M896 0q182 0 348 71t286 191 191 286 71 348-71 348-191 286-286 191-348 71-348-71-286-191-191-286T0 896t71-348 191-286T548 71 896 0zm0 128q-190 0-361 90l194 194q82-28 167-28t167 28l194-194q-171-90-361-90zM218 1257l194-194q-28-82-28-167t28-167L218 535q-90 171-90 361t90 361zm678 407q190 0 361-90l-194-194q-82 28-167 28t-167-28l-194 194q171 90 361 90zm0-384q159 0 271.5-112.5T1280 896t-112.5-271.5T896 512 624.5 624.5 512 896t112.5 271.5T896 1280zm484-217l194 194q90-171 90-361t-90-361l-194 194q28 82 28 167t-28 167z"/>
    </symbol>
    <symbol id="line-chart" viewBox="0 0 1792 1792">
      <title>line-chart icon</title>
      <path d="M1920 1536v128H-128V128H0v1408h1920zM1792 288v435q0 21-19.5 29.5T1737 745l-121-121-633 633q-10 10-23 10t-23-10l-233-233-416 416-192-192 585-585q10-10 23-10t23 10l233 233 464-464-121-121q-16-16-7.5-35.5T1325 256h435q14 0 23 9t9 23z"/>
    </symbol>
    <symbol id="lock-outline" viewBox="0 0 24 24">
      <title>lock-outline icon</title>
      <path d="M12 17c-1.11 0-2-.9-2-2 0-1.11.89-2 2-2a2 2 0 0 1 2 2 2 2 0 0 1-2 2m6 3V10H6v10h12m0-12a2 2 0 0 1 2 2v10a2 2 0 0 1-2 2H6c-1.11 0-2-.9-2-2V10c0-1.11.89-2 2-2h1V6a5 5 0 0 1 5-5 5 5 0 0 1 5 5v2h1m-6-5a3 3 0 0 0-3 3v2h6V6a3 3 0 0 0-3-3z"/>
    </symbol>
    <symbol id="logo" viewBox="0 0 30.00001 60.000014">
      <title>logo icon</title>
      <g fill-rule="evenodd" stroke-width=".1"><path d="M15 40l15 10V30L15 20z" fill="#4c9225" stroke="#4c9225"/><path d="M15 40L0 50V30l15-10z" fill="#539f29" stroke="#539f29"/><path d="M0 50l15 10V40L0 30z" fill="#4c9225" stroke="#4c9225"/><path d="M15 60l15-10V30L15 40v20zM0 30l15-10V0L0 10z" fill="#55a32a" stroke="#55a32a"/></g>
    </symbol>
    <symbol id="map-marker" viewBox="0 0 24 24">
      <title>map-marker icon</title>
      <path d="M12 11.5A2.5 2.5 0 0 1 9.5 9 2.5 2.5 0 0 1 12 6.5 2.5 2.5 0 0 1 14.5 9a2.5 2.5 0 0 1-2.5 2.5M12 2a7 7 0 0 0-7 7c0 5.25 7 13 7 13s7-7.75 7-13a7 7 0 0 0-7-7z"/>
    </symbol>
    <symbol id="odnoklassniki" viewBox="0 0 24 24">
      <title>odnoklassniki icon</title>
      <path d="M17.83 12.74c-.28-.57-1.07-1.05-2.12-.24-1.43 1.14-3.71 1.14-3.71 1.14s-2.28 0-3.71-1.14c-1.05-.81-1.84-.33-2.12.24-.5 1 .06 1.49 1.33 2.3 1.09.7 2.58.96 3.54 1.06l-.8.8C9.1 18.03 8 19.12 7.25 19.88c-.45.46-.45 1.19 0 1.62l.14.16c.45.45 1.19.45 1.64 0L12 18.68c1.15 1.13 2.24 2.22 3 2.98.45.45 1.18.45 1.64 0l.13-.16c.46-.43.46-1.16 0-1.62l-2.98-2.98-.79-.81c.95-.09 2.42-.36 3.5-1.05 1.27-.81 1.83-1.3 1.33-2.3M12 4.57c1.38 0 2.5 1.12 2.5 2.49 0 1.38-1.12 2.49-2.5 2.49S9.5 8.44 9.5 7.06c0-1.37 1.12-2.49 2.5-2.49m0 7.55c2.8 0 5.06-2.26 5.06-5.06C17.06 4.27 14.8 2 12 2S6.94 4.27 6.94 7.06c0 2.8 2.26 5.06 5.06 5.06z"/>
    </symbol>
    <symbol id="package-variant-closed" viewBox="0 0 24 24">
      <title>package-variant-closed icon</title>
      <path d="M21 16.5c0 .38-.21.71-.53.88l-7.9 4.44c-.16.12-.36.18-.57.18-.21 0-.41-.06-.57-.18l-7.9-4.44c-.32-.17-.53-.5-.53-.88v-9c0-.38.21-.71.53-.88l7.9-4.44c.16-.12.36-.18.57-.18.21 0 .41.06.57.18l7.9 4.44c.32.17.53.5.53.88v9M12 4.15l-1.89 1.07L16 8.61l1.96-1.11L12 4.15M6.04 7.5L12 10.85l1.96-1.1-5.88-3.4L6.04 7.5M5 15.91l6 3.38v-6.71L5 9.21v6.7m14 0v-6.7l-6 3.37v6.71l6-3.38z"/>
    </symbol>
    <symbol id="package-variant" viewBox="0 0 24 24">
      <title>package-variant icon</title>
      <path d="M2 10.96c-.5-.28-.65-.89-.37-1.37L3.13 7c.11-.2.28-.34.47-.42l7.83-4.4c.16-.12.36-.18.57-.18.21 0 .41.06.57.18l7.9 4.44c.19.1.35.26.44.46l1.45 2.52c.28.48.11 1.09-.36 1.36l-1 .58v4.96c0 .38-.21.71-.53.88l-7.9 4.44c-.16.12-.36.18-.57.18-.21 0-.41-.06-.57-.18l-7.9-4.44c-.32-.17-.53-.5-.53-.88v-5.54c-.3.17-.68.18-1 0m10-6.81v6.7l5.96-3.35L12 4.15M5 15.91l6 3.38v-6.71L5 9.21v6.7m14 0v-3.22l-5 2.9c-.33.18-.7.17-1 .01v3.69l6-3.38m-5.15-2.55l6.28-3.63-.58-1.01-6.28 3.63.58 1.01z"/>
    </symbol>
    <symbol id="sale" viewBox="0 0 24 24">
      <title>sale icon</title>
      <path d="M18.65 2.85l.61 3.86 3.51 1.79L21 12l1.78 3.5-3.54 1.79-.61 3.86-3.89-.61-2.77 2.76-2.78-2.8-3.86.64-.62-3.89-3.49-1.78L3 11.97 1.23 8.5l3.51-1.81.61-3.83 3.87.64L12 .69l2.77 2.77 3.88-.61M9.5 7A1.5 1.5 0 0 0 8 8.5 1.5 1.5 0 0 0 9.5 10 1.5 1.5 0 0 0 11 8.5 1.5 1.5 0 0 0 9.5 7m5 7a1.5 1.5 0 0 0-1.5 1.5 1.5 1.5 0 0 0 1.5 1.5 1.5 1.5 0 0 0 1.5-1.5 1.5 1.5 0 0 0-1.5-1.5m-6.09 3L17 8.41 15.59 7 7 15.59 8.41 17z"/>
    </symbol>
    <symbol id="scale" viewBox="0 0 24 24">
      <title>scale icon</title>
      <path d="M8.46 15.06l-1.41 1.41-1.37-1.37c-.86 1.11-1.44 2.44-1.62 3.9H6v2H2v-1c0-4.84 3.44-8.87 8-9.8v-2L2 5V3h20v2l-8 3.2v2c4.56.93 8 4.96 8 9.8v1h-4v-2h1.94c-.18-1.46-.76-2.79-1.62-3.9l-1.37 1.37-1.41-1.41 1.37-1.38c-1.11-.86-2.45-1.44-3.91-1.62V14h-2v-1.94c-1.46.18-2.8.76-3.91 1.62l1.37 1.38M12 18a2 2 0 0 1 2 2 2 2 0 0 1-2 2c-.32 0-.62-.07-.88-.21L7.27 20l3.85-1.79c.26-.14.56-.21.88-.21z"/>
    </symbol>
    <symbol id="tablet-ipad" viewBox="0 0 24 24">
      <title>tablet-ipad icon</title>
      <path d="M19 19H4V3h15m-7.5 20a1.5 1.5 0 0 1-1.5-1.5 1.5 1.5 0 0 1 1.5-1.5 1.5 1.5 0 0 1 1.5 1.5 1.5 1.5 0 0 1-1.5 1.5m7-23h-14A2.5 2.5 0 0 0 2 2.5v19A2.5 2.5 0 0 0 4.5 24h14a2.5 2.5 0 0 0 2.5-2.5v-19A2.5 2.5 0 0 0 18.5 0z"/>
    </symbol>
    <symbol id="tachometer" viewBox="0 0 1792 1792">
      <title>tachometer icon</title>
      <path d="M384 1152q0-53-37.5-90.5T256 1024t-90.5 37.5T128 1152t37.5 90.5T256 1280t90.5-37.5T384 1152zm192-448q0-53-37.5-90.5T448 576t-90.5 37.5T320 704t37.5 90.5T448 832t90.5-37.5T576 704zm428 481l101-382q6-26-7.5-48.5T1059 725t-48 6.5-30 39.5l-101 382q-60 5-107 43.5t-63 98.5q-20 77 20 146t117 89 146-20 89-117q16-60-6-117t-72-91zm660-33q0-53-37.5-90.5T1536 1024t-90.5 37.5-37.5 90.5 37.5 90.5 90.5 37.5 90.5-37.5 37.5-90.5zm-640-640q0-53-37.5-90.5T896 384t-90.5 37.5T768 512t37.5 90.5T896 640t90.5-37.5T1024 512zm448 192q0-53-37.5-90.5T1344 576t-90.5 37.5T1216 704t37.5 90.5T1344 832t90.5-37.5T1472 704zm320 448q0 261-141 483-19 29-54 29H195q-35 0-54-29Q0 1414 0 1152q0-182 71-348t191-286 286-191 348-71 348 71 286 191 191 286 71 348z"/>
    </symbol>
    <symbol id="view-dashboard" viewBox="0 0 24 24">
      <title>view-dashboard icon</title>
      <path d="M13 3v6h8V3m-8 18h8V11h-8M3 21h8v-6H3m0-2h8V3H3v10z"/>
    </symbol>
    <symbol id="xml" viewBox="0 0 24 24">
      <title>xml icon</title>
      <path d="M12.89 3l1.96.4L11.11 21l-1.96-.4L12.89 3m6.7 9L16 8.41V5.58L22.42 12 16 18.41v-2.83L19.59 12M1.58 12L8 5.58v2.83L4.41 12 8 15.58v2.83L1.58 12z"/>
    </symbol></svg>