<svg xmlns="http://www.w3.org/2000/svg" style="width:0; height:0; visibility:hidden;">
  <defs>
      <path id="SVGID_201_" d="m29.133 0h-17.962c-1.417 0-2.567 1.147-2.567 2.562v35.868c0 1.415 1.149 2.562 2.566 2.562h25.66c1.418 0 2.565-1.147 2.565-2.562v-28.182l-10.262-10.248z"/>
<path id="SVGID_201_" d="m29.133 0h-17.962c-1.417 0-2.567 1.147-2.567 2.562v35.868c0 1.415 1.149 2.562 2.566 2.562h25.66c1.418 0 2.565-1.147 2.565-2.562v-28.182l-10.262-10.248z"/>
  </defs>
    <symbol id="accessibility" viewBox="0 0 24 24">
       <path d="M0 0h24v24H0z" fill="none"/> <path d="M12 2c1.1 0 2 .9 2 2s-.9 2-2 2-2-.9-2-2 .9-2 2-2zm9 7h-6v13h-2v-6h-2v6H9V9H3V7h18v2z"/> 
    </symbol>
    <symbol id="applications" viewBox="0 0 51.617737 51.119486">
       <g id="layer1" transform="translate(-317 -475)"> <path id="path6430" style="color-rendering:auto;text-decoration-color:#000000;color:#000000;isolation:auto;mix-blend-mode:normal;shape-rendering:auto;solid-color:#000000;block-progression:tb;text-decoration-line:none;text-decoration-style:solid;image-rendering:auto;white-space:normal;text-indent:0;text-transform:none" d="m3.58 0c-1.96 0-3.58 1.61-3.58 3.58v28.4c0 1.97 1.62 3.58 3.58 3.58l18.7-0.002v3.55c0 1.86 1.48 3.42 3.32 3.42h13.9c1.84 0 3.31-1.57 3.32-3.42l0.168-25.4 0.043-1.33a0.9 0.9 0 0 0 0 -0.002c0.0415-1.29-0.534-2.3-1.3-2.81-0.767-0.507-1.6-0.594-2.23-0.594h-8.23l0.0273-4.02 0.0488-1.4c0-1.49-0.7-2.54-1.5-3.07-0.8-0.519-1.7-0.61-2.4-0.61h-23.9zm0 1.8h23.9c0.479 0 1.07 0.103 1.44 0.334 0.363 0.231 0.608 0.489 0.578 1.36l-0.0156 0.439h-27.7v-0.355c0-0.984 0.797-1.78 1.78-1.78zm-1.78 3.94h27.7l-0.0215 3.25h-3.9c-1.84 0-3.32 1.56-3.32 3.42v14.6h-20.4v-21.3zm23.8 5.05h13.9c0.418 0 0.932 0.0937 1.24 0.295 0.304 0.201 0.52 0.429 0.494 1.25l-0.0234 0.713h-17.2v-0.635c0-0.915 0.7-1.62 1.52-1.62zm-1.52 4.05h17.1l-0.127 19.2h-17v-19.2zm-22.2 14h20.4v4.93h-18.7c-0.981 0-1.78-0.799-1.78-1.78v-3.15zm12.1 1.41a0.9 0.9 0 1 0 0 1.8h3.38a0.9 0.9 0 1 0 0 -1.8h-3.38zm10.2 5.62h17l-0.0215 3.26c-0.006 0.922-0.701 1.63-1.52 1.63h-13.9c-0.82 0-1.52-0.706-1.52-1.62v-3.26zm6.96 1.57a0.9 0.9 0 1 0 0 1.8h3.05a0.9 0.9 0 1 0 0 -1.8h-3.05z" transform="translate(321 480)"/> </g> 
    </symbol>
    <symbol id="bars" viewBox="0 0 1792 1792">
      <path d="M1664 1344v128q0 26-19 45t-45 19h-1408q-26 0-45-19t-19-45v-128q0-26 19-45t45-19h1408q26 0 45 19t19 45zm0-512v128q0 26-19 45t-45 19h-1408q-26 0-45-19t-19-45v-128q0-26 19-45t45-19h1408q26 0 45 19t19 45zm0-512v128q0 26-19 45t-45 19h-1408q-26 0-45-19t-19-45v-128q0-26 19-45t45-19h1408q26 0 45 19t19 45z"/>
    </symbol>
    <symbol id="bullhorn" viewBox="0 0 1792 1792">
      <path d="M1664 640q53 0 90.5 37.5t37.5 90.5-37.5 90.5-90.5 37.5v384q0 52-38 90t-90 38q-417-347-812-380-58 19-91 66t-31 100.5 40 92.5q-20 33-23 65.5t6 58 33.5 55 48 50 61.5 50.5q-29 58-111.5 83t-168.5 11.5-132-55.5q-7-23-29.5-87.5t-32-94.5-23-89-15-101 3.5-98.5 22-110.5h-122q-66 0-113-47t-47-113v-192q0-66 47-113t113-47h480q435 0 896-384 52 0 90 38t38 90v384zm-128 604v-954q-394 302-768 343v270q377 42 768 341z"/>
    </symbol>
    <symbol id="buy-button" viewBox="0 0 42.902601 42.370481">
       <g id="layer1" transform="translate(-335 -268)"> <g id="g4671" stroke-linejoin="round" stroke="#fff" stroke-linecap="round" stroke-width="1.8" fill="none"> <path id="path344" d="m348 286c1.11-0.689 2.54-0.316 3.27 0.77l3.71 5.54c0.131-0.611 0.5-1.17 1.07-1.52 1.01-0.626 2.32-0.395 3.07 0.492 0.054-0.736 0.445-1.44 1.12-1.85 1.01-0.628 2.32-0.395 3.07 0.492 0.054-0.736 0.446-1.44 1.12-1.86 1.11-0.688 2.64-0.376 3.27 0.77l4.62 8.43c3.76 6.86-3.49 15.7-10.8 12.2l-12.6-5.96c-1.18-0.558-1.69-1.98-1.14-3.16 1.1-0.681 3.48-0.989 4.66-0.428l2.39 1.13-7.59-11.8c-0.708-1.1-0.341-2.58 0.77-3.27zm-0.13 5.73h-6.98c-3.21 0-5.85-2.63-5.85-5.85v-10.3c0-3.22 2.63-5.85 5.85-5.85h29.4c3.22 0 5.85 2.63 5.85 5.85v10.3c0 3.22-2.63 5.85-5.85 5.85"/> <path id="path444" d="m360 274v6.4c0 0.772-0.085 1.42-0.254 1.94-1.01 3.08-5.6 3.03-6.63-0.0113-0.181-0.536-0.272-1.18-0.272-1.93v-6.4"/> <path id="path450" d="m367 279v5.77m-3.79-10.6c1.14 1.13 2.85 4.03 3.82 5.45l1.76-2.55c0.517-0.752 1.03-1.5 1.55-2.26 0.118-0.172 0.246-0.335 0.39-0.489"/> <path id="path452" d="m347 279h-4.48m2.93 5.24h-1.56c-0.49 0-0.842-0.0975-1.05-0.292-0.21-0.196-0.316-0.51-0.316-0.936v-7.45c0-0.436 0.109-0.75 0.324-0.941s0.562-0.289 1.04-0.289h1.77c0.531 0 0.995 0.0312 1.38 0.0888 0.39 0.0575 0.74 0.172 1.05 0.339 2.35 1.26 1.28 3.26-1.08 4.24 3.37 0.955 3.92 3.84 1.16 4.9-0.336 0.129-0.729 0.218-1.17 0.269-0.44 0.05-0.958 0.0775-1.54 0.0775z"/> </g> </g> 
    </symbol>
    <symbol id="camcorder" viewBox="0 0 24 24">
      <path d="M17,10.5V7A1,1 0 0,0 16,6H4A1,1 0 0,0 3,7V17A1,1 0 0,0 4,18H16A1,1 0 0,0 17,17V13.5L21,17.5V6.5L17,10.5Z"/>
    </symbol>
    <symbol id="cloud-outline" viewBox="0 0 24 24">
      <path d="M19,18H6A4,4 0 0,1 2,14A4,4 0 0,1 6,10H6.71C7.37,7.69 9.5,6 12,6A5.5,5.5 0 0,1 17.5,11.5V12H19A3,3 0 0,1 22,15A3,3 0 0,1 19,18M19.35,10.03C18.67,6.59 15.64,4 12,4C9.11,4 6.6,5.64 5.35,8.03C2.34,8.36 0,10.9 0,14A6,6 0 0,0 6,20H19A5,5 0 0,0 24,15C24,12.36 21.95,10.22 19.35,10.03Z"/>
    </symbol>
    <symbol id="diamond" viewBox="0 0 43.077179 42.65014">
       <g id="layer1" transform="translate(-318 -457)"> <path id="path166" style="color-rendering:auto;text-decoration-color:#000000;color:#000000;isolation:auto;mix-blend-mode:normal;shape-rendering:auto;solid-color:#000000;block-progression:tb;text-decoration-line:none;text-decoration-style:solid;image-rendering:auto;white-space:normal;text-indent:0;text-transform:none" d="m21.4 0a0.9 0.9 0 0 0 -0.9 0.912v5.14a0.9 0.9 0 0 0 1.8 0v-5.14a0.9 0.9 0 0 0 -0.9 -0.91zm11.5 1.76a0.9 0.9 0 0 0 -0.9 0.53l-2.1 4.66a0.9 0.9 0 1 0 1.6 0.76l2.2-4.66a0.9 0.9 0 0 0 -0.8 -1.29zm-22.9 0.22a0.9 0.9 0 0 0 -0.72 1.29l2.12 4.65a0.9 0.9 0 0 0 1.7 -0.76l-2.2-4.65a0.9 0.9 0 0 0 -0.9 -0.53zm32.1 5.49a0.9 0.9 0 0 0 -0.5 0.22l-3.9 3.31a0.9 0.9 0 1 0 1.1 1.4l3.9-3.34a0.9 0.9 0 0 0 -0.6 -1.59zm-41.2 0.39a0.9 0.9 0 0 0 -0.58 1.59l3.94 3.35a0.9 0.9 0 1 0 1.15 -1.4l-3.93-3.33a0.9 0.9 0 0 0 -0.578 -0.21zm18.5 4.04a0.9 0.9 0 0 0 -0.2 0h-6.3a0.9 0.9 0 0 0 -0.2 0 0.9 0.9 0 0 0 -0.1 0h-3.85a0.9 0.9 0 0 0 -0.8 0.5l-3.66 6.8a0.9 0.9 0 0 0 -0.1 0.6 0.9 0.9 0 0 0 0.18 0.7l16.5 21.8a0.9 0.9 0 0 0 1.4 0l16.5-21.8a0.9 0.9 0 0 0 0.1 -0.7 0.9 0.9 0 0 0 0 -0.5l-3.2-6.8a0.9 0.9 0 0 0 -0.8 -0.6h-4.5-6.5a0.9 0.9 0 0 0 -0.2 0 0.9 0.9 0 0 0 -0.1 0h-4a0.9 0.9 0 0 0 -0.2 0zm-10.1 1.8h2.81l2.4 5.3h-8.06l2.85-5.3zm4.81 0h3.9l-1.9 4.4-2-4.4zm5.9 0h3.2l2.3 5.3h-7.9l2.4-5.3zm5.1 0h3.9l-1.9 4.4-2-4.4zm5.9 0h3.3l2.5 5.3h-8.2l2.4-5.3zm-24.1 7.1h8.41l4.6 17.2-13-17.2zm10.3 0h8.7l-4.3 16.5-4.4-16.5zm10.6 0h8.4l-13 17.3 4.6-17.3z" transform="translate(318 457)"/> </g> 
    </symbol>
    <symbol id="email-outline" viewBox="0 0 24 24">
      <path d="M20,4H4A2,2 0 0,0 2,6V18A2,2 0 0,0 4,20H20A2,2 0 0,0 22,18V6A2,2 0 0,0 20,4M20,18H4V8L12,13L20,8V18M20,6L12,11L4,6V6H20V6Z"/>
    </symbol>
    <symbol id="export" viewBox="0 0 48 48">
      <g id="Icon"><g id="g6"><path id="polygon8" d="m40.096 13.783v2.141h5.74l-5.74-2.141zm-32.192 0.014l-5.7324 2.127h5.7324v-2.127z"/><g id="g10"><g id="g12"><path id="path14" d="m11.172 0c-1.417 0-2.5684 1.1475-2.5684 2.5625v13.361h30.791v-5.6758l-10.262-10.248zm16.36 2.3l9.764 9.548h-9.775z"/><g id="g16"><g id="g18"><g id="g20"><clipPath id="SVGID_2_"><use id="use26" overflow="visible" xlink:href="#SVGID_201_"/></clipPath><g id="g28" clip-path="url(#SVGID_2_)"/></g></g></g></g><rect id="rect70" x="3.473" height="40.991" fill="none" width="41.055"/></g><g id="g72"><g id="g74"><g id="g76"><g id="g78"><path id="path80" d="m0.24609 16.623v28.412c0 1.637 1.3287 2.965 2.9687 2.965h41.568c1.64 0 2.971-1.328 2.971-2.965v-28.412h-47.508zm17.816 5.93h11.877c1.093 0 1.979 0.885 1.979 1.976 0 1.092-0.888 1.977-1.98 1.977h-11.876c-1.092 0-1.98-0.885-1.98-1.977 0-1.091 0.888-1.976 1.98-1.976zm9.102 7.533l6.033 6.023-6.033 6.026v-4.067h-11.637v-3.916h11.637v-4.066z"/></g></g><g id="g96"/></g></g><rect id="rect124" width="48" fill="none" height="48"/></g></g>
    </symbol>
    <symbol id="file-chart" viewBox="0 0 24 24">
      <path d="M13,9H18.5L13,3.5V9M6,2H14L20,8V20A2,2 0 0,1 18,22H6C4.89,22 4,21.1 4,20V4C4,2.89 4.89,2 6,2M7,20H9V14H7V20M11,20H13V12H11V20M15,20H17V16H15V20Z"/>
    </symbol>
    <symbol id="github" viewBox="0 0 1792 1792">
      <path d="M1664 896q0 251-146.5 451.5t-378.5 277.5q-27 5-39.5-7t-12.5-30v-211q0-97-52-142 57-6 102.5-18t94-39 81-66.5 53-105 20.5-150.5q0-121-79-206 37-91-8-204-28-9-81 11t-92 44l-38 24q-93-26-192-26t-192 26q-16-11-42.5-27t-83.5-38.5-86-13.5q-44 113-7 204-79 85-79 206 0 85 20.5 150t52.5 105 80.5 67 94 39 102.5 18q-40 36-49 103-21 10-45 15t-57 5-65.5-21.5-55.5-62.5q-19-32-48.5-52t-49.5-24l-20-3q-21 0-29 4.5t-5 11.5 9 14 13 12l7 5q22 10 43.5 38t31.5 51l10 23q13 38 44 61.5t67 30 69.5 7 55.5-3.5l23-4q0 38 .5 89t.5 54q0 18-13 30t-40 7q-232-77-378.5-277.5t-146.5-451.5q0-209 103-385.5t279.5-279.5 385.5-103 385.5 103 279.5 279.5 103 385.5z"/>
    </symbol>
    <symbol id="globe" viewBox="0 0 1792 1792">
      <path d="M896 128q209 0 385.5 103t279.5 279.5 103 385.5-103 385.5-279.5 279.5-385.5 103-385.5-103-279.5-279.5-103-385.5 103-385.5 279.5-279.5 385.5-103zm274 521q-2 1-9.5 9.5t-13.5 9.5q2 0 4.5-5t5-11 3.5-7q6-7 22-15 14-6 52-12 34-8 51 11-2-2 9.5-13t14.5-12q3-2 15-4.5t15-7.5l2-22q-12 1-17.5-7t-6.5-21q0 2-6 8 0-7-4.5-8t-11.5 1-9 1q-10-3-15-7.5t-8-16.5-4-15q-2-5-9.5-10.5t-9.5-10.5q-1-2-2.5-5.5t-3-6.5-4-5.5-5.5-2.5-7 5-7.5 10-4.5 5q-3-2-6-1.5t-4.5 1-4.5 3-5 3.5q-3 2-8.5 3t-8.5 2q15-5-1-11-10-4-16-3 9-4 7.5-12t-8.5-14h5q-1-4-8.5-8.5t-17.5-8.5-13-6q-8-5-34-9.5t-33-.5q-5 6-4.5 10.5t4 14 3.5 12.5q1 6-5.5 13t-6.5 12q0 7 14 15.5t10 21.5q-3 8-16 16t-16 12q-5 8-1.5 18.5t10.5 16.5q2 2 1.5 4t-3.5 4.5-5.5 4-6.5 3.5l-3 2q-11 5-20.5-6t-13.5-26q-7-25-16-30-23-8-29 1-5-13-41-26-25-9-58-4 6-1 0-15-7-15-19-12 3-6 4-17.5t1-13.5q3-13 12-23 1-1 7-8.5t9.5-13.5.5-6q35 4 50-11 5-5 11.5-17t10.5-17q9-6 14-5.5t14.5 5.5 14.5 5q14 1 15.5-11t-7.5-20q12 1 3-17-5-7-8-9-12-4-27 5-8 4 2 8-1-1-9.5 10.5t-16.5 17.5-16-5q-1-1-5.5-13.5t-9.5-13.5q-8 0-16 15 3-8-11-15t-24-8q19-12-8-27-7-4-20.5-5t-19.5 4q-5 7-5.5 11.5t5 8 10.5 5.5 11.5 4 8.5 3q14 10 8 14-2 1-8.5 3.5t-11.5 4.5-6 4q-3 4 0 14t-2 14q-5-5-9-17.5t-7-16.5q7 9-25 6l-10-1q-4 0-16 2t-20.5 1-13.5-8q-4-8 0-20 1-4 4-2-4-3-11-9.5t-10-8.5q-46 15-94 41 6 1 12-1 5-2 13-6.5t10-5.5q34-14 42-7l5-5q14 16 20 25-7-4-30-1-20 6-22 12 7 12 5 18-4-3-11.5-10t-14.5-11-15-5q-16 0-22 1-146 80-235 222 7 7 12 8 4 1 5 9t2.5 11 11.5-3q9 8 3 19 1-1 44 27 19 17 21 21 3 11-10 18-1-2-9-9t-9-4q-3 5 .5 18.5t10.5 12.5q-7 0-9.5 16t-2.5 35.5-1 23.5l2 1q-3 12 5.5 34.5t21.5 19.5q-13 3 20 43 6 8 8 9 3 2 12 7.5t15 10 10 10.5q4 5 10 22.5t14 23.5q-2 6 9.5 20t10.5 23q-1 0-2.5 1t-2.5 1q3 7 15.5 14t15.5 13q1 3 2 10t3 11 8 2q2-20-24-62-15-25-17-29-3-5-5.5-15.5t-4.5-14.5q2 0 6 1.5t8.5 3.5 7.5 4 2 3q-3 7 2 17.5t12 18.5 17 19 12 13q6 6 14 19.5t0 13.5q9 0 20 10t17 20q5 8 8 26t5 24q2 7 8.5 13.5t12.5 9.5l16 8 13 7q5 2 18.5 10.5t21.5 11.5q10 4 16 4t14.5-2.5 13.5-3.5q15-2 29 15t21 21q36 19 55 11-2 1 .5 7.5t8 15.5 9 14.5 5.5 8.5q5 6 18 15t18 15q6-4 7-9-3 8 7 20t18 10q14-3 14-32-31 15-49-18 0-1-2.5-5.5t-4-8.5-2.5-8.5 0-7.5 5-3q9 0 10-3.5t-2-12.5-4-13q-1-8-11-20t-12-15q-5 9-16 8t-16-9q0 1-1.5 5.5t-1.5 6.5q-13 0-15-1 1-3 2.5-17.5t3.5-22.5q1-4 5.5-12t7.5-14.5 4-12.5-4.5-9.5-17.5-2.5q-19 1-26 20-1 3-3 10.5t-5 11.5-9 7q-7 3-24 2t-24-5q-13-8-22.5-29t-9.5-37q0-10 2.5-26.5t3-25-5.5-24.5q3-2 9-9.5t10-10.5q2-1 4.5-1.5t4.5 0 4-1.5 3-6q-1-1-4-3-3-3-4-3 7 3 28.5-1.5t27.5 1.5q15 11 22-2 0-1-2.5-9.5t-.5-13.5q5 27 29 9 3 3 15.5 5t17.5 5q3 2 7 5.5t5.5 4.5 5-.5 8.5-6.5q10 14 12 24 11 40 19 44 7 3 11 2t4.5-9.5 0-14-1.5-12.5l-1-8v-18l-1-8q-15-3-18.5-12t1.5-18.5 15-18.5q1-1 8-3.5t15.5-6.5 12.5-8q21-19 15-35 7 0 11-9-1 0-5-3t-7.5-5-4.5-2q9-5 2-16 5-3 7.5-11t7.5-10q9 12 21 2 7-8 1-16 5-7 20.5-10.5t18.5-9.5q7 2 8-2t1-12 3-12q4-5 15-9t13-5l17-11q3-4 0-4 18 2 31-11 10-11-6-20 3-6-3-9.5t-15-5.5q3-1 11.5-.5t10.5-1.5q15-10-7-16-17-5-43 12zm-163 877q206-36 351-189-3-3-12.5-4.5t-12.5-3.5q-18-7-24-8 1-7-2.5-13t-8-9-12.5-8-11-7q-2-2-7-6t-7-5.5-7.5-4.5-8.5-2-10 1l-3 1q-3 1-5.5 2.5t-5.5 3-4 3 0 2.5q-21-17-36-22-5-1-11-5.5t-10.5-7-10-1.5-11.5 7q-5 5-6 15t-2 13q-7-5 0-17.5t2-18.5q-3-6-10.5-4.5t-12 4.5-11.5 8.5-9 6.5-8.5 5.5-8.5 7.5q-3 4-6 12t-5 11q-2-4-11.5-6.5t-9.5-5.5q2 10 4 35t5 38q7 31-12 48-27 25-29 40-4 22 12 26 0 7-8 20.5t-7 21.5q0 6 2 16z"/>
    </symbol>
    <symbol id="google-circles" viewBox="0 0 24 24">
      <path d="M16.66,15H17C18,15 19,14.8 19.87,14.46C19.17,18.73 15.47,22 11,22C6,22 2,17.97 2,13C2,8.53 5.27,4.83 9.54,4.13C9.2,5 9,6 9,7V7.34C6.68,8.16 5,10.38 5,13A6,6 0 0,0 11,19C13.62,19 15.84,17.32 16.66,15M17,10A3,3 0 0,0 20,7A3,3 0 0,0 17,4A3,3 0 0,0 14,7A3,3 0 0,0 17,10M17,1A6,6 0 0,1 23,7A6,6 0 0,1 17,13A6,6 0 0,1 11,7C11,3.68 13.69,1 17,1Z"/>
    </symbol>
    <symbol id="google-controller" viewBox="0 0 24 24">
      <path d="M7.97,16L5,19C4.67,19.3 4.23,19.5 3.75,19.5A1.75,1.75 0 0,1 2,17.75V17.5L3,10.12C3.21,7.81 5.14,6 7.5,6H16.5C18.86,6 20.79,7.81 21,10.12L22,17.5V17.75A1.75,1.75 0 0,1 20.25,19.5C19.77,19.5 19.33,19.3 19,19L16.03,16H7.97M7,8V10H5V11H7V13H8V11H10V10H8V8H7M16.5,8A0.75,0.75 0 0,0 15.75,8.75A0.75,0.75 0 0,0 16.5,9.5A0.75,0.75 0 0,0 17.25,8.75A0.75,0.75 0 0,0 16.5,8M14.75,9.75A0.75,0.75 0 0,0 14,10.5A0.75,0.75 0 0,0 14.75,11.25A0.75,0.75 0 0,0 15.5,10.5A0.75,0.75 0 0,0 14.75,9.75M18.25,9.75A0.75,0.75 0 0,0 17.5,10.5A0.75,0.75 0 0,0 18.25,11.25A0.75,0.75 0 0,0 19,10.5A0.75,0.75 0 0,0 18.25,9.75M16.5,11.5A0.75,0.75 0 0,0 15.75,12.25A0.75,0.75 0 0,0 16.5,13A0.75,0.75 0 0,0 17.25,12.25A0.75,0.75 0 0,0 16.5,11.5Z"/>
    </symbol>
    <symbol id="hearing" viewBox="0 0 24 24">
       <path d="M17 20c-.29 0-.56-.06-.76-.15-.71-.37-1.21-.88-1.71-2.38-.51-1.56-1.47-2.29-2.39-3-.79-.61-1.61-1.24-2.32-2.53C9.29 10.98 9 9.93 9 9c0-2.8 2.2-5 5-5s5 2.2 5 5h2c0-3.93-3.07-7-7-7S7 5.07 7 9c0 1.26.38 2.65 1.07 3.9.91 1.65 1.98 2.48 2.85 3.15.81.62 1.39 1.07 1.71 2.05.6 1.82 1.37 2.84 2.73 3.55.51.23 1.07.35 1.64.35 2.21 0 4-1.79 4-4h-2c0 1.1-.9 2-2 2zM7.64 2.64L6.22 1.22C4.23 3.21 3 5.96 3 9s1.23 5.79 3.22 7.78l1.41-1.41C6.01 13.74 5 11.49 5 9s1.01-4.74 2.64-6.36zM11.5 9c0 1.38 1.12 2.5 2.5 2.5s2.5-1.12 2.5-2.5-1.12-2.5-2.5-2.5-2.5 1.12-2.5 2.5z"/> <path d="M0 0h24v24H0z" fill="none"/> 
    </symbol>
    <symbol id="hexagon" viewBox="0 0 50.000012 55.00001">
       <path id="path4316" d="m25 55-25-15v-25l25-15 25 15v25l-25 15z" fill-rule="evenodd" stroke-width="0" fill="#55A32A"/> 
    </symbol>
    <symbol id="image-filter-center-focus" viewBox="0 0 24 24">
      <path d="M12,9A3,3 0 0,0 9,12A3,3 0 0,0 12,15A3,3 0 0,0 15,12A3,3 0 0,0 12,9M19,19H15V21H19A2,2 0 0,0 21,19V15H19M19,3H15V5H19V9H21V5A2,2 0 0,0 19,3M5,5H9V3H5A2,2 0 0,0 3,5V9H5M5,15H3V19A2,2 0 0,0 5,21H9V19H5V15Z"/>
    </symbol>
    <symbol id="import" viewBox="0 0 48 48">
      <g id="Icon"><g id="g6"><path id="polygon8" d="m40.096 13.783v2.141h5.74l-5.74-2.141zm-32.192 0.014l-5.7324 2.127h5.7324v-2.127z"/><g id="g10"><g id="g12"><path id="path14" d="m11.172 0c-1.417 0-2.5684 1.1475-2.5684 2.5625v13.361h30.791v-5.6758l-10.262-10.248zm16.36 2.3l9.764 9.548h-9.775z"/><g id="g16"><g id="g18"><g id="g20"><clipPath id="SVGID_2_"><use id="use26" overflow="visible" xlink:href="#SVGID_201_"/></clipPath><g id="g28" clip-path="url(#SVGID_2_)"/></g></g></g></g><rect id="rect70" x="3.473" height="40.991" fill="none" width="41.055"/></g><g id="g72"><g id="g74"><g id="g76"><g id="g78"><path id="path80" d="m0.24609 16.623v28.412c0 1.637 1.3287 2.965 2.9687 2.965h41.568c1.64 0 2.971-1.328 2.971-2.965v-28.412h-47.508zm17.816 5.93h11.877c1.093 0 1.979 0.885 1.979 1.976 0 1.092-0.888 1.977-1.98 1.977h-11.876c-1.092 0-1.98-0.885-1.98-1.977 0-1.091 0.888-1.976 1.98-1.976zm2.573 7.527v4.068h11.636v3.914h-11.636v4.069l-6.035-6.026 6.035-6.025z"/></g></g><g id="g96"/></g></g><rect id="rect124" width="48" fill="none" height="48"/></g></g>
    </symbol>
    <symbol id="info-circle" viewBox="0 0 1792 1792">
      <path d="M1152 1376v-160q0-14-9-23t-23-9h-96v-512q0-14-9-23t-23-9h-320q-14 0-23 9t-9 23v160q0 14 9 23t23 9h96v320h-96q-14 0-23 9t-9 23v160q0 14 9 23t23 9h448q14 0 23-9t9-23zm-128-896v-160q0-14-9-23t-23-9h-192q-14 0-23 9t-9 23v160q0 14 9 23t23 9h192q14 0 23-9t9-23zm640 416q0 209-103 385.5t-279.5 279.5-385.5 103-385.5-103-279.5-279.5-103-385.5 103-385.5 279.5-279.5 385.5-103 385.5 103 279.5 279.5 103 385.5z"/>
    </symbol>
    <symbol id="jigsaw-pieces" viewBox="0 0 100 100">
      <g id="g5493"><g id="g5495"><path d="M83.33,25.78h-6.825c-0.009,0-0.016,0.002-0.022,0.002H52.279v8.13c0.074-0.001,0.147-0.002,0.221-0.002    c6.688,0,12.129,5.441,12.129,12.129c0,6.688-5.44,12.129-12.129,12.129c-0.073,0-0.146,0-0.221-0.002v8.131V66.3h24.214    c0.003,0,0.008,0,0.012,0h6.825c3.616,0,6.575-2.957,6.575-6.574V32.356C89.905,28.739,86.946,25.78,83.33,25.78z" id="path5497" style="fill-opacity:1"/><path d="M62.28,46.039c0-5.401-4.379-9.78-9.78-9.78c-0.891,0-1.75,0.129-2.569,0.353V25.78H23.375c-0.004,0-0.007,0-0.011,0    h-6.826c-3.616,0-6.575,2.958-6.575,6.575v27.368c0,3.618,2.958,6.577,6.575,6.577h6.826c0.007,0,0.015-0.003,0.022-0.003h26.544    V55.468c0.82,0.223,1.679,0.352,2.569,0.352C57.901,55.819,62.28,51.44,62.28,46.039z" id="path5499" style="fill-opacity:1"/></g></g>
    </symbol>
    <symbol id="jigsaw" viewBox="0 0 20 25">
      <path d="M-95.292,21.426c-1.231,1.287-2.958,2.098-4.878,2.098c-3.734,0-6.762-3.027-6.762-6.761s3.027-6.762,6.762-6.762  c1.92,0,3.646,0.811,4.878,2.099h2.233V-6.632h-18.653V-8.36c1.29-1.23,2.099-2.957,2.099-4.878c0-3.734-3.027-6.762-6.762-6.762  s-6.762,3.027-6.762,6.762c0,1.921,0.813,3.647,2.099,4.878v1.729h-18.653v18.653h-1.61c-1.231-1.288-2.958-2.099-4.878-2.099  c-3.734,0-6.762,3.028-6.762,6.761c0,3.734,3.027,6.762,6.762,6.762c1.92,0,3.647-0.809,4.878-2.099h1.61V40h18.792v-2.039  c-1.29-1.23-2.098-2.957-2.098-4.877c0-3.734,3.027-6.762,6.761-6.762s6.762,3.027,6.762,6.762c0,1.92-0.813,3.646-2.098,4.877V40  h18.515V21.426H-95.292z"/><path d="M-45.528,16.617c-0.821,0.858-1.972,1.398-3.252,1.398c-2.49,0-4.508-2.018-4.508-4.507c0-2.49,2.019-4.508,4.508-4.508  c1.28,0,2.431,0.54,3.252,1.399h1.489V-2.088h-12.436V-3.24c0.86-0.82,1.399-1.971,1.399-3.252c0-2.49-2.019-4.508-4.508-4.508  s-4.508,2.018-4.508,4.508c0,1.281,0.542,2.432,1.399,3.252v1.152h-12.436v12.436h-1.074c-0.82-0.858-1.972-1.399-3.252-1.399  c-2.49,0-4.508,2.019-4.508,4.507c0,2.49,2.018,4.508,4.508,4.508c1.28,0,2.432-0.539,3.252-1.399h1.074V29H-62.6v-1.359  c-0.859-0.82-1.398-1.971-1.398-3.251c0-2.489,2.018-4.508,4.507-4.508c2.49,0,4.508,2.019,4.508,4.508  c0,1.28-0.542,2.431-1.398,3.251V29h12.343V16.617H-45.528z"/><path d="M-7.146,16.713c-0.616,0.644-1.479,1.049-2.439,1.049c-1.867,0-3.381-1.514-3.381-3.38c0-1.868,1.514-3.381,3.381-3.381  c0.96,0,1.823,0.405,2.439,1.049h1.117V2.684h-9.327V1.82c0.645-0.615,1.049-1.478,1.049-2.439C-14.307-2.486-15.82-4-17.688-4  s-3.381,1.514-3.381,3.381c0,0.961,0.406,1.824,1.049,2.439v0.864h-9.327v9.327h-0.805c-0.615-0.644-1.479-1.049-2.439-1.049  c-1.867,0-3.381,1.514-3.381,3.38c0,1.867,1.514,3.381,3.381,3.381c0.96,0,1.824-0.404,2.439-1.049h0.805V26h9.396v-1.02  C-20.596,24.365-21,23.501-21,22.542c0-1.867,1.514-3.381,3.381-3.381s3.381,1.514,3.381,3.381c0,0.96-0.406,1.823-1.049,2.438V26  h9.257v-9.287C-6.03,16.713-7.146,16.713-7.146,16.713z"/><path d="M19.236,13.809c-0.41,0.429-0.986,0.699-1.626,0.699c-1.245,0-2.254-1.009-2.254-2.253c0-1.245,1.009-2.254,2.254-2.254  c0.64,0,1.216,0.27,1.626,0.699h0.745V4.456h-6.218V3.88c0.43-0.41,0.7-0.985,0.7-1.626C14.462,1.009,13.453,0,12.208,0  S9.954,1.009,9.954,2.254c0,0.641,0.271,1.216,0.699,1.626v0.576H4.436v6.218H3.899c-0.41-0.429-0.986-0.7-1.626-0.7  c-1.245,0-2.254,1.01-2.254,2.254c0,1.245,1.009,2.254,2.254,2.254c0.64,0,1.216-0.27,1.626-0.7h0.537V20H10.7v-0.68  c-0.43-0.41-0.7-0.986-0.7-1.625c0-1.245,1.009-2.254,2.254-2.254s2.254,1.009,2.254,2.254c0,0.64-0.271,1.215-0.699,1.625V20h6.171  v-6.191H19.236z"/>
    </symbol>
    <symbol id="life-ring" viewBox="0 0 1792 1792">
      <path d="M896 0q182 0 348 71t286 191 191 286 71 348-71 348-191 286-286 191-348 71-348-71-286-191-191-286-71-348 71-348 191-286 286-191 348-71zm0 128q-190 0-361 90l194 194q82-28 167-28t167 28l194-194q-171-90-361-90zm-678 1129l194-194q-28-82-28-167t28-167l-194-194q-90 171-90 361t90 361zm678 407q190 0 361-90l-194-194q-82 28-167 28t-167-28l-194 194q171 90 361 90zm0-384q159 0 271.5-112.5t112.5-271.5-112.5-271.5-271.5-112.5-271.5 112.5-112.5 271.5 112.5 271.5 271.5 112.5zm484-217l194 194q90-171 90-361t-90-361l-194 194q28 82 28 167t-28 167z"/>
    </symbol>
    <symbol id="line-chart" viewBox="0 0 1792 1792">
      <path d="M1920 1536v128h-2048v-1536h128v1408h1920zm-128-1248v435q0 21-19.5 29.5t-35.5-7.5l-121-121-633 633q-10 10-23 10t-23-10l-233-233-416 416-192-192 585-585q10-10 23-10t23 10l233 233 464-464-121-121q-16-16-7.5-35.5t29.5-19.5h435q14 0 23 9t9 23z"/>
    </symbol>
    <symbol id="logo" viewBox="0 0 30.00001 60.000014">
       <g id="g4277" fill-rule="evenodd" stroke-width=".1"> <path id="path3437" d="m15 40 15 10v-20l-15-10z" stroke="#4c9225" fill="#4c9225"/> <path id="path3441" d="m15 40-15 10v-20l15-10z" stroke="#539f29" fill="#539f29"/> <path id="path4243" d="m0.000005 50 15 10v-20l-15-10z" stroke="#4c9225" fill="#4c9225"/> <path id="path4245" d="m15 60 15-10v-20l-15 10v20z" stroke="#55a32a" fill="#55a32a"/> <path id="path4247" d="m0.000005 30 15-10v-20l-15 10z" stroke="#55a32a" fill="#55a32a"/> </g> 
    </symbol>
    <symbol id="magnify-alt" viewBox="0 0 42.548092 42.534962">
       <g id="layer1" transform="translate(-907 -865)"> <path id="path6726" style="color-rendering:auto;text-decoration-color:#000000;color:#000000;isolation:auto;mix-blend-mode:normal;shape-rendering:auto;solid-color:#000000;block-progression:tb;text-decoration-line:none;text-decoration-style:solid;image-rendering:auto;white-space:normal;text-indent:0;text-transform:none" d="m17.6 0c-9.69 0-17.6 7.91-17.6 17.6 0 9.8 7.91 17.7 17.6 17.7 3.6 0 6.9-1.1 9.6-2.9l9.9 9.9a0.9 0.9 0 0 0 1.2 0l4-4a0.9 0.9 0 0 0 0 -1.2l-9.9-9.9c1.8-2.7 2.9-6 2.9-9.6 0-9.69-7.9-17.6-17.7-17.6zm0 1.8c8.8 0 15.9 7.08 15.9 15.8 0 8.8-7.1 15.9-15.9 15.9-8.72 0-15.8-7.1-15.8-15.9 0-8.72 7.08-15.8 15.8-15.8zm-0.1 2.94a0.9 0.9 0 0 0 0 1.8c6.2 0 11.2 5.06 11.2 11.3a0.9 0.9 0 1 0 1.8 0c0-7.2-5.8-13.1-13-13.1zm14.1 24.2l8.8 8.8-2.7 2.7-8.8-8.9 2.7-2.6z" transform="translate(907 865)"/> </g> 
    </symbol>
    <symbol id="magnify" viewBox="0 0 24 24">
      <path d="M9.5,3A6.5,6.5 0 0,1 16,9.5C16,11.11 15.41,12.59 14.44,13.73L14.71,14H15.5L20.5,19L19,20.5L14,15.5V14.71L13.73,14.44C12.59,15.41 11.11,16 9.5,16A6.5,6.5 0 0,1 3,9.5A6.5,6.5 0 0,1 9.5,3M9.5,5C7,5 5,7 5,9.5C5,12 7,14 9.5,14C12,14 14,12 14,9.5C14,7 12,5 9.5,5Z"/>
    </symbol>
    <symbol id="marketplace" viewBox="0 0 42.902501 42.902497">
       <g id="layer1" transform="translate(-370 -468)"> <path id="path6614" style="color-rendering:auto;text-decoration-color:#000000;color:#000000;isolation:auto;mix-blend-mode:normal;shape-rendering:auto;solid-color:#000000;block-progression:tb;text-decoration-line:none;text-decoration-style:solid;image-rendering:auto;white-space:normal;text-indent:0;text-transform:none" d="m5.56 2.64c-0.39 0.01-0.67 0.19-0.83 0.55l-4.58 10.7c-0.032 0-0.0518 0.1-0.0641 0.2-0.0576 0.3-0.0859 0.6-0.0859 0.9 0 3.01 2.46 5.47 5.48 5.47 1.64 0 2.99-0.847 3.99-2 1.01 1.15 2.36 2 4 2s2.99-0.847 3.99-2c1 1.15 2.35 2 3.99 2s2.99-0.847 4-2c1 1.15 2.35 2 3.99 2s2.99-0.847 3.99-2c1.01 1.15 2.36 2 4 2 3.01 0 5.47-2.46 5.47-5.47 0-0.328-0.0266-0.651-0.082-0.965-0.0126-0.0679-0.0329-0.134-0.0606-0.197l-4.6-10.6c-0.2-0.34-0.5-0.56-0.9-0.56zm0.594 1.8h4.32l-1.96 12.3c-0.0192 0.106-0.0192 0.214 0 0.32-0.659 0.976-1.76 1.62-3.04 1.62-2.04 0-3.68-1.64-3.68-3.68 0-0.199 0.0211-0.389 0.0508-0.574zm6.14 0h4.83c-0.219 4.14-0.437 8.28-0.656 12.4-0.0049 0.0852 0.0023 0.171 0.0215 0.254-0.661 0.961-1.76 1.6-3.02 1.6-1.35 0-2.51-0.722-3.15-1.79zm6.63 0h4.84c0.221 4.17 0.441 8.35 0.662 12.5-0.559 1.04-1.98 1.74-2.97 1.75-1.37 0-2.55-0.747-3.18-1.85 0.219-4.14 0.435-8.28 0.654-12.4zm6.64 0h4.83l2 12.6c0.006 0.0436 0.0151 0.0867 0.0273 0.129-0.666 0.926-1.74 1.53-2.98 1.53-1.39 0-2.58-0.762-3.21-1.88-0.1-4.3-0.3-8.67-0.5-12.4zm6.65 0h4.54l4.3 10c0.0289 0.186 0.0508 0.376 0.0508 0.574 0 2.04-1.63 3.68-3.67 3.68-1.39 0-2.58-0.762-3.21-1.88-0.0167-0.029-0.0349-0.057-0.0547-0.084zm-26.9 18.2c-0.497 0.0073-0.894 0.417-0.887 0.914v14.9h-3.41c-1.2 0-1.2 1.8 0 1.8h41c1.2 0 1.2-1.8 0-1.8h-3.41v-14.9c0.008-0.508-0.406-0.922-0.914-0.914-0.497 0.0073-0.894 0.417-0.887 0.914v14.9h-20.5v-14.9c0.008-0.508-0.406-0.922-0.914-0.914-0.497 0.0084-0.893 0.417-0.885 0.914v14.9h-8.31v-14.9c0.00792-0.507-0.405-0.921-0.912-0.914zm27.6 0.9c-0.233 0.0086-0.454 0.107-0.615 0.275l-9.24 9.37c-0.84 0.854 0.437 2.12 1.28 1.27l9.24-9.37c0.6-0.6 0.2-1.6-0.7-1.6zm-20.9 4.2c-0.497 0.0084-0.893 0.417-0.885 0.914v2.98c-0.0483 1.25 1.85 1.25 1.8 0v-2.98c0-0.4-0.4-0.9-0.9-0.9zm21.2 1.36c-0.234 0.0087-0.455 0.108-0.617 0.277l-6.25 6.34c-0.887 0.854 0.439 2.16 1.28 1.26l6.25-6.34c0.585-0.576 0.157-1.57-0.664-1.54z" transform="translate(370 468)"/> </g> 
    </symbol>
    <symbol id="newspaper" viewBox="0 0 24 24">
      <path d="M20,11H4V8H20M20,13H13V12H20M20,15H13V14H20M20,17H13V16H20M20,19H13V18H20M12,19H4V12H12M20.33,4.67L18.67,3L17,4.67L15.33,3L13.67,4.67L12,3L10.33,4.67L8.67,3L7,4.67L5.33,3L3.67,4.67L2,3V19A2,2 0 0,0 4,21H20A2,2 0 0,0 22,19V3L20.33,4.67Z"/>
    </symbol>
    <symbol id="order" viewBox="0 0 36 40">
      <g><path d="M22.47 6h-6.53v2H22v30H2V8h6V6H1.53C.68 6 0 6.68 0 7.53v30.94C0 39.32.68 40 1.53 40h20.94c.85 0 1.53-.68 1.53-1.53V7.53C24 6.68 23.32 6 22.47 6z"/><path d="M13.45 0h-2.96C9.12 0 8 1.12 8 2.49v8.02C8 11.88 9.12 13 10.49 13h2.96c1.37 0 2.49-1.12 2.49-2.49V2.49c0-1.37-1.12-2.49-2.49-2.49zM14 10.51c-.06.27-.28.49-.55.49h-2.96c-.27 0-.49-.22-.49-.49V2.49c0-.27.22-.49.49-.49h2.96c.27 0 .49.22.55.49v8.02zM20 19c0 .55-.45 1-1 1h-9c-.55 0-1-.45-1-1s.45-1 1-1h9c.55 0 1 .45 1 1zm0 6c0 .55-.45 1-1 1h-9c-.55 0-1-.45-1-1s.45-1 1-1h9c.55 0 1 .45 1 1zm0 6c0 .55-.45 1-1 1h-9c-.55 0-1-.45-1-1s.45-1 1-1h9c.55 0 1 .45 1 1zM8 31c0 1.1-.9 2-2 2s-2-.9-2-2 .9-2 2-2 2 .9 2 2zm0-6c0 1.1-.9 2-2 2s-2-.9-2-2 .9-2 2-2 2 .9 2 2zm0-6c0 1.1-.9 2-2 2s-2-.9-2-2 .9-2 2-2 2 .9 2 2zm24.68 12.39c-.26.37-.69.61-1.18.61H30c.74 0 1.38.72 1.48 1.62-.54.44-1.03.98-1.48 1.6-.45-.62-.94-1.16-1.48-1.6.1-.9.74-1.62 1.48-1.62h-1.5c-.49 0-.92-.24-1.18-.61-.51.67-.82 1.55-.82 2.5 0 .19.01.38.04.55.01.09.02.18.04.27 1.18.67 2 1.85 2.54 2.93.63 1.25.88 2.36.88 2.36s.25-1.11.88-2.36c.54-1.08 1.36-2.26 2.54-2.93.02-.09.03-.18.04-.27.03-.17.04-.36.04-.55 0-.95-.31-1.83-.82-2.5zM31.5 2h-3c-.83 0-1.5.7-1.5 1.55V6h2V4h2v2h2V3.55C33 2.7 32.33 2 31.5 2zM33 8v22.45c0 .35-.11.68-.32.94-.26.37-.69.61-1.18.61h-3c-.49 0-.92-.24-1.18-.61-.21-.26-.32-.59-.32-.94V8h2v22h2V8h2z"/><path d="M36 8.49V18c0 .55-.45 1-1 1s-1-.45-1-1V8.49c0-.27-.22-.49-.49-.49H27c-.55 0-1-.45-1-1s.45-1 1-1h6.51C34.88 6 36 7.12 36 8.49z"/></g>
    </symbol>
    <symbol id="package-variant-closed" viewBox="0 0 24 24">
      <path d="M21,16.5C21,16.88 20.79,17.21 20.47,17.38L12.57,21.82C12.41,21.94 12.21,22 12,22C11.79,22 11.59,21.94 11.43,21.82L3.53,17.38C3.21,17.21 3,16.88 3,16.5V7.5C3,7.12 3.21,6.79 3.53,6.62L11.43,2.18C11.59,2.06 11.79,2 12,2C12.21,2 12.41,2.06 12.57,2.18L20.47,6.62C20.79,6.79 21,7.12 21,7.5V16.5M12,4.15L10.11,5.22L16,8.61L17.96,7.5L12,4.15M6.04,7.5L12,10.85L13.96,9.75L8.08,6.35L6.04,7.5M5,15.91L11,19.29V12.58L5,9.21V15.91M19,15.91V9.21L13,12.58V19.29L19,15.91Z"/>
    </symbol>
    <symbol id="radio-tower" viewBox="0 0 24 24">
      <path d="M12,10A2,2 0 0,1 14,12C14,12.5 13.82,12.94 13.53,13.29L16.7,22H14.57L12,14.93L9.43,22H7.3L10.47,13.29C10.18,12.94 10,12.5 10,12A2,2 0 0,1 12,10M12,8A4,4 0 0,0 8,12C8,12.5 8.1,13 8.28,13.46L7.4,15.86C6.53,14.81 6,13.47 6,12A6,6 0 0,1 12,6A6,6 0 0,1 18,12C18,13.47 17.47,14.81 16.6,15.86L15.72,13.46C15.9,13 16,12.5 16,12A4,4 0 0,0 12,8M12,4A8,8 0 0,0 4,12C4,14.36 5,16.5 6.64,17.94L5.92,19.94C3.54,18.11 2,15.23 2,12A10,10 0 0,1 12,2A10,10 0 0,1 22,12C22,15.23 20.46,18.11 18.08,19.94L17.36,17.94C19,16.5 20,14.36 20,12A8,8 0 0,0 12,4Z"/>
    </symbol>
    <symbol id="rocket" viewBox="0 0 1792 1792">
      <path d="M1504 448q0-40-28-68t-68-28-68 28-28 68 28 68 68 28 68-28 28-68zm224-288q0 249-75.5 430.5t-253.5 360.5q-81 80-195 176l-20 379q-2 16-16 26l-384 224q-7 4-16 4-12 0-23-9l-64-64q-13-14-8-32l85-276-281-281-276 85q-3 1-9 1-14 0-23-9l-64-64q-17-19-5-39l224-384q10-14 26-16l379-20q96-114 176-195 188-187 358-258t431-71q14 0 24 9.5t10 22.5z"/>
    </symbol>
    <symbol id="safe" viewBox="0 0 51.490502 51.479899">
       <g id="layer1" transform="translate(-263 -315)"> <path id="path186" style="color-rendering:auto;text-decoration-color:#000000;color:#000000;isolation:auto;mix-blend-mode:normal;shape-rendering:auto;solid-color:#000000;block-progression:tb;text-decoration-line:none;image-rendering:auto;white-space:normal;text-indent:0;text-transform:none;text-decoration-style:solid" transform="translate(267,319)" d="m6.2 0c-3.41 0-6.2 2.8-6.2 6.2v30.5c0 3.41 2.79 6.2 6.2 6.2h30.5c3.41 0 6.21-2.8 6.21-6.2v-30.5c0-3.4-2.8-6.2-6.2-6.2h-30.5zm0 1.8h30.5c2.43 0 4.4 1.98 4.4 4.4v30.5c0 2.43-1.98 4.4-4.4 4.4h-30.5c-2.43 0-4.4-2-4.4-4.4v-30.5c0-2.43 1.98-4.4 4.4-4.4zm1.46 2.74c-1.71 0-3.12 1.41-3.12 3.12v27.6c0 1.71 1.41 3.12 3.12 3.12h27.6c1.71 0 3.12-1.41 3.12-3.12v-2.43h0.555c0.483 0 0.801-0.318 0.947-0.564 0.146-0.247 0.199-0.492 0.199-0.752v-5.17c0-0.26-0.0528-0.505-0.199-0.752s-0.464-0.564-0.947-0.564h-0.555v-7.11h0.555c0.483 0 0.801-0.316 0.947-0.562 0.146-0.247 0.199-0.494 0.199-0.754v-5.17c0-0.26-0.0529-0.505-0.199-0.752s-0.464-0.564-0.947-0.564h-0.555v-2.43c0-1.71-1.41-3.12-3.12-3.12h-27.6zm0 1.8h27.6c0.729 0 1.32 0.589 1.32 1.32v2.43h-0.703c-0.483 0-0.804 0.319-0.949 0.566-0.146 0.247-0.195 0.491-0.195 0.75v5.17c0 0.259 0.0498 0.503 0.195 0.75 0.146 0.247 0.466 0.566 0.949 0.566h0.703v7.11h-0.703c-0.483 0-0.804 0.319-0.949 0.566-0.146 0.247-0.195 0.491-0.195 0.75v5.17c0 0.259 0.0498 0.503 0.195 0.75 0.146 0.247 0.466 0.566 0.949 0.566h0.703v2.43c0 0.729-0.589 1.32-1.32 1.32h-27.6c-0.729 0-1.32-0.589-1.32-1.32v-27.6c0-0.73 0.587-1.32 1.32-1.32zm13.7 5.06a0.9 0.9 0 0 0 -0.188 0.0215c-2.62 0.0522-5 1.11-6.77 2.8a0.9 0.9 0 0 0 -0.301 0.303c-1.74 1.81-2.81 4.26-2.81 6.96 0 2.68 1.06 5.11 2.77 6.92a0.9 0.9 0 0 0 0.391 0.389c1.74 1.65 4.06 2.68 6.62 2.75a0.9 0.9 0 0 0 0.582 0c2.57-0.0734 4.89-1.11 6.63-2.76a0.9 0.9 0 0 0 0.381 -0.381c1.7-1.79 2.75-4.19 2.77-6.84a0.9 0.9 0 0 0 -0.002 -0.201c0-2.7-1.1-5.1-2.8-6.9a0.9 0.9 0 0 0 -0.3 -0.3c-1.8-1.7-4.1-2.8-6.8-2.8a0.9 0.9 0 0 0 -0.2 0zm15.1 0.531h1.75v4.2h-1.75v-4.2zm-16 1.33v1.25a0.9 0.9 0 1 0 1.8 0v-1.25c1.61 0.173 3.09 0.808 4.28 1.77l-0.885 0.885a0.9 0.9 0 1 0 1.27 1.27l0.885-0.885c0.962 1.2 1.6 2.67 1.77 4.28h-1.25a0.9 0.9 0 1 0 0 1.8h1.25c-0.174 1.61-0.81 3.09-1.77 4.28l-0.8-0.9a0.9 0.9 0 0 0 -0.645 -0.273 0.9 0.9 0 0 0 -0.629 1.54l0.885 0.885c-1.2 0.962-2.67 1.6-4.28 1.77v-1.25a0.9 0.9 0 0 0 -0.912 -0.912 0.9 0.9 0 0 0 -0.887 0.912v1.25c-1.6-0.3-3-0.9-4.2-1.9l0.9-1a0.9 0.9 0 0 0 -0.7 -1.5 0.9 0.9 0 0 0 -0.6 0.3l-0.883 0.883c-1-1.3-1.6-2.7-1.8-4.3h1.25a0.9 0.9 0 0 0 0 -1.8h-1.25c0.174-1.61 0.812-3.08 1.77-4.28l0.883 0.883a0.9 0.9 0 1 0 1.27 -1.27l-0.883-0.883c1.2-0.962 2.67-1.6 4.28-1.77zm0.9 2.47c-3.17 0-5.76 2.59-5.76 5.76s2.59 5.76 5.76 5.76 5.76-2.59 5.76-5.76-2.59-5.76-5.76-5.76zm0 1.8c2.2 0 3.96 1.76 3.96 3.96s-1.76 3.96-3.96 3.96-3.96-1.76-3.96-3.96 1.76-3.96 3.96-3.96zm15.1 9.32h1.75v4.2h-1.75v-4.2z"/> </g> 
    </symbol>
    <symbol id="sale" viewBox="0 0 24 24">
      <path d="M18.65,2.85L19.26,6.71L22.77,8.5L21,12L22.78,15.5L19.24,17.29L18.63,21.15L14.74,20.54L11.97,23.3L9.19,20.5L5.33,21.14L4.71,17.25L1.22,15.47L3,11.97L1.23,8.5L4.74,6.69L5.35,2.86L9.22,3.5L12,0.69L14.77,3.46L18.65,2.85M9.5,7A1.5,1.5 0 0,0 8,8.5A1.5,1.5 0 0,0 9.5,10A1.5,1.5 0 0,0 11,8.5A1.5,1.5 0 0,0 9.5,7M14.5,14A1.5,1.5 0 0,0 13,15.5A1.5,1.5 0 0,0 14.5,17A1.5,1.5 0 0,0 16,15.5A1.5,1.5 0 0,0 14.5,14M8.41,17L17,8.41L15.59,7L7,15.59L8.41,17Z"/>
    </symbol>
    <symbol id="support" viewBox="0 0 42.902342 42.837888">
       <g id="layer1" transform="translate(-401 -525)"> <path id="path6738" style="color-rendering:auto;text-decoration-color:#000000;color:#000000;isolation:auto;mix-blend-mode:normal;shape-rendering:auto;solid-color:#000000;block-progression:tb;text-decoration-line:none;text-decoration-style:solid;image-rendering:auto;white-space:normal;text-indent:0;text-transform:none" d="m24.8 4.28c-3.79 0-7.49 1.89-9.95 4.35-1.95 1.95-3.52 4.67-4.1 7.61-3.7 0.374-6.55 3.68-6.55 7.63 0 4.01 2.93 7.36 6.71 7.65a0.9 0.9 0 0 0 0.643 -0.199 0.9 0.9 0 0 0 0.742 -0.885v-11.9c0-0.167 0.0221-0.336 0.0312-0.504 3.66-1.02 6.73-3.39 8.73-6.52 2.7 2.42 6.23 3.95 10.1 3.95 2.43 0 4.72-0.571 6.76-1.58 0.671 1.49 1.08 3.1 1.08 4.66v11.9c0 3.18-1.72 6.94-3.82 9.04-1.46 1.46-3.67 2.35-5.97 2.8-0.467-1.55-1.9-2.7-3.6-2.7-2.07 0-3.77 1.7-3.77 3.77s1.7 3.77 3.77 3.77c1.82 0 3.35-1.31 3.7-3.03 2.61-0.472 5.25-1.45 7.14-3.34 2.27-2.27 3.99-5.8 4.29-9.28 3.59-0.484 6.32-3.73 6.32-7.6 0-3.94-2.83-7.23-6.51-7.63-0.5-3-2.1-5.7-4.1-7.67-2.4-2.46-6.1-4.35-9.9-4.35h-1.74zm0 1.8h1.74c3.18 0 6.54 1.69 8.68 3.82 0.694 0.695 1.33 1.53 1.89 2.43-1.78 0.875-3.79 1.37-5.91 1.37-3.8 0-7.22-1.57-9.66-4.1a0.9 0.9 0 0 0 -0.6 -0.27 0.9 0.9 0 0 0 -0.8 0.47c-1.6 2.9-4.2 5.2-7.4 6.3 0.6-2.3 1.9-4.6 3.5-6.2 2.1-2.13 5.5-3.82 8.6-3.82zm16.1 12c2.53 0.483 4.49 2.86 4.49 5.78 0 2.91-1.95 5.28-4.46 5.77v-11.1c0-0.166-0.0221-0.33-0.0293-0.496zm-30.3 0.002a0.9 0.9 0 0 0 0.041 0.0391c-0.006 0.152-0.0273 0.303-0.0273 0.455v11.1c-2.53-0.479-4.5-2.85-4.5-5.78 0-2.92 1.96-5.29 4.49-5.78zm10.2 1.99c-0.992 0-1.82 0.825-1.82 1.82 0 0.994 0.824 1.82 1.82 1.82 0.992 0 1.82-0.823 1.82-1.82 0-0.994-0.828-1.82-1.82-1.82zm9.9 0c-0.992 0-1.82 0.825-1.82 1.82 0 0.994 0.824 1.82 1.82 1.82 0.992 0 1.82-0.824 1.82-1.82 0-0.992-0.826-1.82-1.82-1.82zm-9.9 1.8c0.0228 0 0.0195-0.004 0.0195 0.0176 0 0.0189 0.003 0.0156-0.0195 0.0156-0.0203 0-0.0176 0.003-0.0176-0.0156 0-0.0213-0.003-0.0176 0.0176-0.0176zm9.9 0c0.0228 0 0.0176-0.005 0.0176 0.0176 0 0.0203 0.005 0.0156-0.0176 0.0156-0.0203 0-0.0156 0.003-0.0156-0.0156 0-0.0213-0.005-0.0176 0.0156-0.0176zm0.473 6.88a0.9 0.9 0 0 0 -0.836 0.67c-0.426 1.51-2.27 2.84-4.61 2.84s-4.18-1.32-4.61-2.84a0.9 0.9 0 0 0 -0.861 -0.668 0.9 0.9 0 0 0 -0.873 1.16c0.699 2.49 3.33 4.15 6.34 4.15s5.64-1.66 6.34-4.15a0.9 0.9 0 0 0 -0.896 -1.16zm-5.44 12.6c1.1 0 1.97 0.874 1.97 1.97s-0.871 1.97-1.97 1.97-1.97-0.872-1.97-1.97 0.871-1.97 1.97-1.97z" transform="translate(397 521)"/> </g> 
    </symbol>
    <symbol id="tachometer" viewBox="0 0 1792 1792">
      <path d="M384 1152q0-53-37.5-90.5t-90.5-37.5-90.5 37.5-37.5 90.5 37.5 90.5 90.5 37.5 90.5-37.5 37.5-90.5zm192-448q0-53-37.5-90.5t-90.5-37.5-90.5 37.5-37.5 90.5 37.5 90.5 90.5 37.5 90.5-37.5 37.5-90.5zm428 481l101-382q6-26-7.5-48.5t-38.5-29.5-48 6.5-30 39.5l-101 382q-60 5-107 43.5t-63 98.5q-20 77 20 146t117 89 146-20 89-117q16-60-6-117t-72-91zm660-33q0-53-37.5-90.5t-90.5-37.5-90.5 37.5-37.5 90.5 37.5 90.5 90.5 37.5 90.5-37.5 37.5-90.5zm-640-640q0-53-37.5-90.5t-90.5-37.5-90.5 37.5-37.5 90.5 37.5 90.5 90.5 37.5 90.5-37.5 37.5-90.5zm448 192q0-53-37.5-90.5t-90.5-37.5-90.5 37.5-37.5 90.5 37.5 90.5 90.5 37.5 90.5-37.5 37.5-90.5zm320 448q0 261-141 483-19 29-54 29h-1402q-35 0-54-29-141-221-141-483 0-182 71-348t191-286 286-191 348-71 348 71 286 191 191 286 71 348z"/>
    </symbol>
    <symbol id="timer" viewBox="0 0 24 24">
       <path d="M0 0h24v24H0z" fill="none"/> <path d="M11 17c0 .55.45 1 1 1s1-.45 1-1-.45-1-1-1-1 .45-1 1zm0-14v4h2V5.08c3.39.49 6 3.39 6 6.92 0 3.87-3.13 7-7 7s-7-3.13-7-7c0-1.68.59-3.22 1.58-4.42L12 13l1.41-1.41-6.8-6.8v.02C4.42 6.45 3 9.05 3 12c0 4.97 4.02 9 9 9 4.97 0 9-4.03 9-9s-4.03-9-9-9h-1zm7 9c0-.55-.45-1-1-1s-1 .45-1 1 .45 1 1 1 1-.45 1-1zM6 12c0 .55.45 1 1 1s1-.45 1-1-.45-1-1-1-1 .45-1 1z"/> 
    </symbol>
    <symbol id="toolkit" viewBox="0 0 65 65">
       <g id="g4262" transform="translate(0 65) scale(0.1 -0.1)"> <path id="path4264" d="m87 644c-4-4 6-22 23-39 26-27 29-35 21-57-15-40-50-43-87-7-35 34-49 27-39-21 9-42 58-80 103-80 35 0 50-13 254-217l218-218 32 33 33 32-218 218c-205 205-217 219-217 254 0 27-8 46-27 68-28 30-81 49-96 34z"/> <path id="path4266" d="m120 185l-104-105 34-35 34-35 108 107 108 107-32 33c-18 18-34 33-38 33-3 0-52-47-110-105z"/> </g> <path id="path4204" d="m37.422 24.886 2.9277 2.8031 10.839-11.524 4.3604-1.3081 7.5996-9.0946-4.049-3.9867-9.0946 7.5996-1.1213 4.1735z" fill-rule="evenodd"/> 
    </symbol>
    <symbol id="view-dashboard" viewBox="0 0 24 24">
      <path d="M13,3V9H21V3M13,21H21V11H13M3,21H11V15H3M3,13H11V3H3V13Z"/>
    </symbol>
    <symbol id="xml" viewBox="0 0 24 24">
      <path d="M12.89,3L14.85,3.4L11.11,21L9.15,20.6L12.89,3M19.59,12L16,8.41V5.58L22.42,12L16,18.41V15.58L19.59,12M1.58,12L8,5.58V8.41L4.41,12L8,15.58V18.41L1.58,12Z"/>
    </symbol></svg>