<svg xmlns="http://www.w3.org/2000/svg" style="width:0; height:0; visibility:hidden;">
  <defs>
      <path id="SVGID_201_" d="m29.133 0h-17.962c-1.417 0-2.567 1.147-2.567 2.562v35.868c0 1.415 1.149 2.562 2.566 2.562h25.66c1.418 0 2.565-1.147 2.565-2.562v-28.182l-10.262-10.248z"/>
<path id="SVGID_201_" d="m29.133 0h-17.962c-1.417 0-2.567 1.147-2.567 2.562v35.868c0 1.415 1.149 2.562 2.566 2.562h25.66c1.418 0 2.565-1.147 2.565-2.562v-28.182l-10.262-10.248z"/>
  </defs>
    <symbol id="accessibility" viewBox="0 0 24 24">
       <path d="M0 0h24v24H0z" fill="none"/> <path d="M12 2c1.1 0 2 .9 2 2s-.9 2-2 2-2-.9-2-2 .9-2 2-2zm9 7h-6v13h-2v-6h-2v6H9V9H3V7h18v2z"/> 
    </symbol>
    <symbol id="bars" viewBox="0 0 1792 1792">
      <path d="M1664 1344v128q0 26-19 45t-45 19h-1408q-26 0-45-19t-19-45v-128q0-26 19-45t45-19h1408q26 0 45 19t19 45zm0-512v128q0 26-19 45t-45 19h-1408q-26 0-45-19t-19-45v-128q0-26 19-45t45-19h1408q26 0 45 19t19 45zm0-512v128q0 26-19 45t-45 19h-1408q-26 0-45-19t-19-45v-128q0-26 19-45t45-19h1408q26 0 45 19t19 45z"/>
    </symbol>
    <symbol id="bullhorn" viewBox="0 0 1792 1792">
      <path d="M1664 640q53 0 90.5 37.5t37.5 90.5-37.5 90.5-90.5 37.5v384q0 52-38 90t-90 38q-417-347-812-380-58 19-91 66t-31 100.5 40 92.5q-20 33-23 65.5t6 58 33.5 55 48 50 61.5 50.5q-29 58-111.5 83t-168.5 11.5-132-55.5q-7-23-29.5-87.5t-32-94.5-23-89-15-101 3.5-98.5 22-110.5h-122q-66 0-113-47t-47-113v-192q0-66 47-113t113-47h480q435 0 896-384 52 0 90 38t38 90v384zm-128 604v-954q-394 302-768 343v270q377 42 768 341z"/>
    </symbol>
    <symbol id="camcorder" viewBox="0 0 24 24">
      <path d="M17,10.5V7A1,1 0 0,0 16,6H4A1,1 0 0,0 3,7V17A1,1 0 0,0 4,18H16A1,1 0 0,0 17,17V13.5L21,17.5V6.5L17,10.5Z"/>
    </symbol>
    <symbol id="cloud-outline" viewBox="0 0 24 24">
      <path d="M19,18H6A4,4 0 0,1 2,14A4,4 0 0,1 6,10H6.71C7.37,7.69 9.5,6 12,6A5.5,5.5 0 0,1 17.5,11.5V12H19A3,3 0 0,1 22,15A3,3 0 0,1 19,18M19.35,10.03C18.67,6.59 15.64,4 12,4C9.11,4 6.6,5.64 5.35,8.03C2.34,8.36 0,10.9 0,14A6,6 0 0,0 6,20H19A5,5 0 0,0 24,15C24,12.36 21.95,10.22 19.35,10.03Z"/>
    </symbol>
    <symbol id="devices" viewBox="0 0 48 48">
      <g id="Icon"><g id="g6"><path id="rect8" d="m3.5469 6.9824v28.752h-3.5508v1.5957c0 0.88858 0.71483 1.6306 1.5977 1.6094h32.156v-5.166h-28.285v-24.873h37.074v10.1h1.918v-12.018zm25.91 28.76c-0.27488 0.63872-0.90661 1.0859-1.6426 1.0859h-7.6934c-0.73401 0-1.3622-0.4466-1.6387-1.084z"/><g id="g16"><g id="g18"><g id="g20"><path id="path22" d="m35.574 19.262c-0.872 0-1.578 0.707-1.578 1.576v19.623c0 0.872 0.706 1.576 1.578 1.576h10.85c0.869 0 1.576-0.704 1.576-1.576v-19.623c0-0.87-0.707-1.576-1.576-1.576h-10.85zm-0.027 1.55h10.916v18.174h-10.916v-18.174zm5.457 18.86a0.788 0.788 0 0 1 0.789 0.789 0.788 0.788 0 0 1 -0.789 0.787 0.788 0.788 0 0 1 -0.787 -0.787 0.788 0.788 0 0 1 0.787 -0.789z"/></g></g></g><rect id="rect64" height="48" width="47.996" fill="none" x=".004"/></g></g>
    </symbol>
    <symbol id="diamond" viewBox="0 0 2048.1333 2048.1333">
       <path id="path44537" d="m212.07 1024.1 623 665-300-665h-323zm812 772 349-772h-698zm-486-900 204-384h-262l-288 384h346zm675 793 623-665h-323zm-530-793h682l-204-384h-274zm827 0h346l-288-384h-262zm141-486 384 512q14 18 13 41.5t-17 40.5l-960 1024q-18 20-47 20t-47-20l-960-1024q-16.033-16.97-17.033-40.47t13-41.5l384-512q18-26 51-26h1152q33 0 51 26z"/> 
    </symbol>
    <symbol id="email-outline" viewBox="0 0 24 24">
      <path d="M20,4H4A2,2 0 0,0 2,6V18A2,2 0 0,0 4,20H20A2,2 0 0,0 22,18V6A2,2 0 0,0 20,4M20,18H4V8L12,13L20,8V18M20,6L12,11L4,6V6H20V6Z"/>
    </symbol>
    <symbol id="export" viewBox="0 0 48 48">
      <g id="Icon"><g id="g6"><path id="polygon8" d="m40.096 13.783v2.141h5.74l-5.74-2.141zm-32.192 0.014l-5.7324 2.127h5.7324v-2.127z"/><g id="g10"><g id="g12"><path id="path14" d="m11.172 0c-1.417 0-2.5684 1.1475-2.5684 2.5625v13.361h30.791v-5.6758l-10.262-10.248zm16.36 2.3l9.764 9.548h-9.775z"/><g id="g16"><g id="g18"><g id="g20"><clipPath id="SVGID_2_"><use id="use26" overflow="visible" xlink:href="#SVGID_201_"/></clipPath><g id="g28" clip-path="url(#SVGID_2_)"/></g></g></g></g><rect id="rect70" x="3.473" height="40.991" fill="none" width="41.055"/></g><g id="g72"><g id="g74"><g id="g76"><g id="g78"><path id="path80" d="m0.24609 16.623v28.412c0 1.637 1.3287 2.965 2.9687 2.965h41.568c1.64 0 2.971-1.328 2.971-2.965v-28.412h-47.508zm17.816 5.93h11.877c1.093 0 1.979 0.885 1.979 1.976 0 1.092-0.888 1.977-1.98 1.977h-11.876c-1.092 0-1.98-0.885-1.98-1.977 0-1.091 0.888-1.976 1.98-1.976zm9.102 7.533l6.033 6.023-6.033 6.026v-4.067h-11.637v-3.916h11.637v-4.066z"/></g></g><g id="g96"/></g></g><rect id="rect124" width="48" fill="none" height="48"/></g></g>
    </symbol>
    <symbol id="file-chart" viewBox="0 0 24 24">
      <path d="M13,9H18.5L13,3.5V9M6,2H14L20,8V20A2,2 0 0,1 18,22H6C4.89,22 4,21.1 4,20V4C4,2.89 4.89,2 6,2M7,20H9V14H7V20M11,20H13V12H11V20M15,20H17V16H15V20Z"/>
    </symbol>
    <symbol id="github" viewBox="0 0 1792 1792">
      <path d="M1664 896q0 251-146.5 451.5t-378.5 277.5q-27 5-39.5-7t-12.5-30v-211q0-97-52-142 57-6 102.5-18t94-39 81-66.5 53-105 20.5-150.5q0-121-79-206 37-91-8-204-28-9-81 11t-92 44l-38 24q-93-26-192-26t-192 26q-16-11-42.5-27t-83.5-38.5-86-13.5q-44 113-7 204-79 85-79 206 0 85 20.5 150t52.5 105 80.5 67 94 39 102.5 18q-40 36-49 103-21 10-45 15t-57 5-65.5-21.5-55.5-62.5q-19-32-48.5-52t-49.5-24l-20-3q-21 0-29 4.5t-5 11.5 9 14 13 12l7 5q22 10 43.5 38t31.5 51l10 23q13 38 44 61.5t67 30 69.5 7 55.5-3.5l23-4q0 38 .5 89t.5 54q0 18-13 30t-40 7q-232-77-378.5-277.5t-146.5-451.5q0-209 103-385.5t279.5-279.5 385.5-103 385.5 103 279.5 279.5 103 385.5z"/>
    </symbol>
    <symbol id="globe" viewBox="0 0 1792 1792">
      <path d="M896 128q209 0 385.5 103t279.5 279.5 103 385.5-103 385.5-279.5 279.5-385.5 103-385.5-103-279.5-279.5-103-385.5 103-385.5 279.5-279.5 385.5-103zm274 521q-2 1-9.5 9.5t-13.5 9.5q2 0 4.5-5t5-11 3.5-7q6-7 22-15 14-6 52-12 34-8 51 11-2-2 9.5-13t14.5-12q3-2 15-4.5t15-7.5l2-22q-12 1-17.5-7t-6.5-21q0 2-6 8 0-7-4.5-8t-11.5 1-9 1q-10-3-15-7.5t-8-16.5-4-15q-2-5-9.5-10.5t-9.5-10.5q-1-2-2.5-5.5t-3-6.5-4-5.5-5.5-2.5-7 5-7.5 10-4.5 5q-3-2-6-1.5t-4.5 1-4.5 3-5 3.5q-3 2-8.5 3t-8.5 2q15-5-1-11-10-4-16-3 9-4 7.5-12t-8.5-14h5q-1-4-8.5-8.5t-17.5-8.5-13-6q-8-5-34-9.5t-33-.5q-5 6-4.5 10.5t4 14 3.5 12.5q1 6-5.5 13t-6.5 12q0 7 14 15.5t10 21.5q-3 8-16 16t-16 12q-5 8-1.5 18.5t10.5 16.5q2 2 1.5 4t-3.5 4.5-5.5 4-6.5 3.5l-3 2q-11 5-20.5-6t-13.5-26q-7-25-16-30-23-8-29 1-5-13-41-26-25-9-58-4 6-1 0-15-7-15-19-12 3-6 4-17.5t1-13.5q3-13 12-23 1-1 7-8.5t9.5-13.5.5-6q35 4 50-11 5-5 11.5-17t10.5-17q9-6 14-5.5t14.5 5.5 14.5 5q14 1 15.5-11t-7.5-20q12 1 3-17-5-7-8-9-12-4-27 5-8 4 2 8-1-1-9.5 10.5t-16.5 17.5-16-5q-1-1-5.5-13.5t-9.5-13.5q-8 0-16 15 3-8-11-15t-24-8q19-12-8-27-7-4-20.5-5t-19.5 4q-5 7-5.5 11.5t5 8 10.5 5.5 11.5 4 8.5 3q14 10 8 14-2 1-8.5 3.5t-11.5 4.5-6 4q-3 4 0 14t-2 14q-5-5-9-17.5t-7-16.5q7 9-25 6l-10-1q-4 0-16 2t-20.5 1-13.5-8q-4-8 0-20 1-4 4-2-4-3-11-9.5t-10-8.5q-46 15-94 41 6 1 12-1 5-2 13-6.5t10-5.5q34-14 42-7l5-5q14 16 20 25-7-4-30-1-20 6-22 12 7 12 5 18-4-3-11.5-10t-14.5-11-15-5q-16 0-22 1-146 80-235 222 7 7 12 8 4 1 5 9t2.5 11 11.5-3q9 8 3 19 1-1 44 27 19 17 21 21 3 11-10 18-1-2-9-9t-9-4q-3 5 .5 18.5t10.5 12.5q-7 0-9.5 16t-2.5 35.5-1 23.5l2 1q-3 12 5.5 34.5t21.5 19.5q-13 3 20 43 6 8 8 9 3 2 12 7.5t15 10 10 10.5q4 5 10 22.5t14 23.5q-2 6 9.5 20t10.5 23q-1 0-2.5 1t-2.5 1q3 7 15.5 14t15.5 13q1 3 2 10t3 11 8 2q2-20-24-62-15-25-17-29-3-5-5.5-15.5t-4.5-14.5q2 0 6 1.5t8.5 3.5 7.5 4 2 3q-3 7 2 17.5t12 18.5 17 19 12 13q6 6 14 19.5t0 13.5q9 0 20 10t17 20q5 8 8 26t5 24q2 7 8.5 13.5t12.5 9.5l16 8 13 7q5 2 18.5 10.5t21.5 11.5q10 4 16 4t14.5-2.5 13.5-3.5q15-2 29 15t21 21q36 19 55 11-2 1 .5 7.5t8 15.5 9 14.5 5.5 8.5q5 6 18 15t18 15q6-4 7-9-3 8 7 20t18 10q14-3 14-32-31 15-49-18 0-1-2.5-5.5t-4-8.5-2.5-8.5 0-7.5 5-3q9 0 10-3.5t-2-12.5-4-13q-1-8-11-20t-12-15q-5 9-16 8t-16-9q0 1-1.5 5.5t-1.5 6.5q-13 0-15-1 1-3 2.5-17.5t3.5-22.5q1-4 5.5-12t7.5-14.5 4-12.5-4.5-9.5-17.5-2.5q-19 1-26 20-1 3-3 10.5t-5 11.5-9 7q-7 3-24 2t-24-5q-13-8-22.5-29t-9.5-37q0-10 2.5-26.5t3-25-5.5-24.5q3-2 9-9.5t10-10.5q2-1 4.5-1.5t4.5 0 4-1.5 3-6q-1-1-4-3-3-3-4-3 7 3 28.5-1.5t27.5 1.5q15 11 22-2 0-1-2.5-9.5t-.5-13.5q5 27 29 9 3 3 15.5 5t17.5 5q3 2 7 5.5t5.5 4.5 5-.5 8.5-6.5q10 14 12 24 11 40 19 44 7 3 11 2t4.5-9.5 0-14-1.5-12.5l-1-8v-18l-1-8q-15-3-18.5-12t1.5-18.5 15-18.5q1-1 8-3.5t15.5-6.5 12.5-8q21-19 15-35 7 0 11-9-1 0-5-3t-7.5-5-4.5-2q9-5 2-16 5-3 7.5-11t7.5-10q9 12 21 2 7-8 1-16 5-7 20.5-10.5t18.5-9.5q7 2 8-2t1-12 3-12q4-5 15-9t13-5l17-11q3-4 0-4 18 2 31-11 10-11-6-20 3-6-3-9.5t-15-5.5q3-1 11.5-.5t10.5-1.5q15-10-7-16-17-5-43 12zm-163 877q206-36 351-189-3-3-12.5-4.5t-12.5-3.5q-18-7-24-8 1-7-2.5-13t-8-9-12.5-8-11-7q-2-2-7-6t-7-5.5-7.5-4.5-8.5-2-10 1l-3 1q-3 1-5.5 2.5t-5.5 3-4 3 0 2.5q-21-17-36-22-5-1-11-5.5t-10.5-7-10-1.5-11.5 7q-5 5-6 15t-2 13q-7-5 0-17.5t2-18.5q-3-6-10.5-4.5t-12 4.5-11.5 8.5-9 6.5-8.5 5.5-8.5 7.5q-3 4-6 12t-5 11q-2-4-11.5-6.5t-9.5-5.5q2 10 4 35t5 38q7 31-12 48-27 25-29 40-4 22 12 26 0 7-8 20.5t-7 21.5q0 6 2 16z"/>
    </symbol>
    <symbol id="google-circles" viewBox="0 0 24 24">
      <path d="M16.66,15H17C18,15 19,14.8 19.87,14.46C19.17,18.73 15.47,22 11,22C6,22 2,17.97 2,13C2,8.53 5.27,4.83 9.54,4.13C9.2,5 9,6 9,7V7.34C6.68,8.16 5,10.38 5,13A6,6 0 0,0 11,19C13.62,19 15.84,17.32 16.66,15M17,10A3,3 0 0,0 20,7A3,3 0 0,0 17,4A3,3 0 0,0 14,7A3,3 0 0,0 17,10M17,1A6,6 0 0,1 23,7A6,6 0 0,1 17,13A6,6 0 0,1 11,7C11,3.68 13.69,1 17,1Z"/>
    </symbol>
    <symbol id="google-controller" viewBox="0 0 24 24">
      <path d="M7.97,16L5,19C4.67,19.3 4.23,19.5 3.75,19.5A1.75,1.75 0 0,1 2,17.75V17.5L3,10.12C3.21,7.81 5.14,6 7.5,6H16.5C18.86,6 20.79,7.81 21,10.12L22,17.5V17.75A1.75,1.75 0 0,1 20.25,19.5C19.77,19.5 19.33,19.3 19,19L16.03,16H7.97M7,8V10H5V11H7V13H8V11H10V10H8V8H7M16.5,8A0.75,0.75 0 0,0 15.75,8.75A0.75,0.75 0 0,0 16.5,9.5A0.75,0.75 0 0,0 17.25,8.75A0.75,0.75 0 0,0 16.5,8M14.75,9.75A0.75,0.75 0 0,0 14,10.5A0.75,0.75 0 0,0 14.75,11.25A0.75,0.75 0 0,0 15.5,10.5A0.75,0.75 0 0,0 14.75,9.75M18.25,9.75A0.75,0.75 0 0,0 17.5,10.5A0.75,0.75 0 0,0 18.25,11.25A0.75,0.75 0 0,0 19,10.5A0.75,0.75 0 0,0 18.25,9.75M16.5,11.5A0.75,0.75 0 0,0 15.75,12.25A0.75,0.75 0 0,0 16.5,13A0.75,0.75 0 0,0 17.25,12.25A0.75,0.75 0 0,0 16.5,11.5Z"/>
    </symbol>
    <symbol id="hearing" viewBox="0 0 24 24">
       <path d="M17 20c-.29 0-.56-.06-.76-.15-.71-.37-1.21-.88-1.71-2.38-.51-1.56-1.47-2.29-2.39-3-.79-.61-1.61-1.24-2.32-2.53C9.29 10.98 9 9.93 9 9c0-2.8 2.2-5 5-5s5 2.2 5 5h2c0-3.93-3.07-7-7-7S7 5.07 7 9c0 1.26.38 2.65 1.07 3.9.91 1.65 1.98 2.48 2.85 3.15.81.62 1.39 1.07 1.71 2.05.6 1.82 1.37 2.84 2.73 3.55.51.23 1.07.35 1.64.35 2.21 0 4-1.79 4-4h-2c0 1.1-.9 2-2 2zM7.64 2.64L6.22 1.22C4.23 3.21 3 5.96 3 9s1.23 5.79 3.22 7.78l1.41-1.41C6.01 13.74 5 11.49 5 9s1.01-4.74 2.64-6.36zM11.5 9c0 1.38 1.12 2.5 2.5 2.5s2.5-1.12 2.5-2.5-1.12-2.5-2.5-2.5-2.5 1.12-2.5 2.5z"/> <path d="M0 0h24v24H0z" fill="none"/> 
    </symbol>
    <symbol id="hexagon" viewBox="0 0 50.000012 55.00001">
       <path id="path4316" d="m25 55-25-15v-25l25-15 25 15v25l-25 15z" fill-rule="evenodd" stroke-width="0" fill="#55A32A"/> 
    </symbol>
    <symbol id="image-filter-center-focus" viewBox="0 0 24 24">
      <path d="M12,9A3,3 0 0,0 9,12A3,3 0 0,0 12,15A3,3 0 0,0 15,12A3,3 0 0,0 12,9M19,19H15V21H19A2,2 0 0,0 21,19V15H19M19,3H15V5H19V9H21V5A2,2 0 0,0 19,3M5,5H9V3H5A2,2 0 0,0 3,5V9H5M5,15H3V19A2,2 0 0,0 5,21H9V19H5V15Z"/>
    </symbol>
    <symbol id="import" viewBox="0 0 48 48">
      <g id="Icon"><g id="g6"><path id="polygon8" d="m40.096 13.783v2.141h5.74l-5.74-2.141zm-32.192 0.014l-5.7324 2.127h5.7324v-2.127z"/><g id="g10"><g id="g12"><path id="path14" d="m11.172 0c-1.417 0-2.5684 1.1475-2.5684 2.5625v13.361h30.791v-5.6758l-10.262-10.248zm16.36 2.3l9.764 9.548h-9.775z"/><g id="g16"><g id="g18"><g id="g20"><clipPath id="SVGID_2_"><use id="use26" overflow="visible" xlink:href="#SVGID_201_"/></clipPath><g id="g28" clip-path="url(#SVGID_2_)"/></g></g></g></g><rect id="rect70" x="3.473" height="40.991" fill="none" width="41.055"/></g><g id="g72"><g id="g74"><g id="g76"><g id="g78"><path id="path80" d="m0.24609 16.623v28.412c0 1.637 1.3287 2.965 2.9687 2.965h41.568c1.64 0 2.971-1.328 2.971-2.965v-28.412h-47.508zm17.816 5.93h11.877c1.093 0 1.979 0.885 1.979 1.976 0 1.092-0.888 1.977-1.98 1.977h-11.876c-1.092 0-1.98-0.885-1.98-1.977 0-1.091 0.888-1.976 1.98-1.976zm2.573 7.527v4.068h11.636v3.914h-11.636v4.069l-6.035-6.026 6.035-6.025z"/></g></g><g id="g96"/></g></g><rect id="rect124" width="48" fill="none" height="48"/></g></g>
    </symbol>
    <symbol id="info-circle" viewBox="0 0 1792 1792">
      <path d="M1152 1376v-160q0-14-9-23t-23-9h-96v-512q0-14-9-23t-23-9h-320q-14 0-23 9t-9 23v160q0 14 9 23t23 9h96v320h-96q-14 0-23 9t-9 23v160q0 14 9 23t23 9h448q14 0 23-9t9-23zm-128-896v-160q0-14-9-23t-23-9h-192q-14 0-23 9t-9 23v160q0 14 9 23t23 9h192q14 0 23-9t9-23zm640 416q0 209-103 385.5t-279.5 279.5-385.5 103-385.5-103-279.5-279.5-103-385.5 103-385.5 279.5-279.5 385.5-103 385.5 103 279.5 279.5 103 385.5z"/>
    </symbol>
    <symbol id="jigsaw-pieces" viewBox="0 0 100 100">
      <g id="g5493"><g id="g5495"><path d="M83.33,25.78h-6.825c-0.009,0-0.016,0.002-0.022,0.002H52.279v8.13c0.074-0.001,0.147-0.002,0.221-0.002    c6.688,0,12.129,5.441,12.129,12.129c0,6.688-5.44,12.129-12.129,12.129c-0.073,0-0.146,0-0.221-0.002v8.131V66.3h24.214    c0.003,0,0.008,0,0.012,0h6.825c3.616,0,6.575-2.957,6.575-6.574V32.356C89.905,28.739,86.946,25.78,83.33,25.78z" id="path5497" style="fill-opacity:1"/><path d="M62.28,46.039c0-5.401-4.379-9.78-9.78-9.78c-0.891,0-1.75,0.129-2.569,0.353V25.78H23.375c-0.004,0-0.007,0-0.011,0    h-6.826c-3.616,0-6.575,2.958-6.575,6.575v27.368c0,3.618,2.958,6.577,6.575,6.577h6.826c0.007,0,0.015-0.003,0.022-0.003h26.544    V55.468c0.82,0.223,1.679,0.352,2.569,0.352C57.901,55.819,62.28,51.44,62.28,46.039z" id="path5499" style="fill-opacity:1"/></g></g>
    </symbol>
    <symbol id="jigsaw" viewBox="0 0 20 25">
      <path d="M-95.292,21.426c-1.231,1.287-2.958,2.098-4.878,2.098c-3.734,0-6.762-3.027-6.762-6.761s3.027-6.762,6.762-6.762  c1.92,0,3.646,0.811,4.878,2.099h2.233V-6.632h-18.653V-8.36c1.29-1.23,2.099-2.957,2.099-4.878c0-3.734-3.027-6.762-6.762-6.762  s-6.762,3.027-6.762,6.762c0,1.921,0.813,3.647,2.099,4.878v1.729h-18.653v18.653h-1.61c-1.231-1.288-2.958-2.099-4.878-2.099  c-3.734,0-6.762,3.028-6.762,6.761c0,3.734,3.027,6.762,6.762,6.762c1.92,0,3.647-0.809,4.878-2.099h1.61V40h18.792v-2.039  c-1.29-1.23-2.098-2.957-2.098-4.877c0-3.734,3.027-6.762,6.761-6.762s6.762,3.027,6.762,6.762c0,1.92-0.813,3.646-2.098,4.877V40  h18.515V21.426H-95.292z"/><path d="M-45.528,16.617c-0.821,0.858-1.972,1.398-3.252,1.398c-2.49,0-4.508-2.018-4.508-4.507c0-2.49,2.019-4.508,4.508-4.508  c1.28,0,2.431,0.54,3.252,1.399h1.489V-2.088h-12.436V-3.24c0.86-0.82,1.399-1.971,1.399-3.252c0-2.49-2.019-4.508-4.508-4.508  s-4.508,2.018-4.508,4.508c0,1.281,0.542,2.432,1.399,3.252v1.152h-12.436v12.436h-1.074c-0.82-0.858-1.972-1.399-3.252-1.399  c-2.49,0-4.508,2.019-4.508,4.507c0,2.49,2.018,4.508,4.508,4.508c1.28,0,2.432-0.539,3.252-1.399h1.074V29H-62.6v-1.359  c-0.859-0.82-1.398-1.971-1.398-3.251c0-2.489,2.018-4.508,4.507-4.508c2.49,0,4.508,2.019,4.508,4.508  c0,1.28-0.542,2.431-1.398,3.251V29h12.343V16.617H-45.528z"/><path d="M-7.146,16.713c-0.616,0.644-1.479,1.049-2.439,1.049c-1.867,0-3.381-1.514-3.381-3.38c0-1.868,1.514-3.381,3.381-3.381  c0.96,0,1.823,0.405,2.439,1.049h1.117V2.684h-9.327V1.82c0.645-0.615,1.049-1.478,1.049-2.439C-14.307-2.486-15.82-4-17.688-4  s-3.381,1.514-3.381,3.381c0,0.961,0.406,1.824,1.049,2.439v0.864h-9.327v9.327h-0.805c-0.615-0.644-1.479-1.049-2.439-1.049  c-1.867,0-3.381,1.514-3.381,3.38c0,1.867,1.514,3.381,3.381,3.381c0.96,0,1.824-0.404,2.439-1.049h0.805V26h9.396v-1.02  C-20.596,24.365-21,23.501-21,22.542c0-1.867,1.514-3.381,3.381-3.381s3.381,1.514,3.381,3.381c0,0.96-0.406,1.823-1.049,2.438V26  h9.257v-9.287C-6.03,16.713-7.146,16.713-7.146,16.713z"/><path d="M19.236,13.809c-0.41,0.429-0.986,0.699-1.626,0.699c-1.245,0-2.254-1.009-2.254-2.253c0-1.245,1.009-2.254,2.254-2.254  c0.64,0,1.216,0.27,1.626,0.699h0.745V4.456h-6.218V3.88c0.43-0.41,0.7-0.985,0.7-1.626C14.462,1.009,13.453,0,12.208,0  S9.954,1.009,9.954,2.254c0,0.641,0.271,1.216,0.699,1.626v0.576H4.436v6.218H3.899c-0.41-0.429-0.986-0.7-1.626-0.7  c-1.245,0-2.254,1.01-2.254,2.254c0,1.245,1.009,2.254,2.254,2.254c0.64,0,1.216-0.27,1.626-0.7h0.537V20H10.7v-0.68  c-0.43-0.41-0.7-0.986-0.7-1.625c0-1.245,1.009-2.254,2.254-2.254s2.254,1.009,2.254,2.254c0,0.64-0.271,1.215-0.699,1.625V20h6.171  v-6.191H19.236z"/>
    </symbol>
    <symbol id="life-ring" viewBox="0 0 1792 1792">
      <path d="M896 0q182 0 348 71t286 191 191 286 71 348-71 348-191 286-286 191-348 71-348-71-286-191-191-286-71-348 71-348 191-286 286-191 348-71zm0 128q-190 0-361 90l194 194q82-28 167-28t167 28l194-194q-171-90-361-90zm-678 1129l194-194q-28-82-28-167t28-167l-194-194q-90 171-90 361t90 361zm678 407q190 0 361-90l-194-194q-82 28-167 28t-167-28l-194 194q171 90 361 90zm0-384q159 0 271.5-112.5t112.5-271.5-112.5-271.5-271.5-112.5-271.5 112.5-112.5 271.5 112.5 271.5 271.5 112.5zm484-217l194 194q90-171 90-361t-90-361l-194 194q28 82 28 167t-28 167z"/>
    </symbol>
    <symbol id="line-chart" viewBox="0 0 1792 1792">
      <path d="M1920 1536v128h-2048v-1536h128v1408h1920zm-128-1248v435q0 21-19.5 29.5t-35.5-7.5l-121-121-633 633q-10 10-23 10t-23-10l-233-233-416 416-192-192 585-585q10-10 23-10t23 10l233 233 464-464-121-121q-16-16-7.5-35.5t29.5-19.5h435q14 0 23 9t9 23z"/>
    </symbol>
    <symbol id="lock-outline" viewBox="0 0 24 24">
      <path d="M12,17C10.89,17 10,16.1 10,15C10,13.89 10.89,13 12,13A2,2 0 0,1 14,15A2,2 0 0,1 12,17M18,20V10H6V20H18M18,8A2,2 0 0,1 20,10V20A2,2 0 0,1 18,22H6C4.89,22 4,21.1 4,20V10C4,8.89 4.89,8 6,8H7V6A5,5 0 0,1 12,1A5,5 0 0,1 17,6V8H18M12,3A3,3 0 0,0 9,6V8H15V6A3,3 0 0,0 12,3Z"/>
    </symbol>
    <symbol id="logo" viewBox="0 0 30.00001 60.000014">
       <g id="g4277" fill-rule="evenodd" stroke-width=".1"> <path id="path3437" d="m15 40 15 10v-20l-15-10z" stroke="#4c9225" fill="#4c9225"/> <path id="path3441" d="m15 40-15 10v-20l15-10z" stroke="#539f29" fill="#539f29"/> <path id="path4243" d="m0.000005 50 15 10v-20l-15-10z" stroke="#4c9225" fill="#4c9225"/> <path id="path4245" d="m15 60 15-10v-20l-15 10v20z" stroke="#55a32a" fill="#55a32a"/> <path id="path4247" d="m0.000005 30 15-10v-20l-15 10z" stroke="#55a32a" fill="#55a32a"/> </g> 
    </symbol>
    <symbol id="newspaper" viewBox="0 0 24 24">
      <path d="M20,11H4V8H20M20,13H13V12H20M20,15H13V14H20M20,17H13V16H20M20,19H13V18H20M12,19H4V12H12M20.33,4.67L18.67,3L17,4.67L15.33,3L13.67,4.67L12,3L10.33,4.67L8.67,3L7,4.67L5.33,3L3.67,4.67L2,3V19A2,2 0 0,0 4,21H20A2,2 0 0,0 22,19V3L20.33,4.67Z"/>
    </symbol>
    <symbol id="odnoklassniki" viewBox="0 0 24 24">
      <path d="M17.83,12.74C17.55,12.17 16.76,11.69 15.71,12.5C14.28,13.64 12,13.64 12,13.64C12,13.64 9.72,13.64 8.29,12.5C7.24,11.69 6.45,12.17 6.17,12.74C5.67,13.74 6.23,14.23 7.5,15.04C8.59,15.74 10.08,16 11.04,16.1L10.24,16.9C9.1,18.03 8,19.12 7.25,19.88C6.8,20.34 6.8,21.07 7.25,21.5L7.39,21.66C7.84,22.11 8.58,22.11 9.03,21.66L12,18.68C13.15,19.81 14.24,20.9 15,21.66C15.45,22.11 16.18,22.11 16.64,21.66L16.77,21.5C17.23,21.07 17.23,20.34 16.77,19.88L13.79,16.9L13,16.09C13.95,16 15.42,15.73 16.5,15.04C17.77,14.23 18.33,13.74 17.83,12.74M12,4.57C13.38,4.57 14.5,5.69 14.5,7.06C14.5,8.44 13.38,9.55 12,9.55C10.62,9.55 9.5,8.44 9.5,7.06C9.5,5.69 10.62,4.57 12,4.57M12,12.12C14.8,12.12 17.06,9.86 17.06,7.06C17.06,4.27 14.8,2 12,2C9.2,2 6.94,4.27 6.94,7.06C6.94,9.86 9.2,12.12 12,12.12Z"/>
    </symbol>
    <symbol id="order" viewBox="0 0 36 40">
      <g><path d="M22.47 6h-6.53v2H22v30H2V8h6V6H1.53C.68 6 0 6.68 0 7.53v30.94C0 39.32.68 40 1.53 40h20.94c.85 0 1.53-.68 1.53-1.53V7.53C24 6.68 23.32 6 22.47 6z"/><path d="M13.45 0h-2.96C9.12 0 8 1.12 8 2.49v8.02C8 11.88 9.12 13 10.49 13h2.96c1.37 0 2.49-1.12 2.49-2.49V2.49c0-1.37-1.12-2.49-2.49-2.49zM14 10.51c-.06.27-.28.49-.55.49h-2.96c-.27 0-.49-.22-.49-.49V2.49c0-.27.22-.49.49-.49h2.96c.27 0 .49.22.55.49v8.02zM20 19c0 .55-.45 1-1 1h-9c-.55 0-1-.45-1-1s.45-1 1-1h9c.55 0 1 .45 1 1zm0 6c0 .55-.45 1-1 1h-9c-.55 0-1-.45-1-1s.45-1 1-1h9c.55 0 1 .45 1 1zm0 6c0 .55-.45 1-1 1h-9c-.55 0-1-.45-1-1s.45-1 1-1h9c.55 0 1 .45 1 1zM8 31c0 1.1-.9 2-2 2s-2-.9-2-2 .9-2 2-2 2 .9 2 2zm0-6c0 1.1-.9 2-2 2s-2-.9-2-2 .9-2 2-2 2 .9 2 2zm0-6c0 1.1-.9 2-2 2s-2-.9-2-2 .9-2 2-2 2 .9 2 2zm24.68 12.39c-.26.37-.69.61-1.18.61H30c.74 0 1.38.72 1.48 1.62-.54.44-1.03.98-1.48 1.6-.45-.62-.94-1.16-1.48-1.6.1-.9.74-1.62 1.48-1.62h-1.5c-.49 0-.92-.24-1.18-.61-.51.67-.82 1.55-.82 2.5 0 .19.01.38.04.55.01.09.02.18.04.27 1.18.67 2 1.85 2.54 2.93.63 1.25.88 2.36.88 2.36s.25-1.11.88-2.36c.54-1.08 1.36-2.26 2.54-2.93.02-.09.03-.18.04-.27.03-.17.04-.36.04-.55 0-.95-.31-1.83-.82-2.5zM31.5 2h-3c-.83 0-1.5.7-1.5 1.55V6h2V4h2v2h2V3.55C33 2.7 32.33 2 31.5 2zM33 8v22.45c0 .35-.11.68-.32.94-.26.37-.69.61-1.18.61h-3c-.49 0-.92-.24-1.18-.61-.21-.26-.32-.59-.32-.94V8h2v22h2V8h2z"/><path d="M36 8.49V18c0 .55-.45 1-1 1s-1-.45-1-1V8.49c0-.27-.22-.49-.49-.49H27c-.55 0-1-.45-1-1s.45-1 1-1h6.51C34.88 6 36 7.12 36 8.49z"/></g>
    </symbol>
    <symbol id="package-variant-closed" viewBox="0 0 24 24">
      <path d="M21,16.5C21,16.88 20.79,17.21 20.47,17.38L12.57,21.82C12.41,21.94 12.21,22 12,22C11.79,22 11.59,21.94 11.43,21.82L3.53,17.38C3.21,17.21 3,16.88 3,16.5V7.5C3,7.12 3.21,6.79 3.53,6.62L11.43,2.18C11.59,2.06 11.79,2 12,2C12.21,2 12.41,2.06 12.57,2.18L20.47,6.62C20.79,6.79 21,7.12 21,7.5V16.5M12,4.15L10.11,5.22L16,8.61L17.96,7.5L12,4.15M6.04,7.5L12,10.85L13.96,9.75L8.08,6.35L6.04,7.5M5,15.91L11,19.29V12.58L5,9.21V15.91M19,15.91V9.21L13,12.58V19.29L19,15.91Z"/>
    </symbol>
    <symbol id="package-variant" viewBox="0 0 24 24">
      <path d="M2,10.96C1.5,10.68 1.35,10.07 1.63,9.59L3.13,7C3.24,6.8 3.41,6.66 3.6,6.58L11.43,2.18C11.59,2.06 11.79,2 12,2C12.21,2 12.41,2.06 12.57,2.18L20.47,6.62C20.66,6.72 20.82,6.88 20.91,7.08L22.36,9.6C22.64,10.08 22.47,10.69 22,10.96L21,11.54V16.5C21,16.88 20.79,17.21 20.47,17.38L12.57,21.82C12.41,21.94 12.21,22 12,22C11.79,22 11.59,21.94 11.43,21.82L3.53,17.38C3.21,17.21 3,16.88 3,16.5V10.96C2.7,11.13 2.32,11.14 2,10.96M12,4.15V4.15L12,10.85V10.85L17.96,7.5L12,4.15M5,15.91L11,19.29V12.58L5,9.21V15.91M19,15.91V12.69L14,15.59C13.67,15.77 13.3,15.76 13,15.6V19.29L19,15.91M13.85,13.36L20.13,9.73L19.55,8.72L13.27,12.35L13.85,13.36Z"/>
    </symbol>
    <symbol id="radio-tower" viewBox="0 0 24 24">
      <path d="M12,10A2,2 0 0,1 14,12C14,12.5 13.82,12.94 13.53,13.29L16.7,22H14.57L12,14.93L9.43,22H7.3L10.47,13.29C10.18,12.94 10,12.5 10,12A2,2 0 0,1 12,10M12,8A4,4 0 0,0 8,12C8,12.5 8.1,13 8.28,13.46L7.4,15.86C6.53,14.81 6,13.47 6,12A6,6 0 0,1 12,6A6,6 0 0,1 18,12C18,13.47 17.47,14.81 16.6,15.86L15.72,13.46C15.9,13 16,12.5 16,12A4,4 0 0,0 12,8M12,4A8,8 0 0,0 4,12C4,14.36 5,16.5 6.64,17.94L5.92,19.94C3.54,18.11 2,15.23 2,12A10,10 0 0,1 12,2A10,10 0 0,1 22,12C22,15.23 20.46,18.11 18.08,19.94L17.36,17.94C19,16.5 20,14.36 20,12A8,8 0 0,0 12,4Z"/>
    </symbol>
    <symbol id="rocket" viewBox="0 0 1792 1792">
      <path d="M1504 448q0-40-28-68t-68-28-68 28-28 68 28 68 68 28 68-28 28-68zm224-288q0 249-75.5 430.5t-253.5 360.5q-81 80-195 176l-20 379q-2 16-16 26l-384 224q-7 4-16 4-12 0-23-9l-64-64q-13-14-8-32l85-276-281-281-276 85q-3 1-9 1-14 0-23-9l-64-64q-17-19-5-39l224-384q10-14 26-16l379-20q96-114 176-195 188-187 358-258t431-71q14 0 24 9.5t10 22.5z"/>
    </symbol>
    <symbol id="sale" viewBox="0 0 24 24">
      <path d="M18.65,2.85L19.26,6.71L22.77,8.5L21,12L22.78,15.5L19.24,17.29L18.63,21.15L14.74,20.54L11.97,23.3L9.19,20.5L5.33,21.14L4.71,17.25L1.22,15.47L3,11.97L1.23,8.5L4.74,6.69L5.35,2.86L9.22,3.5L12,0.69L14.77,3.46L18.65,2.85M9.5,7A1.5,1.5 0 0,0 8,8.5A1.5,1.5 0 0,0 9.5,10A1.5,1.5 0 0,0 11,8.5A1.5,1.5 0 0,0 9.5,7M14.5,14A1.5,1.5 0 0,0 13,15.5A1.5,1.5 0 0,0 14.5,17A1.5,1.5 0 0,0 16,15.5A1.5,1.5 0 0,0 14.5,14M8.41,17L17,8.41L15.59,7L7,15.59L8.41,17Z"/>
    </symbol>
    <symbol id="searchful" viewBox="0 0 566.92913 566.92913">
       <g id="layer1" transform="translate(-129 -189)"> <g id="g4915" transform="matrix(.125 0 0 -.125 120 773)"> <path id="path4917" d="m2.81e3 4.28e3c258-31 559-105 865-211 75.5-24.6 155-53.3 225-82 132-49 124-43.4 112-79.4-50-140-100-270-140-370-62-170-116-314-121-319-6-6-55 11-122 42-356 161-753 263-1.11e3 286-234 18.4-473 11.3-705-19-293-41-638-140-902-257-63-28-67-32-62-57 19.3-77.5 84.5-143 136-178 109-69 230-90 573-98 451-4.57 962-14.2 1.36e3 -19 514-7 531-8 700-26 170-19 318-78 403-162 88-87 116-181 107-366-20-340-120-720-280-1.07e3 -120-280-230-448-320-515-210-156-590-263-1.02e3 -285-510-27-1.04e3 62-1.56e3 265-75 29-161 62-190 76-36 18-73 33-108 54l274 724c103-52.7 216-103 326-144 201-68.1 398-129 613-169 443-80 886-53 1.42e3 85 233 61 545 176 565 209 14 22-7 64-61 120-95 100-252 156-469 166-55 3-557 6-1.12e3 8-1.09e3 4-1.14e3 6-1.29e3 56-124 47-170 81.9-244 164-73.2 78.2-91.8 165-104 257-4 35-4 100 0 143 12 126 72 421 114 560 0 0 20.8 69 39 121 86 262 243 592 362 760 18 25 54 60 80 78 47 44.9 87 57.1 132 82 39 20 249 78 396 109 155 33 300 55 428 66 151 13 541 4 697-15z" fill="#fff"/> </g> <path id="path4917-9" d="m471 239c32.2 3.88 69.9 13.1 108 26.4 9.44 3.07 19.3 6.66 28.1 10.2 16.5 6.12 15.5 5.42 14 9.92-6.24 16.6-12.7 32.4-17.7 46-7.75 21.2-14.5 39.2-15.1 39.9-0.75 0.75-6.88-1.38-15.2-5.25-44.5-20.1-94.1-32.9-139-35.8-29.3-2.3-59.1-1.42-88.1 2.38-36.6 5.12-79.8 17.5-113 32.1-7.88 3.5-8.38 4-7.75 7.12 2.41 9.68 10.6 17.9 17 22.2 13.6 8.62 28.8 11.2 71.6 12.2 56.4 0.571 120 1.77 170 2.38 64.2 0.875 66.4 1 87.5 3.25 21.2 2.38 39.8 9.75 50.4 20.2 11 10.9 14.5 22.6 13.4 45.8-2.12 41-14.4 89.1-34.1 133-15.5 34.5-29 56-40.4 64.4-26.5 19.5-74.1 32.9-128 35.6-63.6 3.38-130-7.75-195-33.1-9.25-3.62-20-7.77-23.6-9.52-4.54-2.18-9.21-4.12-13.5-6.73l34.2-90.5c12.8 6.58 26.9 12.9 40.8 18 25.2 8.51 49.7 16.1 76.6 21.1 55.4 10 111 6.62 177-10.6 29.1-7.62 68.1-22 70.6-26.1 1.75-2.75-0.875-8-7.62-15-11.9-12.5-31.5-19.5-58.6-20.8-6.88-0.375-69.6-0.75-139-1-136-0.5-143-0.75-161-7-15.4-5.88-21.3-10.2-30.5-20.5-9.14-9.78-11.5-20.6-13-32.1-0.5-4.38-0.5-12.5 0-17.9 1.5-15.8 9-52.6 14.2-70 0 0 2.6-8.63 4.88-15.1 10.8-32.8 30.4-74 45.2-95 2.25-3.12 6.75-7.5 10-9.75 5.87-5.61 10.9-7.13 16.5-10.2 4.88-2.5 31.1-9.75 49.5-13.6 19.4-4.12 37.5-6.88 53.5-8.25 18.9-1.62 67.6-0.5 87.1 1.88z" fill="#fff"/> </g> 
    </symbol>
    <symbol id="store" viewBox="0 0 24 24">
      <path d="M12,18H6V14H12M21,14V12L20,7H4L3,12V14H4V20H14V14H18V20H20V14M20,4H4V6H20V4Z"/>
    </symbol>
    <symbol id="tachometer" viewBox="0 0 1792 1792">
      <path d="M384 1152q0-53-37.5-90.5t-90.5-37.5-90.5 37.5-37.5 90.5 37.5 90.5 90.5 37.5 90.5-37.5 37.5-90.5zm192-448q0-53-37.5-90.5t-90.5-37.5-90.5 37.5-37.5 90.5 37.5 90.5 90.5 37.5 90.5-37.5 37.5-90.5zm428 481l101-382q6-26-7.5-48.5t-38.5-29.5-48 6.5-30 39.5l-101 382q-60 5-107 43.5t-63 98.5q-20 77 20 146t117 89 146-20 89-117q16-60-6-117t-72-91zm660-33q0-53-37.5-90.5t-90.5-37.5-90.5 37.5-37.5 90.5 37.5 90.5 90.5 37.5 90.5-37.5 37.5-90.5zm-640-640q0-53-37.5-90.5t-90.5-37.5-90.5 37.5-37.5 90.5 37.5 90.5 90.5 37.5 90.5-37.5 37.5-90.5zm448 192q0-53-37.5-90.5t-90.5-37.5-90.5 37.5-37.5 90.5 37.5 90.5 90.5 37.5 90.5-37.5 37.5-90.5zm320 448q0 261-141 483-19 29-54 29h-1402q-35 0-54-29-141-221-141-483 0-182 71-348t191-286 286-191 348-71 348 71 286 191 191 286 71 348z"/>
    </symbol>
    <symbol id="timer" viewBox="0 0 24 24">
       <path d="M0 0h24v24H0z" fill="none"/> <path d="M11 17c0 .55.45 1 1 1s1-.45 1-1-.45-1-1-1-1 .45-1 1zm0-14v4h2V5.08c3.39.49 6 3.39 6 6.92 0 3.87-3.13 7-7 7s-7-3.13-7-7c0-1.68.59-3.22 1.58-4.42L12 13l1.41-1.41-6.8-6.8v.02C4.42 6.45 3 9.05 3 12c0 4.97 4.02 9 9 9 4.97 0 9-4.03 9-9s-4.03-9-9-9h-1zm7 9c0-.55-.45-1-1-1s-1 .45-1 1 .45 1 1 1 1-.45 1-1zM6 12c0 .55.45 1 1 1s1-.45 1-1-.45-1-1-1-1 .45-1 1z"/> 
    </symbol>
    <symbol id="toolkit" viewBox="0 0 65 65">
       <g id="g4262" transform="translate(0 65) scale(0.1 -0.1)"> <path id="path4264" d="m87 644c-4-4 6-22 23-39 26-27 29-35 21-57-15-40-50-43-87-7-35 34-49 27-39-21 9-42 58-80 103-80 35 0 50-13 254-217l218-218 32 33 33 32-218 218c-205 205-217 219-217 254 0 27-8 46-27 68-28 30-81 49-96 34z"/> <path id="path4266" d="m120 185l-104-105 34-35 34-35 108 107 108 107-32 33c-18 18-34 33-38 33-3 0-52-47-110-105z"/> </g> <path id="path4204" d="m37.422 24.886 2.9277 2.8031 10.839-11.524 4.3604-1.3081 7.5996-9.0946-4.049-3.9867-9.0946 7.5996-1.1213 4.1735z" fill-rule="evenodd"/> 
    </symbol>
    <symbol id="view-dashboard" viewBox="0 0 24 24">
      <path d="M13,3V9H21V3M13,21H21V11H13M3,21H11V15H3M3,13H11V3H3V13Z"/>
    </symbol>
    <symbol id="xml" viewBox="0 0 24 24">
      <path d="M12.89,3L14.85,3.4L11.11,21L9.15,20.6L12.89,3M19.59,12L16,8.41V5.58L22.42,12L16,18.41V15.58L19.59,12M1.58,12L8,5.58V8.41L4.41,12L8,15.58V18.41L1.58,12Z"/>
    </symbol></svg>