<svg xmlns="http://www.w3.org/2000/svg" style="display: none;">
    <symbol id="accessibility" viewBox="0 0 24 24">
      <title>accessibility icon</title>
      <path d="M0 0h24v24H0z" fill="none"/><path d="M12 2c1.1 0 2 .9 2 2s-.9 2-2 2-2-.9-2-2 .9-2 2-2zm9 7h-6v13h-2v-6h-2v6H9V9H3V7h18v2z"/>
    </symbol>
    <symbol id="account-location" viewBox="0 0 24 24">
      <title>account-location icon</title>
      <path d="M18 16H6v-.9c0-2 4-3.1 6-3.1s6 1.1 6 3.1m-6-9.8c1.5 0 2.7 1.2 2.7 2.7 0 1.5-1.2 2.7-2.7 2.7-1.5 0-2.7-1.2-2.7-2.7 0-1.5 1.2-2.7 2.7-2.7M19 2H5c-1.11 0-2 .89-2 2v14a2 2 0 0 0 2 2h4l3 3 3-3h4a2 2 0 0 0 2-2V4c0-1.11-.9-2-2-2z"/>
    </symbol>
    <symbol id="arrow-expand" viewBox="0 0 24 24">
      <title>arrow-expand icon</title>
      <path d="M9.5 13.09l1.41 1.41-4.5 4.5H10v2H3v-7h2v3.59l4.5-4.5m1.41-3.59L9.5 10.91 5 6.41V10H3V3h7v2H6.41l4.5 4.5m3.59 3.59l4.5 4.5V14h2v7h-7v-2h3.59l-4.5-4.5 1.41-1.41M13.09 9.5l4.5-4.5H14V3h7v7h-2V6.41l-4.5 4.5-1.41-1.41z"/>
    </symbol>
    <symbol id="bars" viewBox="0 0 1792 1792">
      <title>bars icon</title>
      <path d="M1664 1344v128q0 26-19 45t-45 19H192q-26 0-45-19t-19-45v-128q0-26 19-45t45-19h1408q26 0 45 19t19 45zm0-512v128q0 26-19 45t-45 19H192q-26 0-45-19t-19-45V832q0-26 19-45t45-19h1408q26 0 45 19t19 45zm0-512v128q0 26-19 45t-45 19H192q-26 0-45-19t-19-45V320q0-26 19-45t45-19h1408q26 0 45 19t19 45z"/>
    </symbol>
    <symbol id="bullhorn" viewBox="0 0 1792 1792">
      <title>bullhorn icon</title>
      <path d="M1664 640q53 0 90.5 37.5T1792 768t-37.5 90.5T1664 896v384q0 52-38 90t-90 38q-417-347-812-380-58 19-91 66t-31 100.5 40 92.5q-20 33-23 65.5t6 58 33.5 55 48 50T768 1566q-29 58-111.5 83T488 1660.5 356 1605q-7-23-29.5-87.5t-32-94.5-23-89-15-101 3.5-98.5 22-110.5H160q-66 0-113-47T0 864V672q0-66 47-113t113-47h480q435 0 896-384 52 0 90 38t38 90v384zm-128 604V290q-394 302-768 343v270q377 42 768 341z"/>
    </symbol>
    <symbol id="camcorder" viewBox="0 0 24 24">
      <title>camcorder icon</title>
      <path d="M17 10.5V7a1 1 0 0 0-1-1H4a1 1 0 0 0-1 1v10a1 1 0 0 0 1 1h12a1 1 0 0 0 1-1v-3.5l4 4v-11l-4 4z"/>
    </symbol>
    <symbol id="chart-pie" viewBox="0 0 24 24">
      <title>chart-pie icon</title>
      <path d="M21 11h-8V3a8 8 0 0 1 8 8m-2 2c0 2.78-1.42 5.23-3.57 6.67L11.58 13H19m-8 8c-2.78 0-5.23-1.42-6.67-3.57l6.49-3.75 3.74 6.49c-1.06.53-2.28.83-3.56.83m-8-8a8 8 0 0 1 8-8v7.42l-7.17 4.14C3.3 15.5 3 14.28 3 13z"/>
    </symbol>
    <symbol id="cloud-outline" viewBox="0 0 24 24">
      <title>cloud-outline icon</title>
      <path d="M19 18H6a4 4 0 0 1-4-4 4 4 0 0 1 4-4h.71C7.37 7.69 9.5 6 12 6a5.5 5.5 0 0 1 5.5 5.5v.5H19a3 3 0 0 1 3 3 3 3 0 0 1-3 3m.35-7.97C18.67 6.59 15.64 4 12 4 9.11 4 6.6 5.64 5.35 8.03 2.34 8.36 0 10.9 0 14a6 6 0 0 0 6 6h13a5 5 0 0 0 5-5c0-2.64-2.05-4.78-4.65-4.97z"/>
    </symbol>
    <symbol id="code" viewBox="0 0 1792 1792">
      <title>code icon</title>
      <path d="M553 1399l-50 50q-10 10-23 10t-23-10L-9 983q-10-10-10-23t10-23l466-466q10-10 23-10t23 10l50 50q10 10 10 23t-10 23L160 960l393 393q10 10 10 23t-10 23zm591-1067L771 1623q-4 13-15.5 19.5T732 1645l-62-17q-13-4-19.5-15.5T648 1588l373-1291q4-13 15.5-19.5t23.5-2.5l62 17q13 4 19.5 15.5t2.5 24.5zm657 651l-466 466q-10 10-23 10t-23-10l-50-50q-10-10-10-23t10-23l393-393-393-393q-10-10-10-23t10-23l50-50q10-10 23-10t23 10l466 466q10 10 10 23t-10 23z"/>
    </symbol>
    <symbol id="credit-card" viewBox="0 0 24 24">
      <title>credit-card icon</title>
      <path d="M20 8H4V6h16m0 12H4v-6h16m0-8H4c-1.11 0-2 .89-2 2v12a2 2 0 0 0 2 2h16a2 2 0 0 0 2-2V6c0-1.11-.9-2-2-2z"/>
    </symbol>
    <symbol id="cubes" viewBox="0 0 17 14">
      <title>cubes icon</title>
      <path d="M5 12.75l3-1.5V8.797l-3 1.28v2.673zm-.5-3.547L7.656 7.85 4.5 6.5 1.344 7.85zM13 12.75l3-1.5V8.797l-3 1.28v2.673zm-.5-3.547l3.156-1.352L12.5 6.5 9.344 7.85zM9 6.913l3-1.288V3.547l-3 1.28v2.087zm-.5-2.96l3.445-1.477L8.5 1 5.055 2.475zM17 8v3.25q0 .28-.148.523t-.406.367l-3.5 1.75q-.195.11-.445.11t-.444-.11l-3.5-1.75q-.04-.016-.055-.03-.015.015-.054.03l-3.5 1.75Q4.75 14 4.5 14t-.444-.11l-3.5-1.75q-.258-.125-.406-.367t-.148-.523V8q0-.297.168-.547t.44-.375l3.392-1.453V2.5q0-.297.168-.547t.44-.375l3.5-1.5Q8.29 0 8.503 0t.39.078l3.5 1.5q.274.125.442.375t.168.547v3.125l3.39 1.453q.282.125.446.375t.164.547z"/>
    </symbol>
    <symbol id="device-management" viewBox="0 0 48 48">
      <title>device-management icon</title>
      <path fill="#263238" d="M3.547 6.982h40.91V35.75H3.547z"/><path fill="#EDEDED" d="M5.464 8.9H42.54v24.873H5.464z"/><path fill="#263238" d="M16.028 34.482h14.72v2.865h-14.72z"/><path fill="#848484" d="M29.462 35.755c-.273.64-.906 1.086-1.645 1.086h-7.693c-.738 0-1.37-.446-1.645-1.085H0V37.34c0 .884.716 1.6 1.6 1.6h44.744c.883 0 1.598-.716 1.598-1.6V35.755h-18.48z"/><path fill="#262626" d="M46.424 19.262h-10.85c-.872 0-1.578.707-1.578 1.576V40.46c0 .872.706 1.578 1.578 1.578h10.85c.87 0 1.576-.706 1.576-1.578V20.838c0-.87-.707-1.576-1.576-1.576zm0 19.622h-10.85V20.838h10.85v18.046z"/><path fill="#EDEDED" d="M35.547 20.812h10.916v18.175H35.547z"/><path opacity=".16" fill="#253137" d="M35.57 42.038h10.852c.87 0 1.578-.707 1.578-1.577v-.19c0 .87-.707 1.577-1.578 1.577h-10.85c-.87 0-1.576-.707-1.576-1.577v.19c0 .87.706 1.578 1.575 1.578z"/><circle fill="#E0E0E0" cx="41.004" cy="40.46" r=".788"/><path opacity=".16" fill="#FFF" d="M46.423 19.262h-10.85c-.873 0-1.577.707-1.577 1.576v.192c0-.87.704-1.577 1.577-1.577h10.85c.87 0 1.577.707 1.577 1.577v-.192c0-.87-.708-1.576-1.577-1.576z"/><path opacity=".16" fill="#263238" d="M35.547 20.812h10.916v.14H35.547z"/><path opacity=".16" fill="#253137" d="M41.003 39.748c.424 0 .77.332.787.75l.002-.038c0-.436-.353-.787-.79-.787-.434 0-.786.35-.786.787l.002.038c.02-.418.363-.75.785-.75z"/><path opacity=".16" fill="#FFF" d="M3.546 7.942h40.912v.192H3.546z"/><g opacity=".16" fill="#FFF"><path d="M44.458 35.947v-.192H29.462c-.03.067-.063.13-.1.192h15.096zM18.48 35.755H0v.192h18.58c-.037-.062-.07-.125-.1-.192z"/></g><linearGradient id="a" gradientUnits="userSpaceOnUse" x1="13.523" y1="31.605" x2="32.252" y2="12.876"><stop offset="0" stop-color="#FAFAFA"/><stop offset=".034" stop-color="#FAFAFA" stop-opacity=".966"/><stop offset="1" stop-color="#FFF" stop-opacity="0"/></linearGradient><path fill="url(#a)" d="M5.464 8.9L30.24 33.678H42.213V8.9"/><linearGradient id="b" gradientUnits="userSpaceOnUse" x1="38.839" y1="28.438" x2="44.382" y2="22.895"><stop offset="0" stop-color="#FAFAFA"/><stop offset=".034" stop-color="#FAFAFA" stop-opacity=".966"/><stop offset="1" stop-color="#FFF" stop-opacity="0"/></linearGradient><path fill="url(#b)" d="M35.547 20.812L46.463 31.73l-.04-10.918"/><path fill="none" d="M.004 0H48v48H.004z"/>
    </symbol>
    <symbol id="devices" viewBox="0 0 48 48">
      <title>devices icon</title>
      <path d="M3.547 6.982h40.91V35.75H3.547z"/><path fill="#fff" d="M5.464 8.9H42.54v24.873H5.464z"/><path d="M29.46 35.735c-.273.643-.906 1.093-1.645 1.093H20.12c-.737 0-1.37-.45-1.644-1.093H-.004v1.595c0 .89.716 1.61 1.6 1.61h44.748c.883 0 1.598-.72 1.598-1.61v-1.595H29.46z"/><path d="M46.424 19.262h-10.85c-.872 0-1.578.707-1.578 1.576V40.46c0 .872.706 1.578 1.578 1.578h10.85c.87 0 1.576-.706 1.576-1.578V20.838c0-.87-.707-1.576-1.576-1.576zm0 19.622h-10.85V20.838h10.85v18.046z" stroke="#fff" stroke-width=".2" stroke-miterlimit="4.5"/><path fill="#fff" d="M35.547 20.812h10.916v18.175H35.547z"/><circle r=".788" cy="40.46" cx="41.004" fill="#fff"/><path fill="none" d="M.004 0H48v48H.004z"/>
    </symbol>
    <symbol id="diamond" viewBox="0 0 2048.1333 2048.1333">
      <title>diamond icon</title>
      <path d="M212.067 1024.133l623 665-300-665h-323zm812 772l349-772h-698zm-486-900l204-384h-262l-288 384h346zm675 793l623-665h-323zm-530-793h682l-204-384h-274zm827 0h346l-288-384h-262zm141-486l384 512q14 18 13 41.5t-17 40.5l-960 1024q-18 20-47 20t-47-20l-960-1024q-16-17-17-40.5t13-41.5l384-512q18-26 51-26h1152q33 0 51 26z"/>
    </symbol>
    <symbol id="email-outline" viewBox="0 0 24 24">
      <title>email-outline icon</title>
      <path d="M20 4H4a2 2 0 0 0-2 2v12a2 2 0 0 0 2 2h16a2 2 0 0 0 2-2V6a2 2 0 0 0-2-2m0 14H4V8l8 5 8-5v10m0-12l-8 5-8-5h16z"/>
    </symbol>
    <symbol id="emoticon-neutral" viewBox="0 0 24 24">
      <title>emoticon-neutral icon</title>
      <path d="M8.5 11A1.5 1.5 0 0 1 7 9.5 1.5 1.5 0 0 1 8.5 8 1.5 1.5 0 0 1 10 9.5 1.5 1.5 0 0 1 8.5 11m7 0A1.5 1.5 0 0 1 14 9.5 1.5 1.5 0 0 1 15.5 8 1.5 1.5 0 0 1 17 9.5a1.5 1.5 0 0 1-1.5 1.5M12 20a8 8 0 0 0 8-8 8 8 0 0 0-8-8 8 8 0 0 0-8 8 8 8 0 0 0 8 8m0-18a10 10 0 0 1 10 10 10 10 0 0 1-10 10C6.47 22 2 17.5 2 12A10 10 0 0 1 12 2M9 14h6a1 1 0 0 1 1 1 1 1 0 0 1-1 1H9a1 1 0 0 1-1-1 1 1 0 0 1 1-1z"/>
    </symbol>
    <symbol id="export" viewBox="0 0 48 48">
      <title>export icon</title>
      <path d="M40.096 13.783v2.14h5.74l-5.74-2.14zm-32.192.014l-5.732 2.127h5.732v-2.127zM11.172 0C9.755 0 8.604 1.147 8.604 2.563v13.36h30.79V10.25L29.135 0zm16.36 2.3l9.764 9.548H27.52z"/><defs><path id="a" d="M29.133 0H11.17C9.755 0 8.605 1.147 8.605 2.562V38.43c0 1.415 1.15 2.562 2.566 2.562h25.66c1.418 0 2.565-1.147 2.565-2.562V10.248L29.133 0z"/></defs><clipPath id="b"><use xlink:href="#a" overflow="visible"/></clipPath><path fill="none" d="M3.473 0h41.055v40.99H3.473z"/><g><path d="M.246 16.623v28.412c0 1.637 1.33 2.965 2.97 2.965h41.567c1.64 0 2.97-1.328 2.97-2.965V16.623H.247zm17.817 5.93h11.876c1.092 0 1.978.885 1.978 1.976 0 1.09-.887 1.976-1.98 1.976H18.063c-1.093 0-1.98-.885-1.98-1.977s.888-1.977 1.98-1.977zm9.1 7.533l6.034 6.023-6.033 6.025v-4.067H15.527v-3.916h11.637v-4.066z"/></g><path fill="none" d="M0 0h48v48H0z"/>
    </symbol>
    <symbol id="file-chart" viewBox="0 0 24 24">
      <title>file-chart icon</title>
      <path d="M13 9h5.5L13 3.5V9M6 2h8l6 6v12a2 2 0 0 1-2 2H6c-1.11 0-2-.9-2-2V4c0-1.11.89-2 2-2m1 18h2v-6H7v6m4 0h2v-8h-2v8m4 0h2v-4h-2v4z"/>
    </symbol>
    <symbol id="github" viewBox="0 0 1792 1792">
      <title>github icon</title>
      <path d="M1664 896q0 251-146.5 451.5T1139 1625q-27 5-39.5-7t-12.5-30v-211q0-97-52-142 57-6 102.5-18t94-39 81-66.5 53-105T1386 856q0-121-79-206 37-91-8-204-28-9-81 11t-92 44l-38 24q-93-26-192-26t-192 26q-16-11-42.5-27T578 459.5 492 446q-44 113-7 204-79 85-79 206 0 85 20.5 150t52.5 105 80.5 67 94 39 102.5 18q-40 36-49 103-21 10-45 15t-57 5-65.5-21.5T484 1274q-19-32-48.5-52t-49.5-24l-20-3q-21 0-29 4.5t-5 11.5 9 14 13 12l7 5q22 10 43.5 38t31.5 51l10 23q13 38 44 61.5t67 30 69.5 7 55.5-3.5l23-4q0 38 .5 89t.5 54q0 18-13 30t-40 7q-232-77-378.5-277.5T128 896q0-209 103-385.5T510.5 231 896 128t385.5 103T1561 510.5 1664 896z"/>
    </symbol>
    <symbol id="globe" viewBox="0 0 1792 1792">
      <title>globe icon</title>
      <path d="M896 128q209 0 385.5 103T1561 510.5 1664 896t-103 385.5-279.5 279.5T896 1664t-385.5-103T231 1281.5 128 896t103-385.5T510.5 231 896 128zm274 521q-2 1-9.5 9.5T1147 668q2 0 4.5-5t5-11 3.5-7q6-7 22-15 14-6 52-12 34-8 51 11-2-2 9.5-13t14.5-12q3-2 15-4.5t15-7.5l2-22q-12 1-17.5-7t-6.5-21q0 2-6 8 0-7-4.5-8t-11.5 1-9 1q-10-3-15-7.5t-8-16.5-4-15q-2-5-9.5-10.5T1240 484q-1-2-2.5-5.5t-3-6.5-4-5.5-5.5-2.5-7 5-7.5 10-4.5 5q-3-2-6-1.5t-4.5 1-4.5 3-5 3.5q-3 2-8.5 3t-8.5 2q15-5-1-11-10-4-16-3 9-4 7.5-12t-8.5-14h5q-1-4-8.5-8.5T1130 438t-13-6q-8-5-34-9.5t-33-.5q-5 6-4.5 10.5t4 14 3.5 12.5q1 6-5.5 13t-6.5 12q0 7 14 15.5t10 21.5q-3 8-16 16t-16 12q-5 8-1.5 18.5T1042 584q2 2 1.5 4t-3.5 4.5-5.5 4-6.5 3.5l-3 2q-11 5-20.5-6T991 570q-7-25-16-30-23-8-29 1-5-13-41-26-25-9-58-4 6-1 0-15-7-15-19-12 3-6 4-17.5t1-13.5q3-13 12-23 1-1 7-8.5t9.5-13.5.5-6q35 4 50-11 5-5 11.5-17t10.5-17q9-6 14-5.5t14.5 5.5 14.5 5q14 1 15.5-11t-7.5-20q12 1 3-17-5-7-8-9-12-4-27 5-8 4 2 8-1-1-9.5 10.5T929 346t-16-5q-1-1-5.5-13.5T898 314q-8 0-16 15 3-8-11-15t-24-8q19-12-8-27-7-4-20.5-5t-19.5 4q-5 7-5.5 11.5t5 8T809 303t11.5 4 8.5 3q14 10 8 14-2 1-8.5 3.5T817 332t-6 4q-3 4 0 14t-2 14q-5-5-9-17.5t-7-16.5q7 9-25 6l-10-1q-4 0-16 2t-20.5 1-13.5-8q-4-8 0-20 1-4 4-2-4-3-11-9.5t-10-8.5q-46 15-94 41 6 1 12-1 5-2 13-6.5t10-5.5q34-14 42-7l5-5q14 16 20 25-7-4-30-1-20 6-22 12 7 12 5 18-4-3-11.5-10T626 339t-15-5q-16 0-22 1-146 80-235 222 7 7 12 8 4 1 5 9t2.5 11 11.5-3q9 8 3 19 1-1 44 27 19 17 21 21 3 11-10 18-1-2-9-9t-9-4q-3 5 .5 18.5T436 685q-7 0-9.5 16t-2.5 35.5-1 23.5l2 1q-3 12 5.5 34.5T452 815q-13 3 20 43 6 8 8 9 3 2 12 7.5t15 10 10 10.5q4 5 10 22.5t14 23.5q-2 6 9.5 20t10.5 23q-1 0-2.5 1t-2.5 1q3 7 15.5 14t15.5 13q1 3 2 10t3 11 8 2q2-20-24-62-15-25-17-29-3-5-5.5-15.5T549 915q2 0 6 1.5t8.5 3.5 7.5 4 2 3q-3 7 2 17.5t12 18.5 17 19 12 13q6 6 14 19.5t0 13.5q9 0 20 10t17 20q5 8 8 26t5 24q2 7 8.5 13.5t12.5 9.5l16 8 13 7q5 2 18.5 10.5T770 1168q10 4 16 4t14.5-2.5 13.5-3.5q15-2 29 15t21 21q36 19 55 11-2 1 .5 7.5t8 15.5 9 14.5 5.5 8.5q5 6 18 15t18 15q6-4 7-9-3 8 7 20t18 10q14-3 14-32-31 15-49-18 0-1-2.5-5.5t-4-8.5-2.5-8.5 0-7.5 5-3q9 0 10-3.5t-2-12.5-4-13q-1-8-11-20t-12-15q-5 9-16 8t-16-9q0 1-1.5 5.5t-1.5 6.5q-13 0-15-1 1-3 2.5-17.5t3.5-22.5q1-4 5.5-12t7.5-14.5 4-12.5-4.5-9.5-17.5-2.5q-19 1-26 20-1 3-3 10.5t-5 11.5-9 7q-7 3-24 2t-24-5q-13-8-22.5-29t-9.5-37q0-10 2.5-26.5t3-25T780 986q3-2 9-9.5t10-10.5q2-1 4.5-1.5t4.5 0 4-1.5 3-6q-1-1-4-3-3-3-4-3 7 3 28.5-1.5T863 951q15 11 22-2 0-1-2.5-9.5T882 926q5 27 29 9 3 3 15.5 5t17.5 5q3 2 7 5.5t5.5 4.5 5-.5 8.5-6.5q10 14 12 24 11 40 19 44 7 3 11 2t4.5-9.5 0-14-1.5-12.5l-1-8v-18l-1-8q-15-3-18.5-12t1.5-18.5 15-18.5q1-1 8-3.5t15.5-6.5 12.5-8q21-19 15-35 7 0 11-9-1 0-5-3t-7.5-5-4.5-2q9-5 2-16 5-3 7.5-11t7.5-10q9 12 21 2 7-8 1-16 5-7 20.5-10.5t18.5-9.5q7 2 8-2t1-12 3-12q4-5 15-9t13-5l17-11q3-4 0-4 18 2 31-11 10-11-6-20 3-6-3-9.5t-15-5.5q3-1 11.5-.5t10.5-1.5q15-10-7-16-17-5-43 12zm-163 877q206-36 351-189-3-3-12.5-4.5t-12.5-3.5q-18-7-24-8 1-7-2.5-13t-8-9-12.5-8-11-7q-2-2-7-6t-7-5.5-7.5-4.5-8.5-2-10 1l-3 1q-3 1-5.5 2.5t-5.5 3-4 3 0 2.5q-21-17-36-22-5-1-11-5.5t-10.5-7-10-1.5-11.5 7q-5 5-6 15t-2 13q-7-5 0-17.5t2-18.5q-3-6-10.5-4.5t-12 4.5-11.5 8.5-9 6.5-8.5 5.5-8.5 7.5q-3 4-6 12t-5 11q-2-4-11.5-6.5t-9.5-5.5q2 10 4 35t5 38q7 31-12 48-27 25-29 40-4 22 12 26 0 7-8 20.5t-7 21.5q0 6 2 16z"/>
    </symbol>
    <symbol id="google-circles" viewBox="0 0 24 24">
      <title>google-circles icon</title>
      <path d="M16.66 15H17c1 0 2-.2 2.87-.54-.7 4.27-4.4 7.54-8.87 7.54-5 0-9-4.03-9-9 0-4.47 3.27-8.17 7.54-8.87C9.2 5 9 6 9 7v.34c-2.32.82-4 3.04-4 5.66a6 6 0 0 0 6 6c2.62 0 4.84-1.68 5.66-4m.34-5a3 3 0 0 0 3-3 3 3 0 0 0-3-3 3 3 0 0 0-3 3 3 3 0 0 0 3 3m0-9a6 6 0 0 1 6 6 6 6 0 0 1-6 6 6 6 0 0 1-6-6c0-3.32 2.69-6 6-6z"/>
    </symbol>
    <symbol id="google-controller" viewBox="0 0 24 24">
      <title>google-controller icon</title>
      <path d="M7.97 16L5 19c-.33.3-.77.5-1.25.5A1.75 1.75 0 0 1 2 17.75v-.25l1-7.38C3.21 7.81 5.14 6 7.5 6h9c2.36 0 4.29 1.81 4.5 4.12l1 7.38v.25a1.75 1.75 0 0 1-1.75 1.75c-.48 0-.92-.2-1.25-.5l-2.97-3H7.97M7 8v2H5v1h2v2h1v-2h2v-1H8V8H7m9.5 0a.75.75 0 0 0-.75.75.75.75 0 0 0 .75.75.75.75 0 0 0 .75-.75.75.75 0 0 0-.75-.75m-1.75 1.75a.75.75 0 0 0-.75.75.75.75 0 0 0 .75.75.75.75 0 0 0 .75-.75.75.75 0 0 0-.75-.75m3.5 0a.75.75 0 0 0-.75.75.75.75 0 0 0 .75.75.75.75 0 0 0 .75-.75.75.75 0 0 0-.75-.75M16.5 11.5a.75.75 0 0 0-.75.75.75.75 0 0 0 .75.75.75.75 0 0 0 .75-.75.75.75 0 0 0-.75-.75z"/>
    </symbol>
    <symbol id="hearing" viewBox="0 0 24 24">
      <title>hearing icon</title>
      <path d="M17 20c-.29 0-.56-.06-.76-.15-.71-.37-1.21-.88-1.71-2.38-.51-1.56-1.47-2.29-2.39-3-.79-.61-1.61-1.24-2.32-2.53C9.29 10.98 9 9.93 9 9c0-2.8 2.2-5 5-5s5 2.2 5 5h2c0-3.93-3.07-7-7-7S7 5.07 7 9c0 1.26.38 2.65 1.07 3.9.91 1.65 1.98 2.48 2.85 3.15.81.62 1.39 1.07 1.71 2.05.6 1.82 1.37 2.84 2.73 3.55.51.23 1.07.35 1.64.35 2.21 0 4-1.79 4-4h-2c0 1.1-.9 2-2 2zM7.64 2.64L6.22 1.22C4.23 3.21 3 5.96 3 9s1.23 5.79 3.22 7.78l1.41-1.41C6.01 13.74 5 11.49 5 9s1.01-4.74 2.64-6.36zM11.5 9c0 1.38 1.12 2.5 2.5 2.5s2.5-1.12 2.5-2.5-1.12-2.5-2.5-2.5-2.5 1.12-2.5 2.5z"/><path d="M0 0h24v24H0z" fill="none"/>
    </symbol>
    <symbol id="hexagon" viewBox="0 0 50.000012 55.00001">
      <title>hexagon icon</title>
      <path d="M25 55L0 40V15L25 0l25 15v25L25 55z" fill="#55A32A" fill-rule="evenodd"/>
    </symbol>
    <symbol id="image-filter-center-focus" viewBox="0 0 24 24">
      <title>image-filter-center-focus icon</title>
      <path d="M12 9a3 3 0 0 0-3 3 3 3 0 0 0 3 3 3 3 0 0 0 3-3 3 3 0 0 0-3-3m7 10h-4v2h4a2 2 0 0 0 2-2v-4h-2m0-12h-4v2h4v4h2V5a2 2 0 0 0-2-2M5 5h4V3H5a2 2 0 0 0-2 2v4h2m0 6H3v4a2 2 0 0 0 2 2h4v-2H5v-4z"/>
    </symbol>
    <symbol id="import" viewBox="0 0 48 48">
      <title>import icon</title>
      <path d="M40.096 13.783v2.14h5.74l-5.74-2.14zm-32.192.014l-5.732 2.127h5.732v-2.127zM11.172 0C9.755 0 8.604 1.147 8.604 2.563v13.36h30.79V10.25L29.135 0zm16.36 2.3l9.764 9.548H27.52z"/><defs><path id="a" d="M29.133 0H11.17C9.755 0 8.605 1.147 8.605 2.562V38.43c0 1.415 1.15 2.562 2.566 2.562h25.66c1.418 0 2.565-1.147 2.565-2.562V10.248L29.133 0z"/></defs><clipPath id="b"><use xlink:href="#a" overflow="visible"/></clipPath><path fill="none" d="M3.473 0h41.055v40.99H3.473z"/><g><path d="M.246 16.623v28.412c0 1.637 1.33 2.965 2.97 2.965h41.567c1.64 0 2.97-1.328 2.97-2.965V16.623H.247zm17.817 5.93h11.876c1.092 0 1.978.885 1.978 1.976 0 1.09-.887 1.976-1.98 1.976H18.063c-1.093 0-1.98-.885-1.98-1.977s.888-1.977 1.98-1.977zm2.572 7.527v4.068H32.27v3.914H20.636v4.07L14.6 36.104l6.035-6.025z"/></g><path fill="none" d="M0 0h48v48H0z"/>
    </symbol>
    <symbol id="info-circle" viewBox="0 0 1792 1792">
      <title>info-circle icon</title>
      <path d="M1152 1376v-160q0-14-9-23t-23-9h-96V672q0-14-9-23t-23-9H672q-14 0-23 9t-9 23v160q0 14 9 23t23 9h96v320h-96q-14 0-23 9t-9 23v160q0 14 9 23t23 9h448q14 0 23-9t9-23zm-128-896V320q0-14-9-23t-23-9H800q-14 0-23 9t-9 23v160q0 14 9 23t23 9h192q14 0 23-9t9-23zm640 416q0 209-103 385.5T1281.5 1561 896 1664t-385.5-103T231 1281.5 128 896t103-385.5T510.5 231 896 128t385.5 103T1561 510.5 1664 896z"/>
    </symbol>
    <symbol id="info" viewBox="0 0 1792 1792">
      <title>info icon</title>
      <path d="M1216 1344v128q0 26-19 45t-45 19H640q-26 0-45-19t-19-45v-128q0-26 19-45t45-19h64V896h-64q-26 0-45-19t-19-45V704q0-26 19-45t45-19h384q26 0 45 19t19 45v576h64q26 0 45 19t19 45zM1088 192v192q0 26-19 45t-45 19H768q-26 0-45-19t-19-45V192q0-26 19-45t45-19h256q26 0 45 19t19 45z"/>
    </symbol>
    <symbol id="jigsaw-pieces" viewBox="0 0 100 100">
      <title>jigsaw-pieces icon</title>
      <path d="M83.33 25.78h-6.825l-.022.002H52.28v8.13l.22-.002c6.688 0 12.13 5.44 12.13 12.13 0 6.687-5.44 12.128-12.13 12.128-.073 0-.146 0-.22-.002V66.3h31.05c3.616 0 6.575-2.957 6.575-6.574v-27.37c0-3.617-2.96-6.576-6.575-6.576z"/><path d="M62.28 46.04c0-5.402-4.38-9.78-9.78-9.78-.89 0-1.75.128-2.57.352V25.78H16.54c-3.616 0-6.575 2.958-6.575 6.575v27.368c0 3.618 2.958 6.577 6.575 6.577h6.826l.022-.003H49.93v-10.83c.82.224 1.68.353 2.57.353 5.4 0 9.78-4.38 9.78-9.78z"/><path d="M36.33 40.97c0-2.978-2.524-5.39-5.64-5.39-3.113 0-5.637 2.413-5.637 5.39 0 1.928 1.062 3.615 2.654 4.568L25.053 56.5H36.33L33.675 45.54c1.592-.953 2.655-2.64 2.655-4.568z"/>
    </symbol>
    <symbol id="jigsaw" viewBox="0 0 20 25">
      <title>jigsaw icon</title>
      <path d="M-95.292 21.426c-1.23 1.287-2.958 2.098-4.878 2.098-3.734 0-6.762-3.027-6.762-6.76S-103.905 10-100.17 10c1.92 0 3.646.812 4.878 2.1h2.233V-6.632h-18.652V-8.36c1.29-1.23 2.1-2.957 2.1-4.878 0-3.734-3.028-6.762-6.763-6.762s-6.762 3.027-6.762 6.762c0 1.92.813 3.647 2.1 4.878v1.73h-18.654V12.02h-1.61c-1.232-1.288-2.96-2.1-4.88-2.1-3.733 0-6.76 3.03-6.76 6.762 0 3.734 3.026 6.762 6.76 6.762 1.92 0 3.648-.81 4.88-2.1h1.61V40h18.79v-2.04c-1.29-1.23-2.097-2.956-2.097-4.876 0-3.734 3.027-6.762 6.76-6.762s6.763 3.027 6.763 6.762c0 1.92-.813 3.646-2.098 4.877V40h18.515V21.426h-2.235zM-45.528 16.617c-.82.858-1.972 1.398-3.252 1.398-2.49 0-4.508-2.018-4.508-4.507 0-2.49 2.02-4.508 4.508-4.508 1.28 0 2.43.54 3.252 1.4h1.49V-2.09h-12.437V-3.24c.86-.82 1.4-1.97 1.4-3.252 0-2.49-2.02-4.508-4.51-4.508s-4.507 2.018-4.507 4.508c0 1.28.542 2.432 1.4 3.252v1.152H-75.13v12.436h-1.073c-.82-.858-1.972-1.4-3.252-1.4-2.49 0-4.508 2.02-4.508 4.508 0 2.49 2.018 4.508 4.508 4.508 1.28 0 2.432-.54 3.252-1.4h1.074V29h12.53v-1.36c-.86-.82-1.398-1.97-1.398-3.25 0-2.49 2.018-4.508 4.507-4.508 2.49 0 4.507 2.02 4.507 4.508 0 1.28-.542 2.43-1.398 3.25V29h12.342V16.617h-1.49zM-7.146 16.713c-.616.644-1.48 1.05-2.44 1.05-1.866 0-3.38-1.515-3.38-3.38 0-1.87 1.514-3.382 3.38-3.382.96 0 1.824.406 2.44 1.05h1.117V2.684h-9.326V1.82c.645-.615 1.05-1.478 1.05-2.44 0-1.866-1.514-3.38-3.382-3.38s-3.38 1.514-3.38 3.38c0 .962.405 1.825 1.048 2.44v.864h-9.327v9.327h-.805c-.615-.643-1.48-1.048-2.44-1.048-1.866 0-3.38 1.514-3.38 3.38 0 1.867 1.514 3.38 3.38 3.38.96 0 1.825-.403 2.44-1.048h.805V26h9.396v-1.02c-.646-.615-1.05-1.48-1.05-2.438 0-1.867 1.514-3.38 3.38-3.38s3.382 1.513 3.382 3.38c0 .96-.406 1.823-1.05 2.438V26h9.258v-9.287h-1.116zM19.236 13.81c-.41.428-.986.698-1.626.698-1.245 0-2.254-1.01-2.254-2.253 0-1.245 1.01-2.254 2.254-2.254.64 0 1.216.27 1.626.7h.745V4.456h-6.217V3.88c.43-.41.7-.985.7-1.626C14.463 1.01 13.453 0 12.208 0S9.954 1.01 9.954 2.254c0 .64.27 1.216.7 1.626v.576H4.435v6.218H3.9c-.41-.43-.987-.7-1.627-.7-1.245 0-2.254 1.01-2.254 2.254 0 1.245 1.008 2.254 2.253 2.254.64 0 1.216-.27 1.626-.7h.536V20H10.7v-.68c-.43-.41-.7-.986-.7-1.625 0-1.245 1.01-2.254 2.254-2.254s2.254 1.01 2.254 2.255c0 .64-.27 1.215-.7 1.625V20h6.172v-6.19h-.744z"/><text y="35" font-size="5" font-weight="bold" font-family="'Helvetica Neue', Helvetica, Arial-Unicode, Arial, Sans-serif">Created by Alex Auda Samora</text><text y="40" font-size="5" font-weight="bold" font-family="'Helvetica Neue', Helvetica, Arial-Unicode, Arial, Sans-serif">from the Noun Project</text>
    </symbol>
    <symbol id="life-ring" viewBox="0 0 1792 1792">
      <title>life-ring icon</title>
      <path d="M896 0q182 0 348 71t286 191 191 286 71 348-71 348-191 286-286 191-348 71-348-71-286-191-191-286T0 896t71-348 191-286T548 71 896 0zm0 128q-190 0-361 90l194 194q82-28 167-28t167 28l194-194q-171-90-361-90zM218 1257l194-194q-28-82-28-167t28-167L218 535q-90 171-90 361t90 361zm678 407q190 0 361-90l-194-194q-82 28-167 28t-167-28l-194 194q171 90 361 90zm0-384q159 0 271.5-112.5T1280 896t-112.5-271.5T896 512 624.5 624.5 512 896t112.5 271.5T896 1280zm484-217l194 194q90-171 90-361t-90-361l-194 194q28 82 28 167t-28 167z"/>
    </symbol>
    <symbol id="line-chart" viewBox="0 0 1792 1792">
      <title>line-chart icon</title>
      <path d="M1920 1536v128H-128V128H0v1408h1920zM1792 288v435q0 21-19.5 29.5T1737 745l-121-121-633 633q-10 10-23 10t-23-10l-233-233-416 416-192-192 585-585q10-10 23-10t23 10l233 233 464-464-121-121q-16-16-7.5-35.5T1325 256h435q14 0 23 9t9 23z"/>
    </symbol>
    <symbol id="lock-outline" viewBox="0 0 24 24">
      <title>lock-outline icon</title>
      <path d="M12 17c-1.11 0-2-.9-2-2 0-1.11.89-2 2-2a2 2 0 0 1 2 2 2 2 0 0 1-2 2m6 3V10H6v10h12m0-12a2 2 0 0 1 2 2v10a2 2 0 0 1-2 2H6c-1.11 0-2-.9-2-2V10c0-1.11.89-2 2-2h1V6a5 5 0 0 1 5-5 5 5 0 0 1 5 5v2h1m-6-5a3 3 0 0 0-3 3v2h6V6a3 3 0 0 0-3-3z"/>
    </symbol>
    <symbol id="logo" viewBox="0 0 30.00001 60.000014">
      <title>logo icon</title>
      <g fill-rule="evenodd" stroke-width=".1"><path d="M15 40l15 10V30L15 20z" fill="#4c9225" stroke="#4c9225"/><path d="M15 40L0 50V30l15-10z" fill="#539f29" stroke="#539f29"/><path d="M0 50l15 10V40L0 30z" fill="#4c9225" stroke="#4c9225"/><path d="M15 60l15-10V30L15 40v20zM0 30l15-10V0L0 10z" fill="#55a32a" stroke="#55a32a"/></g>
    </symbol>
    <symbol id="map-marker" viewBox="0 0 24 24">
      <title>map-marker icon</title>
      <path d="M12 11.5A2.5 2.5 0 0 1 9.5 9 2.5 2.5 0 0 1 12 6.5 2.5 2.5 0 0 1 14.5 9a2.5 2.5 0 0 1-2.5 2.5M12 2a7 7 0 0 0-7 7c0 5.25 7 13 7 13s7-7.75 7-13a7 7 0 0 0-7-7z"/>
    </symbol>
    <symbol id="newspaper" viewBox="0 0 24 24">
      <title>newspaper icon</title>
      <path d="M20 11H4V8h16m0 5h-7v-1h7m0 3h-7v-1h7m0 3h-7v-1h7m0 3h-7v-1h7m-8 1H4v-7h8m8.33-7.33L18.67 3 17 4.67 15.33 3l-1.66 1.67L12 3l-1.67 1.67L8.67 3 7 4.67 5.33 3 3.67 4.67 2 3v16a2 2 0 0 0 2 2h16a2 2 0 0 0 2-2V3l-1.67 1.67z"/>
    </symbol>
    <symbol id="odnoklassniki" viewBox="0 0 24 24">
      <title>odnoklassniki icon</title>
      <path d="M17.83 12.74c-.28-.57-1.07-1.05-2.12-.24-1.43 1.14-3.71 1.14-3.71 1.14s-2.28 0-3.71-1.14c-1.05-.81-1.84-.33-2.12.24-.5 1 .06 1.49 1.33 2.3 1.09.7 2.58.96 3.54 1.06l-.8.8C9.1 18.03 8 19.12 7.25 19.88c-.45.46-.45 1.19 0 1.62l.14.16c.45.45 1.19.45 1.64 0L12 18.68c1.15 1.13 2.24 2.22 3 2.98.45.45 1.18.45 1.64 0l.13-.16c.46-.43.46-1.16 0-1.62l-2.98-2.98-.79-.81c.95-.09 2.42-.36 3.5-1.05 1.27-.81 1.83-1.3 1.33-2.3M12 4.57c1.38 0 2.5 1.12 2.5 2.49 0 1.38-1.12 2.49-2.5 2.49S9.5 8.44 9.5 7.06c0-1.37 1.12-2.49 2.5-2.49m0 7.55c2.8 0 5.06-2.26 5.06-5.06C17.06 4.27 14.8 2 12 2S6.94 4.27 6.94 7.06c0 2.8 2.26 5.06 5.06 5.06z"/>
    </symbol>
    <symbol id="order" viewBox="0 0 36 40">
      <title>order icon</title>
      <path d="M22.47 6h-6.53v2H22v30H2V8h6V6H1.53C.68 6 0 6.68 0 7.53v30.94C0 39.32.68 40 1.53 40h20.94c.85 0 1.53-.68 1.53-1.53V7.53C24 6.68 23.32 6 22.47 6z"/><path d="M13.45 0h-2.96C9.12 0 8 1.12 8 2.49v8.02C8 11.88 9.12 13 10.49 13h2.96c1.37 0 2.49-1.12 2.49-2.49V2.49c0-1.37-1.12-2.49-2.49-2.49zM14 10.51c-.06.27-.28.49-.55.49h-2.96c-.27 0-.49-.22-.49-.49V2.49c0-.27.22-.49.49-.49h2.96c.27 0 .49.22.55.49v8.02zM20 19c0 .55-.45 1-1 1h-9c-.55 0-1-.45-1-1s.45-1 1-1h9c.55 0 1 .45 1 1zm0 6c0 .55-.45 1-1 1h-9c-.55 0-1-.45-1-1s.45-1 1-1h9c.55 0 1 .45 1 1zm0 6c0 .55-.45 1-1 1h-9c-.55 0-1-.45-1-1s.45-1 1-1h9c.55 0 1 .45 1 1zM8 31c0 1.1-.9 2-2 2s-2-.9-2-2 .9-2 2-2 2 .9 2 2zm0-6c0 1.1-.9 2-2 2s-2-.9-2-2 .9-2 2-2 2 .9 2 2zm0-6c0 1.1-.9 2-2 2s-2-.9-2-2 .9-2 2-2 2 .9 2 2zm24.68 12.39c-.26.37-.69.61-1.18.61H30c.74 0 1.38.72 1.48 1.62-.54.44-1.03.98-1.48 1.6-.45-.62-.94-1.16-1.48-1.6.1-.9.74-1.62 1.48-1.62h-1.5c-.49 0-.92-.24-1.18-.61-.51.67-.82 1.55-.82 2.5 0 .19.01.38.04.55.01.09.02.18.04.27 1.18.67 2 1.85 2.54 2.93.63 1.25.88 2.36.88 2.36s.25-1.11.88-2.36c.54-1.08 1.36-2.26 2.54-2.93.02-.09.03-.18.04-.27.03-.17.04-.36.04-.55 0-.95-.31-1.83-.82-2.5zM31.5 2h-3c-.83 0-1.5.7-1.5 1.55V6h2V4h2v2h2V3.55C33 2.7 32.33 2 31.5 2zM33 8v22.45c0 .35-.11.68-.32.94-.26.37-.69.61-1.18.61h-3c-.49 0-.92-.24-1.18-.61-.21-.26-.32-.59-.32-.94V8h2v22h2V8h2z"/><path d="M36 8.49V18c0 .55-.45 1-1 1s-1-.45-1-1V8.49c0-.27-.22-.49-.49-.49H27c-.55 0-1-.45-1-1s.45-1 1-1h6.51C34.88 6 36 7.12 36 8.49z"/>
    </symbol>
    <symbol id="package-variant-closed" viewBox="0 0 24 24">
      <title>package-variant-closed icon</title>
      <path d="M21 16.5c0 .38-.21.71-.53.88l-7.9 4.44c-.16.12-.36.18-.57.18-.21 0-.41-.06-.57-.18l-7.9-4.44c-.32-.17-.53-.5-.53-.88v-9c0-.38.21-.71.53-.88l7.9-4.44c.16-.12.36-.18.57-.18.21 0 .41.06.57.18l7.9 4.44c.32.17.53.5.53.88v9M12 4.15l-1.89 1.07L16 8.61l1.96-1.11L12 4.15M6.04 7.5L12 10.85l1.96-1.1-5.88-3.4L6.04 7.5M5 15.91l6 3.38v-6.71L5 9.21v6.7m14 0v-6.7l-6 3.37v6.71l6-3.38z"/>
    </symbol>
    <symbol id="package-variant" viewBox="0 0 24 24">
      <title>package-variant icon</title>
      <path d="M2 10.96c-.5-.28-.65-.89-.37-1.37L3.13 7c.11-.2.28-.34.47-.42l7.83-4.4c.16-.12.36-.18.57-.18.21 0 .41.06.57.18l7.9 4.44c.19.1.35.26.44.46l1.45 2.52c.28.48.11 1.09-.36 1.36l-1 .58v4.96c0 .38-.21.71-.53.88l-7.9 4.44c-.16.12-.36.18-.57.18-.21 0-.41-.06-.57-.18l-7.9-4.44c-.32-.17-.53-.5-.53-.88v-5.54c-.3.17-.68.18-1 0m10-6.81v6.7l5.96-3.35L12 4.15M5 15.91l6 3.38v-6.71L5 9.21v6.7m14 0v-3.22l-5 2.9c-.33.18-.7.17-1 .01v3.69l6-3.38m-5.15-2.55l6.28-3.63-.58-1.01-6.28 3.63.58 1.01z"/>
    </symbol>
    <symbol id="phone" viewBox="0 0 1792 1792">
      <title>phone icon</title>
      <path d="M1600 1240q0 27-10 70.5t-21 68.5q-21 50-122 106-94 51-186 51-27 0-52.5-3.5T1151 1520t-47.5-14.5-55.5-20.5-49-18q-98-35-175-83-128-79-264.5-215.5T344 904q-48-77-83-175-3-9-18-49t-20.5-55.5T208 577t-12.5-57.5T192 467q0-92 51-186 56-101 106-122 25-11 68.5-21t70.5-10q14 0 21 3 18 6 53 76 11 19 30 54t35 63.5 31 53.5q3 4 17.5 25t21.5 35.5 7 28.5q0 20-28.5 50t-62 55-62 53-28.5 46q0 9 5 22.5t8.5 20.5 14 24 11.5 19q76 137 174 235t235 174q2 1 19 11.5t24 14 20.5 8.5 22.5 5q18 0 46-28.5t53-62 55-62 50-28.5q14 0 28.5 7t35.5 21.5 25 17.5q25 15 53.5 31t63.5 35 54 30q70 35 76 53 3 7 3 21z"/>
    </symbol>
    <symbol id="radio-tower" viewBox="0 0 24 24">
      <title>radio-tower icon</title>
      <path d="M12 10a2 2 0 0 1 2 2c0 .5-.18.94-.47 1.29L16.7 22h-2.13L12 14.93 9.43 22H7.3l3.17-8.71c-.29-.35-.47-.79-.47-1.29a2 2 0 0 1 2-2m0-2a4 4 0 0 0-4 4c0 .5.1 1 .28 1.46l-.88 2.4C6.53 14.81 6 13.47 6 12a6 6 0 0 1 6-6 6 6 0 0 1 6 6c0 1.47-.53 2.81-1.4 3.86l-.88-2.4C15.9 13 16 12.5 16 12a4 4 0 0 0-4-4m0-4a8 8 0 0 0-8 8c0 2.36 1 4.5 2.64 5.94l-.72 2C3.54 18.11 2 15.23 2 12A10 10 0 0 1 12 2a10 10 0 0 1 10 10c0 3.23-1.54 6.11-3.92 7.94l-.72-2C19 16.5 20 14.36 20 12a8 8 0 0 0-8-8z"/>
    </symbol>
    <symbol id="rocket" viewBox="0 0 1792 1792">
      <title>rocket icon</title>
      <path d="M1504 448q0-40-28-68t-68-28-68 28-28 68 28 68 68 28 68-28 28-68zm224-288q0 249-75.5 430.5T1399 951q-81 80-195 176l-20 379q-2 16-16 26l-384 224q-7 4-16 4-12 0-23-9l-64-64q-13-14-8-32l85-276-281-281-276 85q-3 1-9 1-14 0-23-9l-64-64q-17-19-5-39l224-384q10-14 26-16l379-20q96-114 176-195 188-187 358-258t431-71q14 0 24 9.5t10 22.5z"/>
    </symbol>
    <symbol id="sale" viewBox="0 0 24 24">
      <title>sale icon</title>
      <path d="M18.65 2.85l.61 3.86 3.51 1.79L21 12l1.78 3.5-3.54 1.79-.61 3.86-3.89-.61-2.77 2.76-2.78-2.8-3.86.64-.62-3.89-3.49-1.78L3 11.97 1.23 8.5l3.51-1.81.61-3.83 3.87.64L12 .69l2.77 2.77 3.88-.61M9.5 7A1.5 1.5 0 0 0 8 8.5 1.5 1.5 0 0 0 9.5 10 1.5 1.5 0 0 0 11 8.5 1.5 1.5 0 0 0 9.5 7m5 7a1.5 1.5 0 0 0-1.5 1.5 1.5 1.5 0 0 0 1.5 1.5 1.5 1.5 0 0 0 1.5-1.5 1.5 1.5 0 0 0-1.5-1.5m-6.09 3L17 8.41 15.59 7 7 15.59 8.41 17z"/>
    </symbol>
    <symbol id="scale" viewBox="0 0 24 24">
      <title>scale icon</title>
      <path d="M8.46 15.06l-1.41 1.41-1.37-1.37c-.86 1.11-1.44 2.44-1.62 3.9H6v2H2v-1c0-4.84 3.44-8.87 8-9.8v-2L2 5V3h20v2l-8 3.2v2c4.56.93 8 4.96 8 9.8v1h-4v-2h1.94c-.18-1.46-.76-2.79-1.62-3.9l-1.37 1.37-1.41-1.41 1.37-1.38c-1.11-.86-2.45-1.44-3.91-1.62V14h-2v-1.94c-1.46.18-2.8.76-3.91 1.62l1.37 1.38M12 18a2 2 0 0 1 2 2 2 2 0 0 1-2 2c-.32 0-.62-.07-.88-.21L7.27 20l3.85-1.79c.26-.14.56-.21.88-.21z"/>
    </symbol>
    <symbol id="searchful" viewBox="0 0 18.281251 29.355467">
      <title>searchful icon</title>
      <path style="-inkscape-font-specification:'Open Sans Semi-Bold'" d="M18.28 21.21q0 3.81-2.753 5.977-2.754 2.168-7.597 2.168-4.844 0-7.93-1.503v-4.415q1.953.918 4.14 1.446 2.208.527 4.102.527 2.774 0 4.082-1.055 1.328-1.054 1.328-2.832 0-1.6-1.21-2.714-1.212-1.115-5-2.638-3.907-1.582-5.508-3.613Q.332 10.526.332 7.675q0-3.574 2.54-5.625Q5.41 0 9.687 0q4.1 0 8.164 1.797l-1.485 3.808q-3.808-1.6-6.797-1.6-2.265 0-3.437.995-1.172.977-1.172 2.598 0 1.113.47 1.914.468.78 1.543 1.484 1.074.703 3.867 1.856 3.144 1.308 4.61 2.44 1.464 1.134 2.148 2.56.683 1.425.683 3.36z" font-weight="600" font-family="Open Sans" font-size="40" letter-spacing="0" word-spacing="0"/>
    </symbol>
    <symbol id="store" viewBox="0 0 24 24">
      <title>store icon</title>
      <path d="M12 18H6v-4h6m9 0v-2l-1-5H4l-1 5v2h1v6h10v-6h4v6h2v-6m0-10H4v2h16V4z"/>
    </symbol>
    <symbol id="sync" viewBox="0 0 24 24">
      <title>sync icon</title>
      <path d="M12 18a6 6 0 0 1-6-6c0-1 .25-1.97.7-2.8L5.24 7.74C4.46 8.97 4 10.43 4 12a8 8 0 0 0 8 8v3l4-4-4-4m0-11V1L8 5l4 4V6a6 6 0 0 1 6 6c0 1-.25 1.97-.7 2.8l1.46 1.46C19.54 15.03 20 13.57 20 12a8 8 0 0 0-8-8z"/>
    </symbol>
    <symbol id="tablet-ipad" viewBox="0 0 24 24">
      <title>tablet-ipad icon</title>
      <path d="M19 19H4V3h15m-7.5 20a1.5 1.5 0 0 1-1.5-1.5 1.5 1.5 0 0 1 1.5-1.5 1.5 1.5 0 0 1 1.5 1.5 1.5 1.5 0 0 1-1.5 1.5m7-23h-14A2.5 2.5 0 0 0 2 2.5v19A2.5 2.5 0 0 0 4.5 24h14a2.5 2.5 0 0 0 2.5-2.5v-19A2.5 2.5 0 0 0 18.5 0z"/>
    </symbol>
    <symbol id="tachometer" viewBox="0 0 1792 1792">
      <title>tachometer icon</title>
      <path d="M384 1152q0-53-37.5-90.5T256 1024t-90.5 37.5T128 1152t37.5 90.5T256 1280t90.5-37.5T384 1152zm192-448q0-53-37.5-90.5T448 576t-90.5 37.5T320 704t37.5 90.5T448 832t90.5-37.5T576 704zm428 481l101-382q6-26-7.5-48.5T1059 725t-48 6.5-30 39.5l-101 382q-60 5-107 43.5t-63 98.5q-20 77 20 146t117 89 146-20 89-117q16-60-6-117t-72-91zm660-33q0-53-37.5-90.5T1536 1024t-90.5 37.5-37.5 90.5 37.5 90.5 90.5 37.5 90.5-37.5 37.5-90.5zm-640-640q0-53-37.5-90.5T896 384t-90.5 37.5T768 512t37.5 90.5T896 640t90.5-37.5T1024 512zm448 192q0-53-37.5-90.5T1344 576t-90.5 37.5T1216 704t37.5 90.5T1344 832t90.5-37.5T1472 704zm320 448q0 261-141 483-19 29-54 29H195q-35 0-54-29Q0 1414 0 1152q0-182 71-348t191-286 286-191 348-71 348 71 286 191 191 286 71 348z"/>
    </symbol>
    <symbol id="timer" viewBox="0 0 24 24">
      <title>timer icon</title>
      <path d="M0 0h24v24H0z" fill="none"/><path d="M11 17c0 .55.45 1 1 1s1-.45 1-1-.45-1-1-1-1 .45-1 1zm0-14v4h2V5.08c3.39.49 6 3.39 6 6.92 0 3.87-3.13 7-7 7s-7-3.13-7-7c0-1.68.59-3.22 1.58-4.42L12 13l1.41-1.41-6.8-6.8v.02C4.42 6.45 3 9.05 3 12c0 4.97 4.02 9 9 9 4.97 0 9-4.03 9-9s-4.03-9-9-9h-1zm7 9c0-.55-.45-1-1-1s-1 .45-1 1 .45 1 1 1 1-.45 1-1zM6 12c0 .55.45 1 1 1s1-.45 1-1-.45-1-1-1-1 .45-1 1z"/>
    </symbol>
    <symbol id="toolkit" viewBox="0 0 65 65">
      <title>toolkit icon</title>
      <path d="M8.7.6c-.4.4.6 2.2 2.3 3.9 2.6 2.7 2.9 3.5 2.1 5.7-1.5 4-5 4.3-8.7.7C.9 7.5-.5 8.2.5 13c.9 4.2 5.8 8 10.3 8 3.5 0 5 1.3 25.4 21.7L58 64.5l3.2-3.3 3.3-3.2-21.8-21.8C22.2 15.7 21 14.3 21 10.8c0-2.7-.8-4.6-2.7-6.8C15.5 1 10.2-.9 8.7.6zM12 46.5L1.6 57 5 60.5 8.4 64l10.8-10.7L30 42.6l-3.2-3.3C25 37.5 23.4 36 23 36c-.3 0-5.2 4.7-11 10.5z"/><path d="M37.422 24.886l2.928 2.803 10.84-11.525 4.36-1.308 7.6-9.095-4.05-3.986-9.095 7.6-1.12 4.173z" fill-rule="evenodd"/>
    </symbol>
    <symbol id="view-dashboard" viewBox="0 0 24 24">
      <title>view-dashboard icon</title>
      <path d="M13 3v6h8V3m-8 18h8V11h-8M3 21h8v-6H3m0-2h8V3H3v10z"/>
    </symbol>
    <symbol id="xml" viewBox="0 0 24 24">
      <title>xml icon</title>
      <path d="M12.89 3l1.96.4L11.11 21l-1.96-.4L12.89 3m6.7 9L16 8.41V5.58L22.42 12 16 18.41v-2.83L19.59 12M1.58 12L8 5.58v2.83L4.41 12 8 15.58v2.83L1.58 12z"/>
    </symbol></svg>